<svg xmlns="http://www.w3.org/2000/svg" viewBox="0 0 150 150"><path d="M128.6 75A53.7 53.7 0 1 0 75 128.6 53.7 53.7 0 0 0 128.6 75Z" fill="#20c4cb"/><path d="M88.9 84c-2.2 2.4-5.3 3.6-6.7 3.6a2.7 2.7 0 0 1-2.8-2.5 3.6 3.6 0 0 1 .2-1.8 39.7 39.7 0 0 1 1.7-6.1c0-.2-.1-.4-.2-.4s-4.8 3.9-5.4 6.4l-.4 2.1a3 3 0 0 1-2.6 2.3.8.8 0 0 1-.9-.8v-.7l.2-1c-2 1.5-4.2 2.5-5.1 2.5a2.3 2.3 0 0 1-2.5-1.9 4 4 0 0 1-3.3 1.9 4.5 4.5 0 0 1-4-2.8 21.6 21.6 0 0 1-3.9 3.4 14.1 14.1 0 0 1-7.8 2.7 10 10 0 0 1-6.4-2.7 11.4 11.4 0 0 1-3.2-6.9c-1-7.6 3.7-17.8 11-22.2a10.4 10.4 0 0 1 5.3-1.5 6.3 6.3 0 0 1 6.4 5.4c.4 2.8-.7 5.1-3.7 6.5-1.5.8-2.3.8-2.5.3a.7.7 0 0 1 .2-.8c2.9-2.3 2.9-4.3 2.5-7s-1.3-2.9-2.6-2.9c-5.7 0-13.6 12.4-12.5 21.4.5 3.5 2.7 7.5 7 7.5a9.6 9.6 0 0 0 4.4-1.1 15.3 15.3 0 0 0 5.2-3.8c-.4-4.2 3.2-9.4 8.5-9.4 2.3 0 4.2.8 4.4 2.7a2.3 2.3 0 0 1-2.4 2.7c-.7 0-1.7-.2-1.8-.7s1.4-.4 1.2-1.8-1.1-1.2-2-1.2c-3.2 0-5.1 4.6-4.8 7.5.1 1.3.9 2.6 2 2.6s2.4-1.4 2.8-3.4a3.1 3.1 0 0 1 2.7-2.3c.5 0 .8.2.8.8v.6c-.1.6-.5 2.6-.5 3a.9.9 0 0 0 .9.9 10.2 10.2 0 0 0 4-2.6c.6-2.7 1.2-6.1 1.2-6.3s.7-2.3 2.9-2.3c.4 0 .7.2.9.8v.6l-.6 3c2-2.7 5-4.6 6.9-4.6a1.4 1.4 0 0 1 1.5 1.2 6.4 6.4 0 0 1-.3 2.1 45.3 45.3 0 0 0-1.9 6.7 1 1 0 0 0 1 1.2c.8 0 3.1-.8 5-3.4v-1a16.4 16.4 0 0 1 .5-4.8 3.6 3.6 0 0 1 2.9-2.3.8.8 0 0 1 .8.9 1.7 1.7 0 0 1-.1.7 21.1 21.1 0 0 0-1.1 5.8 13.6 13.6 0 0 0 .5 3.6.3.3 0 0 0 .3.3c.3 0 2.5-2.1 4-4.7a5.1 5.1 0 0 1-2.2-4.5c0-3.3 2-5 4-5s2.8 1.1 2.8 3.3a10.3 10.3 0 0 1-1.3 4.5h.5a3.6 3.6 0 0 0 2.6-1.2 1.7 1.7 0 0 1 .6-.6 8.9 8.9 0 0 1 6.5-3.2c2.3 0 4.2.9 4.4 2.8a2.4 2.4 0 0 1-2.4 2.8c-.7 0-1.8-.2-1.8-.7s1.4-.4 1.3-1.8-1.1-1.3-1.9-1.3c-3.1 0-5.2 4-4.9 7.4.2 1.3.8 2.7 2 2.7s2.4-1.5 3-3.4a3.1 3.1 0 0 1 2.6-2.3c.4 0 .9.2.9.7a18 18 0 0 1-.6 3.1 10.6 10.6 0 0 0-.2 2.3 4.9 4.9 0 0 0 1.3 2.7c.2.3.4.5.4.6a.7.7 0 0 1-.7.6h-.4a5.7 5.7 0 0 1-3.7-4 3.8 3.8 0 0 1-3.3 1.7 4.8 4.8 0 0 1-4.5-4.2 8.2 8.2 0 0 1 .3-3.1 5.8 5.8 0 0 1-2.6.9h-.8a23.8 23.8 0 0 1-5.9 6 4.9 4.9 0 0 1-1.8.5 1.1 1.1 0 0 1-.9-.4c-.7-.4-1-1.5-1.1-2.8Zm7.4-9.9a6.1 6.1 0 0 0 1.4 3.5 6.2 6.2 0 0 0 .6-2.6c0-1.7-.7-2.4-1.1-2.4s-.9.8-.9 1.5Z" fill="#fff"/></svg>