<svg xmlns="http://www.w3.org/2000/svg" viewBox="0 0 150 150"><g fill="#717172"><path d="M75.4 71.2a6.7 6.7 0 0 1 1.7-4.3v-1.5h-1.3a6.6 6.6 0 0 0-6.2 3.3h-.1v-3.1h-6.8v18.7h6.8v-7.5c0-3.2.9-5.7 4.7-5.7ZM126.9 71.1a12.1 12.1 0 0 1 2.7-4.3v-1.4h-1.3a6.6 6.6 0 0 0-6.2 3.3h-.1v-3.1h-6.8v18.7h6.8v-7.5c0-3.2.9-5.7 4.7-5.7ZM89.2 70.4a9.2 9.2 0 0 0-3.7-.9c-.7 0-2.1.4-2.1 1.3s2.1 1.5 3.1 1.6c3.2.7 5.6 2.1 5.6 5.6s-4.6 6.9-9.1 6.9a14.9 14.9 0 0 1-7.7-2.1l2.4-4.6a11.6 11.6 0 0 0 5.4 1.8c.9 0 2.1-.3 2.1-1.4s-2.1-1.5-4.2-2-4.3-1.6-4.3-5S81 65 85.2 65a15.4 15.4 0 0 1 6.3 1.2l-2.3 4.2ZM150 84.3h-6.8v-2.1h-.1a6.6 6.6 0 0 1-5.8 2.7 10 10 0 0 1-.1-19.9 7.7 7.7 0 0 1 6 2.5v-1.9h6.8v18.7ZM134.7 75a4.4 4.4 0 0 0 8.7 0 4.4 4.4 0 0 0-8.7 0ZM114.1 76.1H99.8c0 2.7 1.4 4.1 4.3 4.1a3.2 3.2 0 0 0 3.2-1.7h6.6c-1.1 4.4-5.4 6.4-9.8 6.4-6.4 0-11.1-3.5-11.1-9.9s4.4-10 10.6-10 10.5 4 10.5 10.4v.7Zm-6.3-3.8a4.1 4.1 0 0 0-7.9 0ZM41.1 74.7a1.1 1.1 0 0 1-.1-.5 9.3 9.3 0 0 0-1.7-4.8 6.5 6.5 0 0 0-1.5-1.8 9.2 9.2 0 0 0-2.8-1.9 11.1 11.1 0 0 0-5.2-1.2h-.5a11.7 11.7 0 0 0-3.8.8 10.9 10.9 0 0 0-3.2 1.7l-.5.5h-.2l-.2.2h-.1l-.2.2-.6.6a8.3 8.3 0 0 0-.8 1.2l-.5.7-1.9 4v.2l-.2.4a28 28 0 0 1-1.4 2.5 5.4 5.4 0 0 1-4.2 1.9h-.3a6.1 6.1 0 0 1-2.7-.8h-.3A5.7 5.7 0 0 1 6.7 77a5.2 5.2 0 0 1-.5-2.4 4.1 4.1 0 0 1 1.5-3.2l.8-.6h.1a5.5 5.5 0 0 1 2.6-.6h.3a4.6 4.6 0 0 1 3.6 1.5l3-5.4a13.4 13.4 0 0 0-2.4-1.2h-.4a9.4 9.4 0 0 0-2.9-.6h-1.2A11.4 11.4 0 0 0 6 65.7a10.3 10.3 0 0 0-4.3 3.7A11.1 11.1 0 0 0 0 74.7v.4a10.1 10.1 0 0 0 2.9 7.1 11.8 11.8 0 0 0 7.8 3.3h.6a11.8 11.8 0 0 0 5-1l1.1-.5.5-.4h.4l.8-.7h.1l.4-.4.6-.6.2-.3h.2l3.3-6.2.2-.3v-.2l1-1.7a5.5 5.5 0 0 1 4-2.3c2.9-.2 5.4 1.6 5.7 4.2a4.9 4.9 0 0 1-4.8 5.1 3.7 3.7 0 0 1-1.8-.1 7.8 7.8 0 0 1-4-3.1l-2.7 5.1 1.4 1.3 2 1.1a12.1 12.1 0 0 0 4.8 1h.4a12.2 12.2 0 0 0 8-3.4 9.7 9.7 0 0 0 3-6.9v-.4ZM51.6 84.9a12.3 12.3 0 0 1-3.9-.5 8.5 8.5 0 0 1-3-1.5 9.2 9.2 0 0 1-1.9-2.8 12 12 0 0 1-.6-4V65.6h6.5V76a3 3 0 0 0 .9 2.5 2.5 2.5 0 0 0 2.1.8 2.8 2.8 0 0 0 2.1-.7 3 3 0 0 0 .9-2.5V65.6h6.5v10.3a12.9 12.9 0 0 1-.6 4.2 9.5 9.5 0 0 1-2 2.8 7.1 7.1 0 0 1-3 1.5 12.5 12.5 0 0 1-4 .5Z"/></g></svg>