<svg xmlns="http://www.w3.org/2000/svg" viewBox="0 0 150 150"><g fill="#0081c7"><path d="M75 27.2a47.8 47.8 0 1 0 33.8 14 47.9 47.9 0 0 0-33.8-14m0-5.8A53.6 53.6 0 1 1 21.4 75 53.6 53.6 0 0 1 75 21.4"/><path d="M49.6 74.6c0-3.2-2-4.9-5-4.9h-1.8v9.8h1.8c2.7 0 5-1.5 5-4.9m32 3.5L68.4 88.5 56.3 79a11.8 11.8 0 0 1-10.9 7.1H35.1v-23h10.3a11.6 11.6 0 0 1 10.9 7.1l12.1-9.5 4.5 3.5-11.1 8.7 2.1 1.7L75 65.9l4.5 3.5-11.1 8.7 2.1 1.7 11.1-8.7v-8h8v16.3h8.1v6.7H81.6v-8Zm26.2 1.3h8.1v6.7H99.8v-23h8v16.3Z"/></g></svg>