<svg xmlns="http://www.w3.org/2000/svg" viewBox="0 0 150 150"><g fill-rule="evenodd"><path d="M31.3 73.6a17.6 17.6 0 0 1 1.2-4.5 13.9 13.9 0 0 1 2.4-3.4c.8-.9 2.4-2.5.8-3.8s-4.2-.1-4.9-.4 4.2-1.4 5.2-1.7 10.9-3.3 7-5.5c-1.7-.9-3.9-1-6-1.2 1-.9 7.9-.7 9.2-.5a27.9 27.9 0 0 1 7.7 2.5 28.3 28.3 0 0 0 3.5 1.5c1.5.4 3.2-.6 2.5-2.3s-1.9-2.2-2.3-2.7-2.2-1.8-2.5-2.7c2.2.1 4.8 2.2 6.9 2.7 4.1.9 3.2-3 3.1-5.8.8.2.2 0 1.1.9 5.5 6 6.7.6 7.8 0s.2 1.5 1.2 2c2.5 1.2 7.9-4.6 9.4-6.4s2.4-3.2 2.9-3.4.1 2.9 2.1 3a9.6 9.6 0 0 0 3.8-1.4c.8 0 .3 0 .5.2-.6 1.9-4.3 3.8-3.1 6.5s5.6 1.8 8.2 1.7c4.5-.3 13.9-1.1 18.2-1.8 1.6-.2 3.2-.5 3.6 1.1s-2.7 8.7-3.7 11.1-2.1 4.4-3.3 6.7-2.8 5.9-3.8 6.2-.2-4.4-1.2-5.9-1.8-.5-2.5.1-.8 1.7-1.7 1.9-1-3.4-.7-4.8 1.5-3.7.3-4.2-.8.2-1.5.3-.2-1.6-1.4-1.5-1.3.9-1.7 1.3a7.7 7.7 0 0 0-1.5 4.4 12.5 12.5 0 0 0-7.6-2.9c-9.6 0-9.3 6.7-4.8 4.3a8.6 8.6 0 0 1 4-1.3 10.6 10.6 0 0 1 4.5.9c1.6.8 1.8 1.7 3.6 1.8.3 2.4.1 3 1 5.1a12.8 12.8 0 0 0 2.6 3.8 13.3 13.3 0 0 0 3.4 2.6c1 .6 3.6 1.7 4.8 1.5s2 .4 2.6.5l.7.2c-.3.4-1.3.6-1.8.8-6 2.1-6.3 4.1.1 6l1 .3c.7.2.6.2.7.4s-3 .8-4.1 1.1c-8.2 2.1.6 6 .8 7.5s-4.7-.7-6.8.5-.3 5.4-.2 5.9-4-1.2-5.4-.1-.1 3.7.1 5.1c-1-.2-2.7-2.6-4.4-2.4s-1.5 3.8-1.5 4.4-.1.2-.1.4v.3c-1-.7-2.2-3.8-3.9-3.7s-1.7 3.5-2.3 5c-.5-.1-.6-.7-.8-1.3-3.4-7.7-4.5 1.3-5.9 2.4-1-.5-2-5.7-4.5-5s-3.5 4.8-4.5 5c-.9-1.3-.9-5.7-3-5.6s-3.8 3.7-4.7 3.9v-1.5c.1-1.2.6-3.2.2-4.4a2.2 2.2 0 0 0-3.2-1.4c-1.6.9-4.9 4.2-6 4.2.2-2.6 3.9-7.4 2-7.7a2.9 2.9 0 0 0-1.7.6c-1.3.8-4.5 3.3-5.2 3.4s1.6-2.3 2.2-3.1 1.7-2.2 1.4-3.8-5.1.8-6.9 1c.1-.7 2.7-2.7 3.4-3.2s3.4-2.2 3.3-3.5-4.3-.1-6.4-1c.1-.5.3-.5 1.1-1a27.2 27.2 0 0 0 3.7-2.7c.7-.9.8-2.4-1-2.1s-2.5.7-3.4.8c.7-1.7 9.8-13.9 4.5-13.6-1.9.1-3.1 4.5-4 6.6-2.3 5.4-4.8 5.2-5.1 5.2h-.2c-.7-.8-.8-4-.9-5.1s.2-3.9-.7-5.3c-2.4-3.2-6.6 2.2-7.6 2.2v-2.2ZM61 66.7c-6.7 1.2-8.2 6-7.2 7.3a1.8 1.8 0 0 0 1.9.3c1.1-.7 1.5-4.9 7.6-4.9.5 0 1.9.2 2.3-.2s-.8-3.2-4.6-2.5Zm2.4 6.2a3.5 3.5 0 0 0-2.4 2.2c-2.1 4.6 2.1 8.7 4.9 7.8s3.5-3.4 2.6-6.3-2.7-4.7-5.1-3.7Zm22.3-4.8c-2.1.7-3.5 3.2-2.9 6.2s2.5 4.8 5.1 4.1c5.3-1.5 3.2-12.2-2.2-10.3Zm-5.7 17c-2.7.6-5.8 1.1-5.5 4.6a6.4 6.4 0 0 0 4.9 5.2c3.1.6 4.6-2.1 5-4.7s-1-5.8-4.4-5.1Zm33.5-57.9c-.5-.5-4-1.6-5-1.8-5.4-1.2-14.7-.8-20.5-.8H59.7c-9.3 0-17.8-.9-24.8 3.5a21 21 0 0 0-7.1 7.1 26.8 26.8 0 0 0-2.1 4.9c-.3 1.2-1.2 4.8-.9 6.1s-.2 10.8-.2 11.5v35c0 11.2-.9 19.7 7.6 27.3 1.4 1.2 5.9 4.2 7.6 4.1s0 0 .4.2 7.1 1.2 8.7 1.2h51.8c12.2-.1 21.2-5.3 24.1-17.6 1-4 .7-15.3.7-20.1 0-.3.1-40.5-.1-41.1s0-.2-.1-.4-.7-5.2-1.1-6.5a23.2 23.2 0 0 0-2.4-5.3c-1.6-2.4-5.5-6.4-8.3-7.3Z" fill="#2d78be"/><path d="M48.6 85c1.8-.3 1.7 1.2 1 2.1a27.2 27.2 0 0 1-3.7 2.7c-.8.5-1 .5-1.1 1 2.1.9 5.1.4 6.4 1s-2 2.5-3.3 3.5-3.3 2.5-3.4 3.2c1.8-.2 5.2-2.3 6.9-1s-.7 2.9-1.4 3.8-2.1 2.5-2.2 3.1 3.9-2.6 5.2-3.4a2.9 2.9 0 0 1 1.7-.6c1.9.3-1.8 5.1-2 7.7 1.1 0 4.4-3.3 6-4.2a2.2 2.2 0 0 1 3.2 1.4c.4 1.2-.1 3.2-.2 4.4v1.5c.9-.2 2.9-3.8 4.7-3.9s2.1 4.3 3 5.6c1-.2 2.5-4.4 4.5-5s3.5 4.5 4.5 5c1.4-1.1 2.5-10.1 5.9-2.4.2.6.3 1.2.8 1.3.6-1.5.4-5 2.3-5s2.9 3 3.9 3.7v-.3c0-.2 0-.1.1-.4s-.3-4.2 1.5-4.4 3.4 2.2 4.4 2.4c-.2-1.4-1.7-3.7-.1-5.1s4-.1 5.4.1-1.7-4.7.2-5.9 5.5 0 6.8-.5-9-5.4-.8-7.5c1.1-.3 3.3-.5 4.1-1.1s0-.2-.7-.4l-1-.3c-6.4-1.9-6.1-3.9-.1-6 .5-.2 1.5-.4 1.8-.8l-.7-.2c-.6-.1-2.1-.1-2.6-.5s-3.8-.9-4.8-1.5a13.3 13.3 0 0 1-3.4-2.6 12.8 12.8 0 0 1-2.6-3.8c-.9-2.1-.7-2.7-1-5.1-1.8-.1-2-1-3.6-1.8a10.6 10.6 0 0 0-4.5-.9 8.6 8.6 0 0 0-4 1.3c-4.5 2.4-4.8-4.3 4.8-4.3a12.5 12.5 0 0 1 7.6 2.9 7.7 7.7 0 0 1 1.5-4.4c.4-.4 1-1.2 1.7-1.3s1.2.7 1.4 1.5.6-.4 1.5-.3-.1 3.2-.3 4.2-.5 4.2.7 4.8 1-1.3 1.7-1.9 1.9-.9 2.5-.1.5 5 1.2 5.9 3.2-5 3.8-6.2 2.1-4.3 3.3-6.7 4.4-8.6 3.7-11.1-2-1.3-3.6-1.1c-4.3.7-13.7 1.5-18.2 1.8-2.6.1-7.1.7-8.2-1.7s2.5-4.6 3.1-6.5c-.2-.2.3-.2-.5-.2a9.6 9.6 0 0 1-3.8 1.4c-2-.1-2-2.7-2.1-3s-2.4 2.8-2.9 3.4-6.9 7.6-9.4 6.4c-1-.5-.7-1.1-1.2-2s-2.3 6-7.8 0c-.9-.9-.3-.7-1.1-.9.1 2.8 1 6.7-3.1 5.8-2.1-.5-4.7-2.6-6.9-2.7.3.9 1.8 2.1 2.5 2.7s2.1 2 2.3 2.7-1 2.7-2.5 2.3a28.3 28.3 0 0 1-3.5-1.5 27.9 27.9 0 0 0-7.7-2.5c-1.3-.2-8.2-.4-9.2.5 2.1.2 4.3.3 6 1.2 3.9 2.2-5.4 5-7 5.5s-4.6 1.4-5.2 1.7 3.3-.7 4.9.4 0 2.9-.8 3.8a13.9 13.9 0 0 0-2.4 3.4 17.6 17.6 0 0 0-1.2 4.5v2.1c1 0 5.2-5.4 7.6-2.2.9 1.4.5 3.4.7 5.3s.2 4.3.9 5.1h.2c.3 0 2.8.2 5.1-5.2.9-2.1 2.1-6.5 4-6.6 5.3-.3-3.8 11.9-4.5 13.6.9-.1 2.3-.7 3.4-.8Zm14.7-15.6c-6.1 0-6.5 4.2-7.6 4.9a1.8 1.8 0 0 1-1.9-.3c-1-1.3.5-6.1 7.2-7.3 3.8-.7 5.6 1.6 4.6 2.5s-1.8.2-2.3.2Zm2.6 13.5c-2.8.9-7-3.2-4.9-7.8a3.5 3.5 0 0 1 2.4-2.2c2.4-1 4.6 1.8 5.1 3.7s-.4 5.6-2.6 6.3Zm16.9-8.6c-.6-3 .8-5.5 2.9-6.2 5.4-1.9 7.5 8.8 2.2 10.3-2.6.7-4.6-2-5.1-4.1Zm-8.3 15.4c-.3-3.5 2.8-4 5.5-4.6s4.9 1.6 4.4 5.1-1.9 5.3-5 4.7a6.4 6.4 0 0 1-4.9-5.2Z" fill="#fff" stroke="#fff" stroke-miterlimit="22.93" stroke-width=".57"/></g></svg>