<svg xmlns="http://www.w3.org/2000/svg" viewBox="0 0 150 150"><path d="M126.2 76.4a51.1 51.1 0 1 0-67.8 48.4c1.3-.9 2.7-2 2.7-3.8s-.1-10.1-.1-10.1a33.3 33.3 0 0 1-5.4.4c-7.9 0-10.5-5-11.7-7.9a13.7 13.7 0 0 0-5.7-6.8c-1.3-.8-1.6-1.8-.1-2.1 7.1-1.4 8.9 7.9 13.6 9.4s7.7.6 9.8-.8c.3-2.8 2.4-5.3 4.1-6.6-12-1.1-19.1-5.2-22.8-11.9l-.4-.8-.9-2.1-.3-.7a34.9 34.9 0 0 1-1.7-11.6c0-7.7 2.4-10.6 5.7-14.7C42.7 46 46 40 46 40s5.2-1.1 15.1 5.9c5.3-2.3 19.5-2.5 26.2-.5 4.1-2.7 11.6-6.6 14.7-5.5.8 1.3 2.6 5.2 1 13.6 1.1 1.9 6.4 5.8 6.5 17a43.8 43.8 0 0 1-1.4 10.5l-.4 1.5a13.6 13.6 0 0 0-.5 1.4l-.4.7c-3.5 7.8-10.8 10.7-22.6 11.9 3.8 2.4 4.9 5.4 4.9 13.5s-.1 9.2-.1 11.1 1.4 2.9 2.6 3.8a51.3 51.3 0 0 0 34.6-48.5Z"/><path d="M126.2 76.4a51.1 51.1 0 1 0-67.8 48.4c1.3-.9 2.7-2 2.7-3.8s-.1-10.1-.1-10.1a33.3 33.3 0 0 1-5.4.4c-7.9 0-10.5-5-11.7-7.9a13.7 13.7 0 0 0-5.7-6.8c-1.3-.8-1.6-1.8-.1-2.1 7.1-1.4 8.9 7.9 13.6 9.4s7.7.6 9.8-.8c.3-2.8 2.4-5.3 4.1-6.6-12-1.1-19.1-5.2-22.8-11.9l-.4-.8-.9-2.1-.3-.7a34.9 34.9 0 0 1-1.7-11.6c0-7.7 2.4-10.6 5.7-14.7C42.7 46 46 40 46 40s5.2-1.1 15.1 5.9c5.3-2.3 19.5-2.5 26.2-.5 4.1-2.7 11.6-6.6 14.7-5.5.8 1.3 2.6 5.2 1 13.6 1.1 1.9 6.4 5.8 6.5 17a43.8 43.8 0 0 1-1.4 10.5l-.4 1.5a13.6 13.6 0 0 0-.5 1.4l-.4.7c-3.5 7.8-10.8 10.7-22.6 11.9 3.8 2.4 4.9 5.4 4.9 13.5s-.1 9.2-.1 11.1 1.4 2.9 2.6 3.8a51.3 51.3 0 0 0 34.6-48.5Z"/><path d="M126.2 76.4a51.1 51.1 0 1 0-67.8 48.4c1.3-.9 2.7-2 2.7-3.8s-.1-10.1-.1-10.1a33.3 33.3 0 0 1-5.4.4c-7.9 0-10.5-5-11.7-7.9a13.7 13.7 0 0 0-5.7-6.8c-1.3-.8-1.6-1.8-.1-2.1 7.1-1.4 8.9 7.9 13.6 9.4s7.7.6 9.8-.8c.3-2.8 2.4-5.3 4.1-6.6-12-1.1-19.1-5.2-22.8-11.9l-.4-.8-.9-2.1-.3-.7a34.9 34.9 0 0 1-1.7-11.6c0-7.7 2.4-10.6 5.7-14.7C42.7 46 46 40 46 40s5.2-1.1 15.1 5.9c5.3-2.3 19.5-2.5 26.2-.5 4.1-2.7 11.6-6.6 14.7-5.5.8 1.3 2.6 5.2 1 13.6 1.1 1.9 6.4 5.8 6.5 17a43.8 43.8 0 0 1-1.4 10.5l-.4 1.5a13.6 13.6 0 0 0-.5 1.4l-.4.7c-3.5 7.8-10.8 10.7-22.6 11.9 3.8 2.4 4.9 5.4 4.9 13.5s-.1 9.2-.1 11.1 1.4 2.9 2.6 3.8a51.3 51.3 0 0 0 34.6-48.5Z"/></svg>