<svg xmlns="http://www.w3.org/2000/svg" viewBox="0 0 150 150"><g fill="#737373" fill-rule="evenodd"><path d="M27.6 66.9a14.6 14.6 0 0 0-3.8-2.7 12.8 12.8 0 0 0-5-.9 10 10 0 0 0-4.5.8 9.5 9.5 0 0 0-3.6 2.4 9.4 9.4 0 0 0-2.5 3.7 12.3 12.3 0 0 0 0 9.6 10.1 10.1 0 0 0 2.5 3.7 11.8 11.8 0 0 0 3.7 2.4 13.3 13.3 0 0 0 4.5.8 12.5 12.5 0 0 0 4.5-.7 9.6 9.6 0 0 0 3.2-2 10.6 10.6 0 0 0 1.7-2 9.6 9.6 0 0 0 1.1-2.8H18.7v-6.1h17.5a7.7 7.7 0 0 1 .2 1.5 10.9 10.9 0 0 1 .1 1.8 19.9 19.9 0 0 1-1 6.6 17.1 17.1 0 0 1-3.2 5.3 17.4 17.4 0 0 1-5.8 3.9 20.2 20.2 0 0 1-7.6 1.4 19.5 19.5 0 0 1-13.4-5.3 20.7 20.7 0 0 1-4-5.8A18.6 18.6 0 0 1 0 75a19.3 19.3 0 0 1 1.5-7.5 15.8 15.8 0 0 1 4.1-5.8 17.3 17.3 0 0 1 6-3.9 20.2 20.2 0 0 1 7.3-1.4 19.4 19.4 0 0 1 7.8 1.5 17.3 17.3 0 0 1 5.8 4.2l-4.9 4.8ZM72.5 83.3a9.2 9.2 0 0 1-3.4 7.5 12.7 12.7 0 0 1-8.4 2.8 12.4 12.4 0 0 1-7.8-2.6 12.7 12.7 0 0 1-4.7-7l4.4-1.8a9.9 9.9 0 0 0 1.2 2.8 8.3 8.3 0 0 0 1.9 2.3 10.9 10.9 0 0 0 2.3 1.4 6.5 6.5 0 0 0 2.7.5 8.1 8.1 0 0 0 5.2-1.6 5.3 5.3 0 0 0 1.9-4.3 5.1 5.1 0 0 0-1.6-3.8c-1-1-2.9-2-5.8-3a46.2 46.2 0 0 1-5.3-2.1c-3.8-1.9-5.6-4.7-5.6-8.5a8.7 8.7 0 0 1 3.1-6.7 12.5 12.5 0 0 1 14.8-.7 9.8 9.8 0 0 1 4 5.1l-4.2 1.8a6.1 6.1 0 0 0-2.4-3.3 6.7 6.7 0 0 0-4.3-1.3 6.8 6.8 0 0 0-4.5 1.5 4.3 4.3 0 0 0-1.8 3.6 4.1 4.1 0 0 0 1.4 3.1 24.9 24.9 0 0 0 6.9 3.2q5.4 1.8 7.8 4.5a9.9 9.9 0 0 1 2.2 6.6ZM97.9 92.8h-4.4v-3.4h-.2a8.5 8.5 0 0 1-3.2 3 8.9 8.9 0 0 1-4.5 1.2c-3 0-5.3-.9-6.8-2.6a10.2 10.2 0 0 1-2.5-7.3V68.4h4.6v15q.1 6 6 6a5.7 5.7 0 0 0 4.6-2.2 8.1 8.1 0 0 0 1.8-5.3V68.4h4.6v24.4ZM108.3 60a3.2 3.2 0 0 1-3.2 3.2 3.2 3.2 0 1 1 0-6.4 3.6 3.6 0 0 1 2.3.9 3.3 3.3 0 0 1 .9 2.3Zm-.9 8.4v24.4h-4.6V68.4ZM121.4 93.2a7.3 7.3 0 0 1-5-1.8 7.4 7.4 0 0 1-2-5.2V72.6h-4.3v-4.2h4.3V61h4.6v7.4h5.9v4.2H119v12.1q0 2.5.9 3.3a2.9 2.9 0 0 0 2.1.9h1.1l1-.4 1.4 4.1a10 10 0 0 1-4.1.7ZM138.5 93.6a12.1 12.1 0 0 1-8.9-3.7 13.2 13.2 0 0 1-3.4-9.3 13.6 13.6 0 0 1 3.3-9.3 11.6 11.6 0 0 1 8.7-3.7 11.1 11.1 0 0 1 8.6 3.5c2.1 2.4 3.2 5.6 3.2 9.9v.5h-19.2a7.9 7.9 0 0 0 2.4 5.7 7.5 7.5 0 0 0 5.5 2.2c2.9 0 5.2-1.4 6.8-4.4l4.1 2a11.6 11.6 0 0 1-4.5 4.8 12.6 12.6 0 0 1-6.6 1.8Zm-7.3-15.9h14a5.9 5.9 0 0 0-2.1-4.2 6.9 6.9 0 0 0-5-1.7 6.3 6.3 0 0 0-4.4 1.6 7.5 7.5 0 0 0-2.5 4.3Z"/></g></svg>