<svg xmlns="http://www.w3.org/2000/svg" viewBox="0 0 150 150"><path d="M127.2 65a6.4 6.4 0 1 1 6.4-6.4 6.4 6.4 0 0 1-6.4 6.4M127.2 81.4a6.4 6.4 0 1 1 6.4-6.4 6.4 6.4 0 0 1-6.4 6.4M143.6 81.4A6.4 6.4 0 1 1 150 75a6.4 6.4 0 0 1-6.4 6.4M127.2 97.8a6.4 6.4 0 1 1 6.4-6.4 6.4 6.4 0 0 1-6.4 6.4M110.7 97.8a6.4 6.4 0 1 1 6.4-6.4 6.4 6.4 0 0 1-6.4 6.4M110.7 65a6.4 6.4 0 1 1 6.4-6.4 6.4 6.4 0 0 1-6.4 6.4M110.7 81.4a6.4 6.4 0 1 1 6.4-6.4 6.4 6.4 0 0 1-6.4 6.4M82 85.1a9.4 9.4 0 0 0-2.9-2.7 6.3 6.3 0 0 0 2.1-2.2 5.8 5.8 0 0 0 .9-3.3 7.4 7.4 0 0 0-.7-3.1 5.5 5.5 0 0 0-1.8-2.4 7.2 7.2 0 0 0-2.7-1.6 12.1 12.1 0 0 0-3.4-.5H59.7v27.9h14.6a10.5 10.5 0 0 0 3.6-.6 8.1 8.1 0 0 0 2.7-1.6 6.4 6.4 0 0 0 1.8-2.5 7.2 7.2 0 0 0 .7-3.3 7.6 7.6 0 0 0-1.1-4.1M64.9 73.6h8.2a4.1 4.1 0 0 1 2.8.9 3.4 3.4 0 0 1 1 2.5 3.3 3.3 0 0 1-1 2.6 3.7 3.7 0 0 1-2.8 1h-8.2Zm12 18.1a3.8 3.8 0 0 1-3 1.1h-9V85h9a3.5 3.5 0 0 1 3 1.2 3.9 3.9 0 0 1 1 2.8 3.6 3.6 0 0 1-1 2.7M49.4 96.9a9.3 9.3 0 0 0 3.7-2.3 11.3 11.3 0 0 0 2.3-3.4 11.6 11.6 0 0 0 .8-4.2V69.3H51V87a7.7 7.7 0 0 1-.4 2.7 6.9 6.9 0 0 1-1.3 2 5.9 5.9 0 0 1-2 1.2 7.5 7.5 0 0 1-2.6.5 6.7 6.7 0 0 1-2.6-.5 7.2 7.2 0 0 1-2.1-1.2 6.9 6.9 0 0 1-1.3-2 7.7 7.7 0 0 1-.4-2.7V69.3h-5.2V87a11.6 11.6 0 0 0 .8 4.2 9.8 9.8 0 0 0 2.3 3.4 11.1 11.1 0 0 0 3.6 2.3 12.9 12.9 0 0 0 4.9.8 10.4 10.4 0 0 0 4.7-.8M14.7 97.2 21.1 85c.3-.7.7-1.3 1-1.9s.5-1.3.8-1.9l.8-1.8c.2-.6.5-1.3.8-2h.1c0 .8-.1 1.5-.1 2.1a12.8 12.8 0 0 0-.1 1.9 12.1 12.1 0 0 0-.1 1.9v13.9h5.2V69.3h-5.8l-5.4 10.6-1.1 2a14.2 14.2 0 0 0-.8 1.8 15 15 0 0 0-.9 1.8c-.2.6-.5 1.2-.8 1.9s-.6-1.3-.8-1.9l-.8-1.8-.9-1.8-1-2-5.5-10.6H0v27.9h5.2V83.3a12.1 12.1 0 0 1-.1-1.9c0-.6-.1-1.2-.1-1.9s-.1-1.3-.2-2.1H5c.3.7.5 1.4.8 2l.8 1.8.8 1.8 1 2ZM86.4 69.3h5.2v27.9h-5.2z"/></svg>