<svg xmlns="http://www.w3.org/2000/svg" viewBox="0 0 150 150"><path d="M87.9 28a33.1 33.1 0 0 1 6.3 0 12.7 12.7 0 0 1 5 2.3l18.2 12.8c1.3 1 2.9 2.1 2.8 3.9q.1 31.2 0 62.2c0 2 .3 4.1-.5 6a5.1 5.1 0 0 1-2.8 2.6 14.5 14.5 0 0 1-4.7.8l-58.8 3.5c-2 .1-4.1.2-5.9-.8a9.5 9.5 0 0 1-3-3l-11.7-15.1c-1.6-2.2-3-4.7-3-7.4-.1-19-.1-38-.1-56.9a8.1 8.1 0 0 1 1.1-4.6 5.9 5.9 0 0 1 4.6-2.4L87.9 28Zm-48.2 8.9a1.9 1.9 0 0 0-1.8.8.9.9 0 0 0 .4 1.1l7.3 5.8a8.9 8.9 0 0 0 2.7 1.5 11 11 0 0 0 3.6.3l55-3.3.5-.2a1.3 1.3 0 0 0-.6-1l-9.3-6.8a10.7 10.7 0 0 0-6.9-2Zm69.2 12.6-57.2 3.3a3.4 3.4 0 0 0-2.5.9 4.2 4.2 0 0 0-.7 2.7v54.7a3.9 3.9 0 0 0 1.1 3.1 6.3 6.3 0 0 0 3.8.8l57.1-3.3a3.6 3.6 0 0 0 2.6-1.1 4.9 4.9 0 0 0 .9-3.3V52.8c0-1.2-.2-2.7-1.4-3.3s-2.5 0-3.8 0ZM92.1 60.2l12.7-.8c.3 1.2.2 2.8-1.1 3.4l-3.3.6v40.4c-2.4 1.3-5.3 2.5-8.2 1.8s-3-2.1-4.1-3.5l-18-28.2c.1 9.1 0 18.2 0 27.3l5.7 1.3a3.8 3.8 0 0 1-3.6 3.3l-13.7.7a2.5 2.5 0 0 1 1.2-2.8l3.5-1V66.6l-4.7-.4a3.7 3.7 0 0 1 2.8-4.2l14-1L94 89.7V64.4l-4.8-.6a3.1 3.1 0 0 1 2.9-3.6Z" fill="#050006"/></svg>