<svg xmlns="http://www.w3.org/2000/svg" viewBox="0 0 150 150"><g fill="#e33113"><path d="M67.6 63.9a9 9 0 0 0-7.2 3.3c-1.9 2.1-2.8 4.9-2.8 8.4a12.9 12.9 0 0 0 2.7 8.5 9 9 0 0 0 7.1 3.2 9.2 9.2 0 0 0 7.4-3.1c1.8-2 2.7-4.8 2.7-8.5s-.9-6.7-2.7-8.7a8.7 8.7 0 0 0-7.2-3.1Zm-.2 26.4a12.7 12.7 0 0 1-9.7-4 15 15 0 0 1-3.6-10.4c0-4.5 1.2-8.2 3.7-10.9a13 13 0 0 1 10.1-4.1 12.1 12.1 0 0 1 9.5 4A14.7 14.7 0 0 1 81 75.2c0 4.7-1.3 8.3-3.7 11a12.9 12.9 0 0 1-9.9 4.1ZM104 62.1a5.4 5.4 0 0 1 2.2.5v-2.9a5.5 5.5 0 0 0-2.4-.4 6 6 0 0 0-4.6 1.9 6.8 6.8 0 0 0-1.8 5v3.3h-8.2v-3.1c0-2.9 1.2-4.3 3.4-4.3a5.1 5.1 0 0 1 2.2.5v-2.9a5.5 5.5 0 0 0-2.4-.4 6.2 6.2 0 0 0-4.6 1.9 6.8 6.8 0 0 0-1.8 5v3.3h-3.5v2.8H86v17.5h3.2V72.3h8.2v17.5h3.2V72.3h4.7v-2.8h-4.7v-3.1c0-2.9 1.1-4.3 3.4-4.3ZM111.6 89.8h-3.2V69.5h3.2v20.3ZM110 64.4a2 2 0 0 1-1.4-.6 1.8 1.8 0 0 1-.7-1.5 1.9 1.9 0 0 1 .7-1.6 2 2 0 0 1 1.4-.6 2.5 2.5 0 0 1 1.6.6 2.1 2.1 0 0 1 .6 1.6 2 2 0 0 1-.6 1.4 2.1 2.1 0 0 1-1.6.7ZM129.8 88.9a10.7 10.7 0 0 1-5.5 1.4 9.3 9.3 0 0 1-7-2.8 10.4 10.4 0 0 1-2.7-7.4 10.8 10.8 0 0 1 2.9-8 9.7 9.7 0 0 1 7.6-3.1 11.2 11.2 0 0 1 4.7 1v3.4a7.9 7.9 0 0 0-4.8-1.6 6.4 6.4 0 0 0-5.1 2.2 8.6 8.6 0 0 0-2 5.9 7.9 7.9 0 0 0 1.9 5.6 6.2 6.2 0 0 0 5 2 7.8 7.8 0 0 0 5-1.7v3.1ZM146.4 77.7a6.6 6.6 0 0 0-1.4-4.4 4.7 4.7 0 0 0-3.7-1.5 5.3 5.3 0 0 0-3.9 1.6 7.5 7.5 0 0 0-2 4.3Zm3.3 2.8h-14.3a7.1 7.1 0 0 0 1.8 5.2 6.5 6.5 0 0 0 4.8 1.8 9.9 9.9 0 0 0 6.3-2.2v3a11.9 11.9 0 0 1-7.1 2 8.2 8.2 0 0 1-6.7-2.8c-1.7-1.8-2.5-4.4-2.5-7.8a11.1 11.1 0 0 1 2.7-7.7 8.6 8.6 0 0 1 6.7-3 7.6 7.6 0 0 1 6.1 2.6c1.5 1.7 2.2 4.1 2.2 7.2v1.7ZM.5 89.9l9.2-3.8V63.5l16.6-3.8v33.6L.5 89.9l25.6 9.2 14.3-4.6V56.2l-14.3-4.8L.5 61.3v28.6z"/></g></svg>