<svg xmlns="http://www.w3.org/2000/svg" viewBox="0 0 150 150"><defs><clipPath id="a"><path fill="none" d="M26.9 26.9h96.3v96.29H26.9z"/></clipPath></defs><g clip-path="url(#a)"><path d="M123.1 75A48.1 48.1 0 1 1 75 26.9 48.1 48.1 0 0 1 123.1 75Z" fill="#57b14f" fill-rule="evenodd"/></g><path d="M110.2 65.6a4.5 4.5 0 0 1-6.7 3.9 49 49 0 0 0-6.5-3.2 70.1 70.1 0 0 0-13.6-3.7 79.5 79.5 0 0 0-9.8-1.2 86.8 86.8 0 0 0-10.2 0 77.8 77.8 0 0 0-11.7 1.4l-4.2 1.1a5.3 5.3 0 0 1-2.5 0 4.6 4.6 0 0 1-3.3-4.2 4.5 4.5 0 0 1 3-4.3l4.1-1.1a76.2 76.2 0 0 1 10.5-1.6 83.9 83.9 0 0 1 11.2-.4 91.7 91.7 0 0 1 27 4.7 53 53 0 0 1 10.3 4.6 4.6 4.6 0 0 1 2.3 3 3.8 3.8 0 0 0 .1 1ZM66.6 76.3A56 56 0 0 0 50 78.7a5 5 0 0 1-2.7-.1 3.8 3.8 0 0 1 .2-7l4.7-1.2a68 68 0 0 1 11.9-1.5 73.3 73.3 0 0 1 25.1 3.4 63.5 63.5 0 0 1 11.9 5.3 1 1 0 0 1 .5.4 3.7 3.7 0 1 1-3.8 6.3l-3.1-1.7a56.9 56.9 0 0 0-15.4-5.1 65.9 65.9 0 0 0-12.7-1.2ZM67.5 84.5A58.2 58.2 0 0 1 86 87.4a48.1 48.1 0 0 1 9.5 4.4l.8.5a2.9 2.9 0 0 1 .7 3.9 3.1 3.1 0 0 1-3.7 1.2l-.8-.5A45.8 45.8 0 0 0 76 91.1a65.2 65.2 0 0 0-10.8-.6 81.5 81.5 0 0 0-13.9 1.9l-1.4.2a2.8 2.8 0 0 1-2.8-2.4 2.8 2.8 0 0 1 1.7-3.3l.9-.3A106.3 106.3 0 0 1 61 84.8l6.5-.3Z" fill="#12100b" fill-rule="evenodd"/></svg>