<svg xmlns="http://www.w3.org/2000/svg" viewBox="0 0 150 150"><path d="M48.6 91.2a10.2 10.2 0 0 1-10.1 10.2v4a14.3 14.3 0 0 0 12.2-6.9v-7.3Zm4.1 0a10.2 10.2 0 0 0 10.1 10.2v4a14.2 14.2 0 0 1-12.1-6.9v-7.3Zm48.7-32.4a10.2 10.2 0 0 1 10.1-10.2v-4a14.3 14.3 0 0 0-12.2 6.9v7.3Zm-4.1 0h2v-7.3a14.2 14.2 0 0 0-12.1-6.9v4a10.2 10.2 0 0 1 10.1 10.2Zm0 32.4a10.2 10.2 0 0 1-10.1 10.2v4a14.3 14.3 0 0 0 14.2-14.2Zm48.6-32.4h4.1a14.3 14.3 0 0 0-14.2-14.2v4a10.2 10.2 0 0 1 10.1 10.2ZM4.1 91.2H0a14.3 14.3 0 0 0 14.2 14.2v-4A10.2 10.2 0 0 1 4.1 91.2Zm58.7-46.6a14.5 14.5 0 0 0-14.2 14.2h4.1a10.2 10.2 0 0 1 10.1-10.2v-4Zm38.6 56.8v4h24.3V85.1H150V58.8h-4.1v22.3h-20.2V58.8h-4.1v42.6Zm10.1-56.8h24.3v4.1h-24.3v-4Zm-10.1 37.7v8.9h-4.1v-7.3L73.6 60.2l2.8-2.9 25 25ZM48.6 67.7l25 25 2.8-2.9-23.7-23.7v-7.3h-4.1v8.9ZM0 44.6h48.6v4H28.4v42.5h-4.1V48.6H4.1v42.6H0V44.6Zm14.2 56.8h24.3v4H14.2v-4Zm48.6-56.8h24.4v4.1H62.8v-4Zm0 56.8h24.4v4H62.8v-4Z" fill="#231f20" fill-rule="evenodd"/></svg>