<svg xmlns="http://www.w3.org/2000/svg" viewBox="0 0 150 150"><defs><linearGradient id="a" x1="-820.49" y1="573.44" x2="-820.49" y2="573.02" gradientTransform="matrix(256 0 0 -180 210120 103256)" gradientUnits="userSpaceOnUse"><stop offset="0" stop-color="#e52d27"/><stop offset="1" stop-color="#bf171d"/></linearGradient></defs><path d="m63.9 88.9 29-15-29-15.1v30.1Z" fill="#fff"/><path d="m63.9 58.8 25.5 17 3.5-1.9-29-15.1Z" fill="#420000" opacity=".12" style="isolation:isolate"/><path d="M127.5 53.6s-1.1-7.4-4.3-10.7-8.6-4.2-10.8-4.5C97.5 37.3 75 37.3 75 37.3s-22.5 0-37.5 1.1c-2.1.3-6.7.3-10.8 4.5s-4.2 10.7-4.2 10.7a158.4 158.4 0 0 0-1.1 17.3v8.2a158.4 158.4 0 0 0 1.1 17.3s1 7.4 4.3 10.6 9.4 4.2 11.8 4.6c8.5.8 36.4 1.1 36.4 1.1s22.5-.1 37.5-1.1c2.1-.3 6.6-.3 10.7-4.6s4.3-10.6 4.3-10.6a158.4 158.4 0 0 0 1.1-17.3v-8.2a158.4 158.4 0 0 0-1.1-17.3ZM63.9 88.9V58.8l29 15.1-29 15Z" fill="url(#a)"/></svg>