<?xml version="1.0" standalone="no"?>
<!DOCTYPE svg PUBLIC "-//W3C//DTD SVG 20010904//EN"
 "http://www.w3.org/TR/2001/REC-SVG-20010904/DTD/svg10.dtd">
<svg version="1.0" xmlns="http://www.w3.org/2000/svg"
 width="389.000000pt" height="129.000000pt" viewBox="0 0 389.000000 129.000000"
 preserveAspectRatio="xMidYMid meet">

<g transform="translate(0.000000,129.000000) scale(0.100000,-0.100000)"
fill="#000000" stroke="none">
<path d="M2250 973 c-91 -275 -109 -321 -138 -350 -32 -32 -65 -42 -77 -23 -3
5 6 54 20 109 15 56 25 116 23 133 l-3 33 -60 0 c-57 0 -60 -1 -58 -23 3 -21
-62 -272 -86 -334 -8 -22 -17 -28 -41 -28 -16 0 -30 5 -30 11 0 6 25 88 55
183 30 94 55 175 55 179 0 12 -115 8 -132 -5 -9 -7 -21 -31 -28 -53 -7 -22
-20 -48 -29 -59 -27 -30 -141 -119 -147 -113 -3 3 8 51 25 108 17 56 31 108
31 116 0 14 -105 19 -126 5 -12 -7 -33 -63 -54 -142 -17 -63 -45 -106 -81
-120 -49 -21 -52 -5 -24 111 38 157 35 169 -50 169 -57 0 -70 -7 -54 -26 8 -9
-1 -54 -31 -164 -55 -204 -54 -200 -90 -200 -19 0 -30 5 -30 14 0 8 23 88 50
177 28 89 50 166 50 170 0 4 -21 11 -46 15 -80 12 -87 3 -140 -160 l-46 -145
-56 -21 c-87 -33 -149 -43 -236 -38 -132 7 -229 62 -286 162 -31 53 -37 94
-20 127 10 18 24 19 289 19 l279 0 16 25 16 25 -279 0 c-154 0 -286 3 -295 6
-25 9 -19 41 20 120 45 90 122 167 185 184 78 21 152 7 264 -49 56 -28 108
-51 116 -51 9 0 26 11 39 25 29 31 24 37 -71 89 -74 41 -200 76 -269 76 -193
0 -352 -108 -450 -304 -45 -93 -50 -96 -142 -96 -46 0 -59 -4 -68 -19 -5 -11
-10 -22 -10 -25 0 -3 37 -6 82 -8 l82 -3 13 -73 c27 -163 75 -238 183 -286
111 -50 260 -46 473 14 56 16 103 28 104 26 1 -1 -32 -105 -73 -230 -40 -126
-74 -233 -74 -238 0 -5 33 -8 72 -6 l73 3 56 193 c77 264 65 244 147 237 89
-8 122 3 146 47 16 28 30 38 70 51 28 8 52 14 53 13 1 -1 -3 -18 -9 -38 -34
-113 63 -85 240 69 34 30 62 52 62 49 0 -3 -31 -104 -69 -224 -62 -194 -121
-388 -121 -398 0 -2 31 -4 70 -4 l69 0 25 83 c14 45 42 140 63 212 l39 130 93
5 c86 5 95 7 117 33 13 16 24 33 24 40 0 11 101 50 109 41 2 -2 -2 -23 -9 -48
-15 -54 -9 -66 33 -66 77 0 72 -7 132 192 26 89 39 107 93 123 30 9 29 -2 -14
-157 -20 -71 -33 -136 -30 -144 4 -12 20 -14 68 -12 l62 3 38 121 c32 104 42
123 65 135 16 7 31 15 35 17 3 2 -5 -41 -19 -96 -15 -57 -23 -109 -20 -123 14
-53 18 -54 151 -53 136 0 170 11 182 59 4 16 13 25 25 25 10 0 41 9 69 19 27
11 50 18 50 16 0 -1 -7 -22 -15 -45 -25 -72 -22 -80 34 -80 27 0 53 6 59 13 5
6 22 57 37 112 15 55 32 108 37 118 17 32 108 62 108 36 0 -7 -45 -154 -100
-328 -55 -174 -103 -330 -106 -348 -6 -30 -4 -32 30 -39 54 -10 133 0 155 20
17 16 81 126 81 140 0 3 -11 6 -24 6 -17 0 -30 -11 -45 -36 -21 -35 -41 -38
-41 -6 0 9 11 51 24 92 14 41 52 161 86 267 53 169 64 195 91 214 17 11 32 19
35 16 3 -2 -9 -46 -26 -96 -35 -108 -39 -156 -11 -171 11 -5 82 -10 159 -10
151 0 158 2 181 63 10 26 9 27 -24 27 -20 0 -49 -10 -72 -25 -28 -19 -47 -25
-78 -23 -39 3 -40 4 -39 40 1 20 7 51 14 68 l12 30 103 0 c77 0 107 4 118 14
16 17 57 158 57 198 0 14 -7 29 -16 32 -9 3 -82 6 -163 6 -163 0 -164 0 -191
-68 -11 -29 -36 -52 -56 -52 -3 0 -4 16 -1 36 13 78 -34 94 -145 49 -76 -31
-80 -31 -68 -1 12 32 6 36 -56 36 -60 0 -53 11 -95 -148 -19 -72 -26 -87 -53
-103 -31 -19 -93 -35 -102 -27 -2 3 8 56 23 118 l28 112 -28 24 c-16 13 -40
24 -55 24 -32 0 -59 -15 -44 -24 12 -7 -48 -249 -75 -305 -15 -31 -24 -36 -56
-39 -60 -5 -59 1 10 225 24 79 27 83 59 89 61 11 37 54 -31 54 -44 0 -95 -22
-138 -60 -25 -22 -48 -40 -51 -40 -3 0 -6 15 -6 34 0 47 -24 69 -64 60 -31 -6
-113 -33 -150 -49 -16 -7 -18 -5 -12 11 21 55 136 432 136 447 0 14 -9 17 -58
17 l-58 0 -104 -317z m1470 -185 c0 -6 -7 -38 -16 -70 -16 -56 -18 -58 -50
-58 -25 0 -34 5 -35 18 -2 30 3 56 16 90 12 28 19 32 49 32 21 0 36 -5 36 -12z"/>
<path d="M1549 1171 c-59 -59 -22 -150 61 -151 69 0 110 54 89 117 -21 64
-101 83 -150 34z"/>
</g>
</svg>
