<?xml version="1.0" encoding="utf-8"?>
<!-- Generator: Adobe Illustrator 24.2.1, SVG Export Plug-In . SVG Version: 6.00 Build 0)  -->
<svg version="1.1" id="Camada_1" xmlns="http://www.w3.org/2000/svg" xmlns:xlink="http://www.w3.org/1999/xlink" x="0px" y="0px"
	 viewBox="0 0 84 84" style="enable-background:new 0 0 84 84;" xml:space="preserve">
<style type="text/css">
	.st0{display:none;}
	.st1{display:inline;fill-rule:evenodd;clip-rule:evenodd;fill:#228EBF;}
	.st2{fill-rule:evenodd;clip-rule:evenodd;fill:#228EBF;}
</style>
<g class="st0">
	<path class="st1" d="M56.8,71.8C37.4,78.4,24,72.9,15,60.9C2.4,44.1,13,21.3,18.8,19l9.7,36.4l18.7-8.8
		C47.2,46.6,56.8,71.8,56.8,71.8z M55.7,81.7C89.2,70.6,94.2,24.2,64,6c-9-5.4-19.1-7.4-31.9-5c0.7,3.1,1,6.2,2.5,8.5
		c19-2.6,32.2,5.7,38.1,19.9C79.7,46,70,65.9,58.9,70l-5.7-39.4l-18.5,9.2L25.7,4c-1.8-0.7-4.6,1.3-6.8,2.8c-2,1.3-3.9,2.8-5.6,4.5
		C1.7,23.4-3.8,39.5,2.9,56.9S31,89.9,55.7,81.7z"/>
	<path class="st1" d="M47.6,66.8c-13.6,6.9-21.4-0.5-27-2.8c3.7,3.9,8.5,6.6,13.8,7.6c5,1.1,14.1,0.9,18.1-1.9l-4.8-11.9v9
		L47.6,66.8z"/>
</g>
<g id="Camada_x0020_1">
	<g id="Logo_x0020_Completo">
		<g id="Logo">
			<path class="st2" d="M47.5,43.8L32,51.7l-8.3-30.9C17.8,25.9,14,33.5,14,42c0,15.5,12.5,28,28,28c5,0,9.7-1.3,13.8-3.6L47.5,43.8
				L47.5,43.8z"/>
			<path class="st2" d="M42,14c-1.4,0-2.7,0.1-4.1,0.3l-1.8-6.8C38,7.2,40,7,42,7c19.3,0,35,15.7,35,35c0,19.3-15.7,35-35,35
				S7,61.3,7,42c0-14.9,9.3-27.6,22.4-32.7l8,29.9l15.5-7.9l4.8,33.9C65.1,60.2,70,51.7,70,42C70,26.5,57.5,14,42,14L42,14z M42,0
				C18.8,0,0,18.8,0,42s18.8,42,42,42c23.2,0,42-18.8,42-42S65.2,0,42,0z"/>
		</g>
	</g>
</g>
</svg>
