<?xml version="1.0" standalone="no"?>
<!DOCTYPE svg PUBLIC "-//W3C//DTD SVG 20010904//EN"
 "http://www.w3.org/TR/2001/REC-SVG-20010904/DTD/svg10.dtd">
<svg version="1.0" xmlns="http://www.w3.org/2000/svg"
 width="512.000000pt" height="512.000000pt" viewBox="0 0 512.000000 512.000000"
 preserveAspectRatio="xMidYMid meet">

<g transform="translate(0.000000,512.000000) scale(0.100000,-0.100000)"
fill="#000000" stroke="none">
<path d="M2370 5114 c-19 -2 -78 -9 -130 -15 -548 -62 -1083 -325 -1489 -730
-405 -406 -651 -906 -732 -1489 -20 -143 -18 -527 4 -670 89 -580 328 -1058
728 -1459 858 -858 2203 -997 3211 -333 1266 835 1539 2571 591 3747 -409 507
-974 829 -1633 930 -100 15 -472 28 -550 19z m-236 -689 c-96 -204 -179 -374
-184 -378 -6 -6 -518 168 -780 265 l-25 9 25 20 c59 47 267 182 322 210 33 17
64 27 68 22 5 -4 20 -37 34 -72 28 -70 55 -105 98 -127 90 -47 208 28 208 131
0 26 -13 72 -31 115 -17 40 -27 76 -22 80 26 26 453 119 461 101 1 -4 -77
-173 -174 -376z m815 360 c106 -17 309 -70 324 -84 5 -5 -5 -41 -22 -81 -18
-43 -31 -89 -31 -115 0 -103 118 -178 208 -131 43 22 70 57 98 127 14 35 29
68 34 72 9 10 85 -27 180 -87 107 -66 231 -159 223 -167 -19 -16 -786 -280
-793 -273 -10 11 -360 744 -360 755 0 4 8 6 18 4 9 -2 64 -11 121 -20z m-261
-432 c67 -141 121 -258 119 -259 -2 -2 -58 0 -125 4 -67 4 -177 4 -244 0 -67
-4 -123 -6 -125 -4 -4 4 241 516 247 516 3 0 61 -116 128 -257z m-1300 -436
c145 -52 262 -98 260 -103 -2 -5 -34 -34 -73 -66 -79 -64 -151 -137 -216 -218
-25 -30 -48 -56 -53 -58 -8 -3 -196 507 -196 531 0 4 3 7 8 7 4 0 125 -42 270
-93z m2622 86 c0 -14 -185 -529 -191 -534 -3 -2 -33 30 -67 71 -67 83 -139
155 -222 221 -30 25 -57 48 -60 53 -4 7 495 192 528 195 6 0 12 -2 12 -6z
m-3065 -437 c75 -213 133 -392 128 -396 -10 -10 -743 -360 -754 -360 -4 0 -6
8 -4 18 2 9 11 64 20 121 17 106 70 309 84 324 5 5 41 -5 81 -22 43 -18 89
-31 115 -31 103 0 178 118 131 208 -22 43 -57 70 -127 98 -35 14 -68 29 -72
34 -5 4 4 32 19 61 56 112 223 355 234 342 4 -5 69 -183 145 -397z m3496 241
c90 -134 145 -236 132 -247 -4 -5 -37 -20 -72 -34 -70 -28 -105 -55 -127 -98
-47 -90 28 -208 131 -208 26 0 72 13 115 31 40 17 76 27 81 22 14 -15 67 -218
84 -324 9 -57 18 -112 20 -121 2 -10 0 -18 -4 -18 -5 0 -89 39 -187 86 -98 47
-210 101 -249 119 -228 107 -325 155 -325 161 0 6 232 666 272 774 l9 25 20
-25 c11 -14 56 -78 100 -143z m-1662 -23 c377 -68 710 -313 884 -651 97 -190
138 -359 138 -573 0 -605 -421 -1110 -1022 -1225 -123 -23 -330 -21 -457 5
-591 120 -1003 622 -1003 1220 0 775 698 1360 1460 1224z m-1753 -1034 c-9
-78 -9 -302 0 -381 4 -40 3 -60 -3 -58 -40 15 -513 245 -513 249 0 5 499 247
514 249 5 1 6 -26 2 -59z m3333 -65 c138 -65 251 -122 251 -125 0 -5 -473
-234 -513 -249 -6 -2 -7 20 -3 68 9 91 9 293 0 373 -5 40 -3 59 3 57 6 -2 124
-58 262 -124z m-3663 -551 c203 -96 373 -179 377 -184 7 -6 -170 -525 -265
-780 l-9 -25 -20 25 c-47 59 -182 267 -210 322 -17 33 -27 64 -22 68 4 5 37
20 72 34 70 28 105 55 127 98 47 90 -28 208 -131 208 -26 0 -72 -13 -115 -31
-40 -17 -76 -27 -81 -22 -14 15 -67 218 -84 324 -9 57 -18 112 -20 122 -2 9 0
17 4 17 4 0 174 -79 377 -176z m4108 159 c-2 -10 -11 -65 -20 -123 -17 -108
-69 -309 -83 -323 -5 -5 -41 5 -81 22 -43 18 -89 31 -115 31 -103 0 -178 -118
-131 -208 22 -43 57 -70 127 -98 35 -14 68 -30 73 -34 15 -15 -132 -260 -233
-390 l-20 -25 -9 25 c-39 107 -272 768 -272 773 0 4 60 36 133 71 72 34 193
91 267 127 74 35 182 87 240 116 116 57 130 61 124 36z m-3402 -754 c54 -63
167 -168 233 -216 23 -16 26 -23 15 -27 -258 -93 -533 -187 -537 -183 -4 4 90
279 183 537 4 11 11 8 27 -15 12 -16 48 -60 79 -96z m2517 -157 c51 -145 91
-266 88 -268 -7 -7 -543 183 -540 190 2 4 36 34 77 67 79 63 174 161 234 241
20 27 39 45 42 40 4 -4 48 -125 99 -270z m-1787 -682 c98 -206 177 -377 176
-381 -8 -18 -435 75 -461 101 -5 4 5 40 22 80 18 43 31 89 31 115 0 103 -118
178 -208 131 -43 -22 -70 -57 -98 -127 -14 -35 -29 -68 -34 -72 -10 -11 -104
37 -220 113 -118 78 -181 126 -180 137 2 10 759 282 779 279 8 0 89 -158 193
-376z m1438 244 c212 -75 388 -140 393 -143 14 -13 -225 -176 -352 -240 -24
-13 -47 -19 -51 -14 -5 4 -20 37 -34 72 -28 70 -55 105 -98 127 -90 47 -208
-28 -208 -131 0 -26 13 -72 31 -115 17 -40 27 -76 22 -81 -15 -14 -218 -67
-324 -84 -57 -9 -112 -18 -121 -20 -10 -2 -18 0 -18 4 0 4 57 126 126 272 69
145 150 315 179 377 30 61 57 112 62 112 4 0 181 -61 393 -136z m-1010 75 c71
0 157 3 191 7 40 4 60 3 58 -3 -16 -43 -244 -513 -249 -513 -5 0 -233 470
-249 513 -2 6 18 7 58 3 34 -4 120 -7 191 -7z"/>
<path d="M1788 3089 c-43 -22 -78 -81 -78 -129 0 -50 35 -107 80 -130 34 -17
59 -20 180 -20 l140 0 0 -340 c0 -322 1 -343 20 -380 13 -26 34 -47 60 -60 37
-19 58 -20 370 -20 312 0 333 1 370 20 26 13 47 34 60 60 19 37 20 58 20 380
l0 340 140 0 c121 0 146 3 180 20 45 23 80 80 80 130 0 50 -35 107 -80 130
-36 18 -58 20 -270 20 -212 0 -234 -2 -270 -20 -26 -13 -47 -34 -60 -60 -19
-37 -20 -58 -20 -380 l0 -340 -150 0 -150 0 0 340 c0 322 -1 343 -20 380 -13
26 -34 47 -60 60 -36 18 -58 20 -272 20 -212 -1 -236 -3 -270 -21z"/>
</g>
</svg>
