<?xml version="1.0" encoding="utf-8"?>
<!-- Generator: Adobe Illustrator 24.2.1, SVG Export Plug-In . SVG Version: 6.00 Build 0)  -->
<svg version="1.1" id="Camada_1" xmlns="http://www.w3.org/2000/svg" xmlns:xlink="http://www.w3.org/1999/xlink" x="0px" y="0px"
	 viewBox="0 0 192 63.1" style="enable-background:new 0 0 192 63.1;" xml:space="preserve">
<style type="text/css">
	.st0{display:none;}
	.st1{display:inline;fill-rule:evenodd;clip-rule:evenodd;fill:#228EBF;}
	.st2{fill-rule:evenodd;clip-rule:evenodd;fill:#228EBF;}
</style>
<g class="st0">
	<path class="st1" d="M42.7,53.9c-14.6,5-24.7,0.9-31.4-8.1C1.8,33.1,9.8,16,14.2,14.3l7.2,27.3L35.5,35L42.7,53.9z M41.9,61.4
		c25.2-8.3,28.9-43.2,6.2-56.9c-6.7-4-14.3-5.5-24-3.8c0.5,2.4,0.8,4.7,1.9,6.4c14.3-1.9,24.2,4.3,28.7,15
		c5.2,12.4-2.1,27.5-10.4,30.5L40,23l-13.9,7L19.3,3c-1.3-0.6-3.5,1-5.1,2.1c-1.5,0.9-3,2.1-4.2,3.4C1.3,17.6-2.8,29.7,2.2,42.8
		C8.2,58.7,25.8,66.9,41.9,61.4z"/>
	<path class="st1" d="M35.8,50.2c-10.2,5.2-16.1-0.3-20.3-2.1c2.8,3,6.4,5,10.4,5.7c3.7,0.8,10.6,0.7,13.6-1.4l-3.7-9V50.2z
		 M91.7,35.1L80.3,24v-7h6.9v7.3h5.7v-9.2c0.2-1.5-0.9-2.8-2.4-3c-0.2,0-0.4,0-0.6,0H77.7c-2,0-3,1-3,3.1v9.1c0,1.2,0.4,2.3,1.2,3.2
		l11.3,11v7.7h-6.9v-7.9h-5.6V48c0,2,1,3.1,3,3.1h12.2c2,0,3-1.1,3-3.1v-9.8C93,37,92.5,35.9,91.7,35.1z M109,38.7h-5.5l2.7-17.6
		L109,38.7z M103.3,12.1L96,51h5.6l1.1-7.4h7.1L111,51h5.5l-7.2-39L103.3,12.1z M119.3,29v5.2h11.5V29H119.3z M136.1,27.5l11.4,11
		v7.7h-7v-7.9h-5.6V48c0,2,1,3.1,3,3.1h12.2c2,0,3-1.1,3-3.1v-9.8c0.1-1.2-0.4-2.3-1.2-3.1L140.5,24v-7h7v7.3h5.6v-9.2
		c0.2-1.5-0.9-2.8-2.4-3c-0.2,0-0.4,0-0.6,0h-12.2c-2,0-3,1-3,3.1v9.1C134.9,25.5,135.3,26.6,136.1,27.5z M157.6,12.1v39h15.7v-5.2
		h-10.1V33.7h8.6v-5.1h-8.6V17.2h9.9v-5.1H157.6L157.6,12.1z M177.2,12.1v39H192v-5.2h-9.2V12.1H177.2z"/>
</g>
<g id="Camada_x0020_1">
	<g id="Logo_x0020_Completo">
		<g id="SA-SEL">
			<path class="st2" d="M89.4,35.1L77.8,24v-7.1h7.1v7.4h5.8v-9.3c0-2-1-3.1-3.1-3.1H75.1c-2,0-3.1,1-3.1,3.1v9.3
				c0,1.3,0.4,2.3,1.3,3.2l11.6,11.2v7.7h-7.1v-8H72v9.8c0,2.1,1,3.1,3.1,3.1h12.5c2.1,0,3.1-1,3.1-3.1v-9.9
				C90.7,37,90.3,35.9,89.4,35.1L89.4,35.1L89.4,35.1z"/>
			<path class="st2" d="M107.7,38.8H102l2.8-17.8L107.7,38.8z M101.9,11.8l-7.5,39.3v0.1h5.7l1.2-7.5h7.3l1.2,7.5h5.7L108,11.8
				L101.9,11.8L101.9,11.8L101.9,11.8z"/>
			<polygon class="st2" points="117.5,28.9 117.5,34.2 129.3,34.2 129.3,28.9 			"/>
			<path class="st2" d="M135.9,27.4l11.6,11.2v7.7h-7.1v-8h-5.8v9.8c0,2.1,1,3.1,3.1,3.1h12.5c2,0,3.1-1,3.1-3.1v-9.9
				c0-1.3-0.4-2.4-1.3-3.2L140.4,24v-7.1h7.1v7.4h5.8v-9.3c0-2-1-3.1-3.1-3.1h-12.5c-2,0-3.1,1-3.1,3.1v9.3
				C134.6,25.5,135,26.6,135.9,27.4L135.9,27.4L135.9,27.4z"/>
			<polygon class="st2" points="157,11.8 157,51.3 173.1,51.3 173.1,46.1 162.8,46.1 162.8,33.7 171.6,33.7 171.6,28.6 162.8,28.6 
				162.8,17.1 172.9,17.1 172.9,11.8 			"/>
			<polygon class="st2" points="176.8,11.8 176.8,51.3 192,51.3 192,46 182.6,46 182.6,11.8 			"/>
		</g>
		<g id="Logo">
			<path class="st2" d="M36.2,32.9l-11.8,6l-6.3-23.2c-4.5,3.9-7.4,9.6-7.4,15.9c0,11.6,9.6,21,21.3,21c3.8,0,7.4-1,10.5-2.7
				L36.2,32.9L36.2,32.9z"/>
			<path class="st2" d="M32,10.5c-1,0-2.1,0.1-3.1,0.2l-1.4-5.1c1.5-0.2,3-0.4,4.5-0.4c14.7,0,26.7,11.8,26.7,26.3
				c0,14.5-11.9,26.3-26.7,26.3S5.3,46.1,5.3,31.6c0-11.2,7.1-20.7,17-24.5l6.1,22.5l11.8-5.9L43.9,49c5.7-3.8,9.4-10.2,9.4-17.4
				C53.3,19.9,43.8,10.5,32,10.5L32,10.5z M32,0C14.3,0,0,14.1,0,31.6s14.3,31.6,32,31.6c17.7,0,32-14.1,32-31.6S49.7,0,32,0z"/>
		</g>
	</g>
</g>
</svg>
