<?xml version="1.0" standalone="no"?>
<!DOCTYPE svg PUBLIC "-//W3C//DTD SVG 20010904//EN"
 "http://www.w3.org/TR/2001/REC-SVG-20010904/DTD/svg10.dtd">
<svg version="1.0" xmlns="http://www.w3.org/2000/svg"
 width="702.000000pt" height="943.000000pt" viewBox="0 0 702.000000 943.000000"
 preserveAspectRatio="xMidYMid meet">

<g transform="translate(0.000000,943.000000) scale(0.100000,-0.100000)"
fill="#000000" stroke="none">
<path d="M1045 9387 c9 -57 25 -107 35 -107 24 0 44 65 35 114 -6 29 -10 32
-41 33 l-35 1 6 -41z"/>
<path d="M1688 9421 c8 -4 12 -19 10 -32 -2 -20 -10 -25 -52 -31 -55 -8 -74
-22 -78 -58 -3 -23 0 -25 37 -25 30 0 40 -4 43 -17 2 -11 -3 -18 -12 -18 -13
0 -14 -8 -10 -44 5 -34 3 -49 -10 -61 -20 -21 -21 -64 -1 -72 22 -8 26 -1 27
46 0 23 4 44 9 47 12 7 49 84 49 101 0 8 -6 16 -14 19 -12 4 -10 12 8 38 12
18 23 51 24 74 3 38 1 42 -20 42 -17 0 -19 -3 -10 -9z"/>
<path d="M752 9395 c0 -16 2 -22 5 -12 2 9 2 23 0 30 -3 6 -5 -1 -5 -18z"/>
<path d="M1810 9355 c0 -8 6 -15 13 -15 8 0 14 7 14 15 0 8 -6 15 -14 15 -7 0
-13 -7 -13 -15z"/>
<path d="M1245 9341 c-3 -5 0 -20 6 -34 8 -17 19 -24 37 -24 15 0 35 -3 45 -7
14 -7 17 -3 17 23 0 25 -6 34 -26 41 -32 13 -71 13 -79 1z"/>
<path d="M1030 9231 c-15 -29 -13 -30 23 -18 43 15 44 17 27 27 -23 15 -38 12
-50 -9z"/>
<path d="M3994 9158 c-5 -7 -9 -80 -9 -162 0 -130 2 -150 17 -160 34 -21 40 4
39 164 -1 84 -4 157 -7 161 -8 13 -30 11 -40 -3z"/>
<path d="M4122 9158 c-19 -19 -17 -302 3 -318 30 -25 45 -4 45 59 0 83 12 111
49 111 34 0 41 -16 41 -107 0 -64 10 -78 43 -61 13 7 17 22 17 67 0 131 -33
171 -122 146 -27 -7 -27 -7 -30 51 -3 61 -19 79 -46 52z"/>
<path d="M5151 9151 c-12 -12 -21 -28 -21 -36 0 -18 5 -19 28 -4 14 9 26 8 51
-5 31 -16 34 -16 52 0 30 27 25 47 -10 39 -20 -4 -38 -1 -55 10 -23 15 -26 15
-45 -4z"/>
<path d="M3727 9121 c-44 -29 -59 -58 -64 -124 -4 -53 -2 -67 19 -97 13 -19
41 -44 62 -54 34 -17 45 -18 85 -7 54 14 86 46 101 101 17 64 3 119 -42 163
-34 32 -45 37 -86 37 -29 0 -58 -7 -75 -19z m122 -57 c31 -40 36 -87 15 -131
-20 -40 -49 -51 -99 -39 -50 13 -59 148 -12 181 33 23 73 19 96 -11z"/>
<path d="M5691 9050 c3 -97 9 -116 32 -107 11 4 17 29 22 90 4 47 4 90 1 96
-4 6 -18 11 -32 11 l-25 0 2 -90z"/>
<path d="M1250 9090 c0 -5 4 -10 9 -10 6 0 13 5 16 10 3 6 -1 10 -9 10 -9 0
-16 -4 -16 -10z"/>
<path d="M4433 9063 c-25 -5 -49 -30 -39 -40 4 -4 25 -7 48 -8 24 0 43 -5 45
-12 3 -8 -5 -13 -22 -13 -43 0 -94 -29 -102 -58 -9 -36 8 -74 40 -92 25 -14
30 -13 56 1 23 14 32 14 52 3 36 -19 49 -1 49 66 0 81 -9 117 -34 133 -26 17
-64 25 -93 20z m65 -134 c4 -23 -26 -51 -52 -47 -25 4 -33 33 -15 54 16 19 63
14 67 -7z"/>
<path d="M5158 9058 c-31 -11 -38 -37 -10 -39 9 0 30 -2 46 -2 37 -2 48 -27
12 -27 -61 0 -106 -35 -106 -84 0 -55 52 -86 102 -60 22 11 33 13 41 5 6 -6
19 -11 29 -11 16 0 18 10 18 86 0 97 -8 119 -47 128 -16 4 -35 9 -43 11 -8 2
-27 -1 -42 -7z m82 -132 c0 -20 -36 -48 -57 -44 -27 5 -28 43 -2 62 24 17 59
6 59 -18z"/>
<path d="M4720 8949 c0 -86 3 -108 15 -113 35 -13 45 4 45 78 0 84 7 99 46 94
l29 -3 3 -83 c2 -62 7 -84 18 -89 30 -11 43 16 46 95 3 73 4 77 27 80 37 6 51
-22 51 -99 0 -66 8 -82 38 -72 8 3 12 32 12 97 0 77 -3 96 -18 109 -22 20 -74
22 -102 5 -14 -9 -24 -9 -42 -1 -13 7 -56 11 -95 10 l-73 -1 0 -107z"/>
<path d="M5376 9035 c-22 -21 -26 -32 -26 -83 0 -51 4 -62 28 -84 47 -45 147
-46 147 -2 0 16 -6 19 -46 16 -32 -3 -49 1 -59 12 -18 23 -7 30 48 32 26 1 53
3 60 3 26 2 7 93 -26 117 -30 23 -96 17 -126 -11z m95 -25 c40 -22 6 -60 -41
-45 -23 7 -26 25 -8 43 15 15 24 15 49 2z"/>
<path d="M1584 8962 c-22 -15 -56 -73 -50 -87 8 -22 31 -8 53 34 20 37 18 67
-3 53z"/>
<path d="M5690 8865 c0 -23 4 -26 28 -23 19 2 27 9 27 23 0 14 -8 21 -27 23
-24 3 -28 0 -28 -23z"/>
<path d="M1396 8841 c-7 -11 18 -33 27 -24 4 3 7 12 7 20 0 15 -26 18 -34 4z"/>
<path d="M930 8812 c0 -21 7 -32 25 -40 34 -16 35 -16 35 11 0 25 -28 57 -48
57 -7 0 -12 -13 -12 -28z"/>
<path d="M1576 8769 c-10 -17 -36 -39 -57 -48 -29 -13 -36 -20 -27 -29 20 -20
55 -13 77 14 12 15 21 32 21 39 0 7 7 15 15 19 18 7 20 36 2 36 -7 0 -21 -14
-31 -31z"/>
<path d="M1063 8733 c-18 -7 -16 -30 3 -37 23 -9 24 -8 24 19 0 25 -4 28 -27
18z"/>
<path d="M995 8719 c-9 -14 -2 -20 14 -10 8 6 9 11 3 15 -6 3 -14 1 -17 -5z"/>
<path d="M1386 8715 c-4 -10 1 -15 16 -15 17 0 18 2 8 15 -7 8 -14 15 -15 15
-2 0 -5 -7 -9 -15z"/>
<path d="M4387 8602 c-16 -3 -17 -17 -15 -165 l3 -162 25 0 25 0 3 161 c3 169
1 176 -41 166z"/>
<path d="M5090 8580 c0 -27 27 -37 47 -17 20 19 9 37 -23 37 -17 0 -24 -5 -24
-20z"/>
<path d="M5414 8585 c-4 -9 -2 -21 4 -27 16 -16 47 -5 47 17 0 26 -42 34 -51
10z"/>
<path d="M1067 8583 c-12 -11 -8 -23 8 -23 8 0 15 7 15 15 0 16 -12 20 -23 8z"/>
<path d="M3340 8565 c-17 -20 -9 -212 10 -241 36 -56 113 -69 172 -29 43 29
58 80 55 194 -2 57 -6 76 -19 84 -12 8 -21 7 -32 -2 -13 -11 -16 -35 -16 -116
0 -86 -3 -104 -18 -118 -23 -21 -52 -22 -78 -3 -17 13 -19 27 -19 118 0 57 -4
109 -8 116 -11 16 -32 15 -47 -3z"/>
<path d="M1350 8563 c0 -5 7 -18 15 -29 15 -18 15 -18 13 5 -3 23 -28 44 -28
24z"/>
<path d="M4732 8503 c-16 -25 -20 -39 -13 -46 6 -6 11 -39 11 -73 0 -77 24
-114 75 -114 34 0 65 24 49 40 -5 4 -20 10 -34 12 -23 3 -25 7 -28 63 l-3 61
33 9 c41 12 44 39 4 43 -18 2 -30 11 -33 23 -8 30 -36 22 -61 -18z"/>
<path d="M5737 8503 c-25 -33 -26 -38 -11 -54 9 -10 15 -28 14 -41 -9 -101 15
-141 78 -136 30 2 38 8 40 26 3 17 -1 22 -20 22 -36 0 -48 19 -48 72 0 38 4
50 18 54 32 10 47 21 50 38 2 10 -3 16 -16 16 -31 0 -52 11 -52 26 0 25 -24
14 -53 -23z"/>
<path d="M3632 8388 l3 -113 25 0 c24 0 25 3 30 79 4 61 9 81 23 90 12 8 22 8
35 0 13 -9 18 -29 22 -90 5 -76 6 -79 30 -79 24 0 25 2 28 77 3 84 15 104 56
94 24 -6 25 -10 28 -89 3 -80 4 -82 28 -82 25 0 25 1 25 91 0 76 -3 96 -19
113 -21 23 -65 28 -98 10 -16 -8 -31 -8 -60 2 -31 10 -46 10 -71 1 -21 -8 -35
-8 -41 -2 -6 6 -18 10 -28 10 -17 0 -18 -9 -16 -112z"/>
<path d="M4150 8472 c-26 -26 -30 -38 -30 -82 0 -46 4 -56 34 -86 27 -27 42
-34 74 -34 53 0 72 8 72 31 0 16 -8 19 -55 19 -48 0 -55 2 -55 20 0 18 7 20
60 20 70 0 79 10 61 70 -14 48 -31 61 -86 67 -39 5 -47 2 -75 -25z m105 -47
c0 -16 -8 -21 -37 -23 -32 -3 -38 0 -38 16 0 27 10 33 45 30 22 -2 30 -8 30
-23z"/>
<path d="M4509 8469 c-23 -25 -29 -40 -29 -76 0 -82 40 -123 118 -123 39 0 62
14 62 37 0 8 -20 13 -57 15 -44 2 -58 7 -58 18 0 11 15 16 60 18 33 2 64 7 69
12 5 5 4 28 -4 55 -22 79 -107 102 -161 44z m105 -35 c9 -24 -2 -34 -40 -34
-26 0 -34 4 -34 18 0 25 9 32 41 32 15 0 29 -7 33 -16z"/>
<path d="M4900 8384 l0 -115 28 3 c25 3 27 6 30 58 4 86 9 100 47 116 34 14
45 36 24 49 -5 4 -24 1 -40 -5 -23 -10 -33 -10 -42 -1 -6 6 -19 11 -29 11 -16
0 -18 -11 -18 -116z"/>
<path d="M5090 8385 l0 -116 28 3 27 3 0 110 0 110 -27 3 -28 3 0 -116z"/>
<path d="M5237 8480 c-54 -43 -56 -142 -5 -185 46 -39 128 -31 128 12 0 8 -14
13 -38 13 -47 0 -72 24 -72 68 0 40 23 62 65 62 39 0 52 14 35 35 -18 22 -83
19 -113 -5z"/>
<path d="M5415 8487 c-3 -7 -4 -58 -3 -113 3 -98 3 -99 28 -99 l25 0 0 110 c0
107 -1 110 -23 113 -12 2 -24 -3 -27 -11z"/>
<path d="M5545 8475 c-14 -13 -25 -31 -25 -40 0 -18 47 -65 65 -65 16 0 47
-35 38 -43 -3 -4 -26 -7 -49 -7 -49 0 -61 -11 -38 -34 25 -26 96 -21 128 9 43
40 31 81 -33 110 -54 24 -54 45 -1 45 33 0 40 4 40 19 0 39 -88 44 -125 6z"/>
<path d="M5935 8487 c-27 -21 -9 -37 40 -37 24 0 46 -4 49 -9 6 -9 -26 -21
-60 -21 -29 0 -74 -44 -74 -73 0 -39 36 -77 74 -77 17 0 37 5 44 12 9 9 17 9
36 -1 38 -21 46 -7 46 75 0 78 -16 126 -45 138 -29 11 -90 7 -110 -7z m95
-120 c0 -29 -18 -47 -47 -47 -31 0 -40 26 -18 50 26 29 65 27 65 -3z"/>
<path d="M881 8474 c-15 -18 -13 -21 14 -26 14 -2 21 3 23 20 4 26 -16 29 -37
6z"/>
<path d="M815 8409 c-8 -23 -1 -34 14 -24 13 8 15 45 2 45 -5 0 -13 -9 -16
-21z"/>
<path d="M1285 8220 c-8 -14 3 -30 21 -30 8 0 14 9 14 20 0 21 -24 28 -35 10z"/>
<path d="M732 7704 c-5 -11 -12 -35 -16 -55 -4 -21 -13 -42 -21 -49 -18 -15
-19 -50 -4 -84 l12 -25 18 24 c11 13 19 27 19 32 0 5 9 16 20 26 23 19 24 34
8 91 -15 53 -24 63 -36 40z"/>
<path d="M1610 7682 c0 -11 7 -25 16 -33 14 -11 15 -9 12 16 -3 32 -28 47 -28
17z"/>
<path d="M1857 7656 c-7 -16 1 -26 20 -26 7 0 13 9 13 20 0 23 -25 27 -33 6z"/>
<path d="M3580 7604 c0 -9 5 -14 12 -12 18 6 21 28 4 28 -9 0 -16 -7 -16 -16z"/>
<path d="M1672 7584 c4 -21 22 -23 26 -1 2 10 -3 17 -13 17 -10 0 -15 -6 -13
-16z"/>
<path d="M964 7539 c-3 -6 -1 -16 5 -22 8 -8 11 -5 11 11 0 24 -5 28 -16 11z"/>
<path d="M910 7370 c-8 -14 -7 -25 2 -40 11 -17 19 -20 48 -15 46 9 50 12 50
41 0 21 -4 23 -24 18 -13 -3 -33 -1 -45 5 -17 9 -22 8 -31 -9z"/>
<path d="M649 7353 c-20 -54 -8 -113 23 -113 18 0 20 5 15 36 -5 29 -2 40 18
60 34 34 31 42 -11 42 -28 0 -37 -5 -45 -25z"/>
<path d="M787 7374 c-13 -13 -7 -24 14 -24 11 0 19 5 17 12 -5 14 -22 21 -31
12z"/>
<path d="M3213 7302 c18 -20 18 -21 -3 -32 -30 -16 -63 -4 -55 21 7 20 -2 24
-22 11 -11 -7 -16 -26 -14 -49 0 -7 12 -13 26 -13 19 0 25 -5 25 -22 0 -15 -3
-19 -10 -12 -18 18 -79 -16 -80 -44 0 -52 67 -28 96 34 16 34 37 44 49 23 4
-6 13 -8 20 -5 8 3 19 -2 26 -10 25 -30 49 -37 69 -19 28 25 6 88 -29 83 -11
-2 -15 4 -14 18 1 11 -3 21 -10 22 -7 1 -30 4 -52 8 -40 6 -40 6 -22 -14z"/>
<path d="M893 7247 c-28 -31 -38 -61 -17 -53 8 3 19 6 24 6 9 0 25 59 18 66
-3 2 -14 -6 -25 -19z"/>
<path d="M2920 7159 c0 -7 -8 -17 -17 -24 -13 -10 -15 -16 -6 -26 6 -8 12 -18
14 -24 4 -20 24 -45 35 -45 13 0 24 22 24 48 0 8 8 24 18 35 16 19 16 20 -10
15 -20 -4 -28 0 -31 14 -6 20 -27 25 -27 7z"/>
<path d="M745 7100 c-9 -15 14 -40 31 -33 22 8 18 43 -5 43 -11 0 -23 -5 -26
-10z"/>
<path d="M2805 7080 c-17 -18 -17 -20 -1 -26 23 -9 66 12 66 31 0 22 -43 19
-65 -5z"/>
<path d="M3363 7017 c-19 -24 -22 -45 -6 -51 21 -9 33 2 33 29 0 28 -14 40
-27 22z"/>
<path d="M893 6920 c-15 -22 -5 -31 25 -23 18 4 20 9 11 24 -12 24 -21 24 -36
-1z"/>
<path d="M662 6918 c6 -18 28 -21 28 -4 0 9 -7 16 -16 16 -9 0 -14 -5 -12 -12z"/>
<path d="M744 6907 c-10 -26 4 -36 31 -24 25 12 34 27 16 27 -5 0 -16 3 -25 6
-9 4 -18 0 -22 -9z"/>
<path d="M717 6835 c-9 -7 -17 -18 -17 -26 1 -19 39 -68 40 -50 0 8 7 22 15
31 28 31 -5 70 -38 45z"/>
<path d="M2022 6818 c-15 -15 3 -48 27 -48 23 0 35 28 20 46 -14 17 -31 18
-47 2z"/>
<path d="M2200 6815 c0 -8 7 -15 15 -15 9 0 12 6 9 15 -4 8 -10 15 -15 15 -5
0 -9 -7 -9 -15z"/>
<path d="M1554 6809 c-8 -14 11 -33 25 -25 16 10 13 36 -3 36 -8 0 -18 -5 -22
-11z"/>
<path d="M3250 6794 c0 -8 5 -12 10 -9 6 4 8 11 5 16 -9 14 -15 11 -15 -7z"/>
<path d="M4251 6751 c-26 -14 -30 -19 -17 -24 9 -4 16 -2 16 3 0 6 11 10 24
10 13 0 26 7 30 15 7 20 -11 18 -53 -4z"/>
<path d="M2100 6739 c0 -14 7 -19 30 -19 36 0 32 25 -6 33 -18 3 -24 0 -24
-14z"/>
<path d="M3260 6746 c0 -14 29 -31 38 -22 5 5 -23 36 -32 36 -3 0 -6 -6 -6
-14z"/>
<path d="M3590 6735 c0 -8 7 -15 15 -15 9 0 12 6 9 15 -4 8 -10 15 -15 15 -5
0 -9 -7 -9 -15z"/>
<path d="M2985 6720 c-8 -14 3 -30 21 -30 16 0 16 2 8 24 -7 18 -20 21 -29 6z"/>
<path d="M702 6708 c-12 -12 -17 -58 -7 -58 15 0 57 49 51 59 -9 14 -29 14
-44 -1z"/>
<path d="M2635 6651 c-8 -15 3 -31 21 -31 9 0 14 7 12 17 -4 20 -24 28 -33 14z"/>
<path d="M3656 6554 c-10 -26 -7 -34 14 -34 23 0 26 15 6 35 -12 12 -15 12
-20 -1z"/>
<path d="M2676 6494 c-8 -21 -1 -31 28 -36 24 -5 25 -4 10 23 -16 33 -29 37
-38 13z"/>
<path d="M3307 6483 c-13 -13 -19 -14 -29 -5 -18 18 -46 14 -53 -7 -9 -30 5
-69 32 -91 32 -25 38 -25 65 2 30 30 74 37 131 20 54 -15 52 -16 61 16 7 20 4
22 -21 20 -65 -4 -84 2 -101 32 -20 34 -57 40 -85 13z"/>
<path d="M2899 6473 c-16 -19 -22 -79 -10 -101 9 -17 7 -21 -12 -26 -13 -3
-525 -6 -1138 -6 -613 0 -1255 0 -1426 0 l-313 0 0 -30 0 -30 159 0 c88 0 162
-4 165 -9 12 -19 -7 -37 -72 -68 -37 -18 -72 -33 -78 -33 -7 0 -17 -7 -24 -15
-17 -20 3 -45 36 -45 32 0 41 -38 19 -81 -45 -85 -55 -138 -55 -281 0 -138 22
-311 42 -336 6 -7 29 -52 52 -100 23 -48 49 -98 59 -112 9 -13 17 -35 17 -49
0 -13 7 -47 15 -75 43 -149 91 -343 104 -416 16 -89 41 -306 41 -355 0 -44
-20 -109 -38 -127 -7 -7 -12 -21 -12 -31 0 -17 7 -18 68 -15 62 3 67 2 70 -19
2 -12 -9 -40 -23 -62 -15 -22 -24 -45 -20 -51 4 -6 31 -22 61 -35 41 -18 81
-26 164 -31 60 -4 114 -12 119 -18 8 -11 24 -147 24 -213 1 -52 -20 -78 -140
-174 -63 -51 -135 -111 -161 -135 -26 -24 -50 -44 -53 -44 -3 0 -30 -18 -60
-41 -30 -22 -76 -52 -104 -65 -81 -40 -97 -50 -159 -106 -33 -29 -76 -64 -95
-79 -20 -14 -49 -40 -66 -57 -16 -18 -36 -32 -42 -32 -9 0 -13 -17 -13 -50 l0
-51 143 1 c78 0 525 -1 992 -2 l850 -3 5 -85 c4 -67 8 -85 21 -88 10 -2 21 9
29 30 14 35 56 104 79 128 15 16 788 20 3754 20 l1147 0 0 30 0 30 -506 0
c-330 0 -512 4 -525 10 -18 10 -18 13 -3 41 17 34 9 56 -10 25 -6 -10 -22 -32
-34 -47 l-24 -29 -1197 0 c-1316 0 -1223 -4 -1256 60 -19 36 -22 379 -4 397 6
6 9 17 6 25 -3 8 -10 2 -18 -17 -10 -22 -13 -79 -12 -215 0 -102 2 -198 4
-215 l4 -30 -652 -3 -652 -2 -24 22 c-13 13 -27 33 -31 46 -8 25 -129 127
-185 156 -20 10 -43 24 -51 31 -8 7 -42 27 -76 44 -33 17 -69 39 -80 49 -10
10 -32 23 -49 30 -32 13 -144 115 -201 183 l-35 43 7 100 c3 56 13 119 20 141
8 22 14 57 14 77 0 56 22 72 91 64 31 -4 76 -16 99 -27 47 -23 70 -14 70 28 0
32 22 38 77 20 66 -22 76 -15 68 45 l-7 50 61 -7 c34 -4 76 -11 92 -15 33 -10
59 -4 59 12 0 6 -24 34 -53 62 -45 44 -55 61 -73 126 -18 61 -20 88 -14 145 8
68 27 125 43 125 4 0 7 6 7 13 0 6 7 26 16 42 9 17 20 71 25 122 4 50 12 100
17 110 6 10 18 45 27 78 26 91 92 191 209 315 36 38 56 71 65 102 19 66 36 78
121 85 80 7 95 20 62 56 -29 31 -102 177 -102 204 0 31 34 49 102 57 31 3 63
9 72 12 27 10 18 34 -21 52 -21 9 -39 20 -41 25 -2 4 -10 7 -18 7 -8 0 -14 4
-14 9 0 8 -71 100 -113 146 -10 11 -30 40 -44 65 -14 25 -38 59 -52 76 -14 17
-44 57 -66 89 -22 31 -57 71 -78 87 -29 23 -35 33 -25 39 20 13 1245 11 1253
-2 8 -11 -32 -59 -49 -59 -12 0 -56 -43 -56 -54 0 -7 -14 -26 -41 -54 -9 -9
-23 -30 -32 -47 -8 -16 -27 -41 -41 -54 -14 -14 -26 -29 -26 -34 0 -5 -9 -22
-21 -38 -11 -16 -19 -37 -17 -47 3 -12 10 -5 26 26 12 23 26 42 31 42 5 0 15
15 22 33 7 17 26 43 41 55 16 13 28 30 28 37 0 7 23 37 50 66 28 29 50 55 50
58 1 9 90 50 145 66 43 13 210 15 1185 15 l1135 0 66 -25 c36 -14 76 -36 90
-48 13 -12 35 -28 49 -36 81 -44 71 -36 203 -166 91 -90 127 -135 202 -255 48
-77 75 -129 75 -147 0 -11 9 -38 20 -61 11 -22 20 -47 20 -54 0 -8 6 -22 13
-33 26 -38 55 -134 72 -240 3 -16 12 -64 20 -107 21 -112 30 -422 15 -538 -7
-52 -14 -124 -17 -160 -5 -60 -4 -64 11 -45 8 11 16 36 16 56 0 20 7 99 16
175 14 120 14 162 4 309 -17 241 -17 237 -29 268 -6 16 -11 41 -11 57 0 16 -4
39 -9 52 -4 13 -16 50 -26 83 -9 33 -23 72 -31 87 -8 14 -14 34 -14 43 0 9 -6
29 -14 43 -8 15 -24 56 -36 92 -12 36 -35 82 -51 102 -16 20 -29 41 -29 46 0
4 -8 17 -19 28 -10 11 -26 36 -35 55 -25 54 -285 309 -314 309 -5 0 -28 14
-51 30 -23 17 -47 28 -54 24 -7 -4 -9 -4 -5 1 4 4 3 14 -3 21 -6 7 -8 18 -4
24 4 7 182 10 546 10 l539 0 0 30 0 30 -1757 1 c-967 1 -1875 1 -2017 0 -143
-1 -268 2 -279 5 -18 6 -18 7 3 29 29 31 83 41 112 20 28 -19 58 -19 83 -1 17
12 17 17 5 46 -12 28 -17 31 -42 26 -18 -4 -28 -1 -28 7 0 16 -188 17 -201 0z
m-861 -226 c27 -13 62 -34 78 -48 29 -25 84 -93 84 -104 0 -3 12 -18 26 -33
14 -15 39 -48 56 -74 16 -27 34 -48 39 -48 6 0 8 -4 5 -9 -3 -5 4 -19 17 -33
12 -13 34 -40 49 -59 15 -18 43 -52 63 -74 50 -56 47 -71 -17 -78 -65 -8 -81
-26 -73 -82 6 -37 41 -123 54 -135 3 -3 14 -20 24 -39 22 -41 12 -51 -49 -51
-51 0 -79 -28 -102 -102 -17 -53 -78 -138 -100 -138 -7 0 -12 -5 -12 -11 0
-13 -55 -86 -87 -115 -13 -12 -23 -28 -23 -37 0 -20 -17 -31 -22 -15 -3 7 -1
35 4 63 4 27 5 65 2 83 -7 35 -9 34 69 36 75 2 80 14 73 171 -6 118 -22 200
-56 290 -4 11 -16 42 -25 69 -19 51 -74 121 -104 131 -9 3 -28 30 -41 61 -27
61 -74 97 -140 108 -69 12 -86 15 -118 25 -31 9 -64 9 -207 -4 -68 -5 -147
-23 -159 -35 -6 -6 -17 -10 -27 -10 -9 0 -47 -16 -85 -35 -67 -33 -120 -80
-199 -175 -20 -25 -56 -65 -79 -90 -34 -37 -45 -58 -58 -115 -30 -126 -38
-175 -38 -221 0 -41 2 -45 23 -42 17 2 25 13 33 49 6 25 28 77 48 115 20 39
36 74 36 78 0 10 111 146 119 146 3 0 31 22 61 50 30 27 60 50 65 50 6 0 23 7
39 15 16 8 67 27 115 40 47 14 93 30 101 34 24 13 219 13 313 0 79 -11 87 -14
97 -39 8 -19 26 -33 57 -45 51 -20 97 -75 114 -139 6 -23 19 -69 30 -104 10
-34 25 -117 31 -183 11 -105 10 -121 -3 -135 -13 -12 -24 -13 -60 -5 -24 5
-70 15 -102 21 -71 14 -79 25 -102 145 -23 112 -31 135 -49 135 -21 0 -34 -46
-41 -148 -9 -137 1 -131 -184 -126 -86 2 -212 12 -281 22 l-124 18 -13 34 c-6
19 -18 62 -25 95 -11 49 -17 61 -35 63 -28 4 -43 -23 -41 -74 1 -28 -6 -51
-26 -81 -16 -24 -32 -43 -36 -43 -23 0 -56 -125 -59 -218 -1 -24 -1 -24 -40 7
-59 47 -130 39 -172 -19 -25 -34 -33 -153 -13 -196 9 -17 34 -54 58 -82 l43
-50 6 -108 c4 -60 9 -149 13 -199 15 -229 19 -392 12 -407 -11 -22 -59 -23
-175 -4 -121 19 -131 34 -77 114 16 23 24 47 22 67 -3 33 -9 34 -97 19 -43 -7
-44 -7 -36 17 14 41 18 190 6 259 -5 36 -15 99 -21 140 -16 113 -30 176 -89
385 -11 39 -23 88 -27 110 -7 45 -50 152 -68 175 -7 8 -19 31 -26 50 -7 19
-26 63 -42 98 -15 35 -28 78 -28 95 0 18 -5 48 -10 67 -29 93 -20 299 15 370
39 79 52 144 35 175 -11 20 -11 27 0 40 7 8 18 15 26 15 12 0 47 20 117 67
l32 21 782 1 781 1 50 -23z m-293 -311 c17 -2 35 -5 40 -6 6 -1 1 -5 -10 -9
-11 -4 -71 -9 -133 -10 -62 -1 -138 -9 -168 -17 -30 -8 -63 -14 -73 -14 -27 0
-178 -74 -235 -115 -63 -46 -89 -46 -44 -1 82 82 176 133 308 165 75 18 215
21 315 7z m-660 -236 c-3 -5 -11 -10 -16 -10 -6 0 -7 5 -4 10 3 6 11 10 16 10
6 0 7 -4 4 -10z m-47 -52 c-2 -6 -10 -14 -16 -16 -7 -2 -10 2 -6 12 7 18 28
22 22 4z m-44 -53 c-7 -16 -24 -21 -24 -6 0 8 7 13 27 20 1 1 0 -6 -3 -14z
m151 -300 c3 -14 7 -36 10 -50 4 -21 11 -25 39 -25 53 0 60 -17 40 -93 -14
-53 -15 -71 -6 -91 19 -43 31 -30 25 28 -7 66 9 80 73 66 84 -19 100 -105 24
-133 -10 -4 -9 -6 6 -6 22 -1 49 25 76 75 17 30 17 32 0 47 -9 8 -33 22 -52
31 -19 9 -51 25 -70 35 l-35 19 37 7 c21 4 55 4 75 0 48 -9 361 -18 389 -11
23 6 44 51 44 92 0 45 27 22 37 -31 6 -30 33 -67 54 -72 29 -8 23 -19 -20 -36
-48 -20 -51 -25 -36 -60 l12 -28 24 35 c19 29 31 36 57 36 64 0 92 -62 51
-114 -20 -26 -20 -28 -4 -46 16 -18 16 -33 5 -212 l-12 -193 -44 -66 c-48 -74
-147 -179 -168 -179 -7 0 -21 -9 -31 -20 -10 -11 -22 -20 -28 -20 -5 0 -31
-11 -58 -24 -27 -14 -80 -29 -120 -35 -39 -5 -73 -12 -76 -14 -2 -3 1 -14 8
-25 10 -17 10 -30 -5 -74 -9 -29 -26 -118 -37 -198 -11 -80 -27 -192 -35 -250
-8 -58 -21 -163 -29 -235 -7 -71 -18 -146 -24 -165 -6 -19 -11 -94 -11 -167 0
-77 -4 -134 -10 -138 -23 -14 -53 21 -107 125 -10 19 -21 40 -26 45 -69 91
-137 192 -137 205 0 8 -8 26 -17 40 -9 13 -34 58 -56 99 -58 113 -66 178 -67
506 0 154 -4 316 -10 360 -12 101 -16 332 -6 365 7 22 3 28 -27 42 -40 19 -79
67 -96 117 -11 35 -5 105 9 96 4 -3 13 2 20 10 30 37 105 4 116 -51 5 -25 2
-32 -20 -42 -34 -15 -36 -52 -3 -52 35 0 47 19 47 77 0 51 1 53 24 47 13 -3
26 -2 29 3 2 4 8 55 12 112 4 67 12 115 23 135 22 41 92 126 103 126 5 0 11
-11 14 -25z m-320 -274 c6 -11 -29 -33 -39 -24 -7 7 12 33 25 33 4 0 10 -4 14
-9z m1056 -688 c1 -10 0 -30 -1 -45 -2 -37 29 -161 44 -173 21 -16 37 -53 27
-60 -5 -3 -35 6 -67 20 -33 15 -65 23 -77 19 -17 -5 -19 -12 -13 -61 6 -51 5
-55 -11 -47 -10 4 -40 8 -68 9 -50 0 -50 0 -53 -33 -3 -30 -6 -33 -25 -27 -12
3 -48 12 -80 20 -33 7 -63 17 -67 21 -12 13 8 123 29 164 13 25 27 36 52 42
37 9 115 45 139 64 8 6 26 14 40 17 14 4 43 24 65 45 44 43 64 51 66 25z
m-969 -788 c4 -17 32 -78 63 -135 30 -58 61 -117 68 -132 7 -15 27 -43 45 -62
18 -20 32 -38 32 -41 0 -3 20 -34 45 -69 25 -36 45 -71 45 -78 0 -7 9 -28 20
-46 11 -18 20 -35 20 -37 0 -3 -138 -4 -307 -3 l-307 3 -19 50 c-23 59 -32 93
-52 195 -24 121 -25 118 68 199 228 200 262 219 279 156z m610 -177 c38 -36
86 -74 106 -84 20 -9 56 -30 79 -45 23 -16 44 -29 47 -29 8 0 129 -72 158 -94
15 -12 48 -37 73 -56 45 -34 85 -86 85 -109 0 -8 -92 -11 -347 -9 l-348 3 -9
89 c-7 69 -6 111 7 191 10 56 17 118 17 136 0 19 5 51 11 72 12 45 3 50 121
-65z m-1016 -112 c8 -8 14 -29 14 -47 0 -17 9 -57 19 -88 29 -86 44 -162 35
-171 -9 -9 -48 -13 -96 -11 -20 1 -32 9 -42 30 -9 16 -13 31 -10 34 3 2 -6 44
-20 92 -19 64 -23 92 -15 106 5 11 13 19 18 19 4 0 20 11 35 25 31 29 42 31
62 11z m-148 -138 c7 -29 17 -73 23 -98 6 -25 11 -52 12 -60 2 -13 -24 -15
-171 -18 -94 -1 -172 0 -172 3 0 8 71 76 110 105 19 14 58 46 87 73 31 27 63
47 76 47 20 0 25 -8 35 -52z m1724 -258 c5 0 2 -7 -6 -16 -9 -8 -16 -20 -16
-25 0 -19 -31 -8 -39 14 -9 23 10 40 37 31 8 -2 18 -4 24 -4z"/>
<path d="M1565 4800 c3 -5 8 -10 11 -10 2 0 4 5 4 10 0 6 -5 10 -11 10 -5 0
-7 -4 -4 -10z"/>
<path d="M1809 4792 c13 -25 40 -46 48 -38 7 7 -36 56 -49 56 -5 0 -4 -8 1
-18z"/>
<path d="M1511 4773 c-7 -8 -10 -17 -7 -20 9 -9 29 13 25 25 -2 6 -10 3 -18
-5z"/>
<path d="M1473 4733 c-15 -5 -18 -43 -4 -43 5 0 17 -3 26 -7 14 -5 16 -2 10
18 -9 30 -17 38 -32 32z"/>
<path d="M1848 4708 c-10 -15 -28 -29 -40 -31 -13 -2 -8 -3 11 -1 40 4 54 15
49 40 -3 15 -6 14 -20 -8z"/>
<path d="M1555 4680 c3 -5 41 -10 83 -9 52 0 71 3 57 9 -29 12 -148 12 -140 0z"/>
<path d="M3717 5982 c-31 -34 -12 -73 20 -41 9 9 21 8 48 -5 39 -19 55 -13 76
27 16 29 -5 46 -30 23 -18 -16 -22 -16 -50 -2 -38 20 -44 20 -64 -2z"/>
<path d="M4580 5837 c0 -153 1 -165 19 -170 39 -10 42 3 39 169 l-3 159 -27 3
-28 3 0 -164z"/>
<path d="M4715 5991 c-10 -17 -7 -313 3 -323 6 -6 19 -7 31 -3 18 5 21 14 21
65 0 82 15 112 54 108 l31 -3 3 -82 c3 -83 12 -100 47 -87 12 5 15 26 15 99 0
90 -1 94 -27 115 -27 21 -64 23 -105 6 -15 -7 -17 0 -20 51 -3 51 -6 58 -25
61 -11 2 -24 -2 -28 -7z"/>
<path d="M3353 5973 c-10 -3 -13 -44 -13 -154 l0 -149 30 0 30 0 0 96 c0 72 3
95 13 92 6 -3 33 -42 59 -89 51 -92 83 -119 123 -101 21 10 22 15 23 151 0
150 -6 173 -46 152 -17 -9 -19 -20 -16 -92 4 -105 -6 -127 -35 -73 -85 156
-117 188 -168 167z"/>
<path d="M3715 5886 c-32 -23 -12 -48 36 -44 59 4 62 -18 4 -24 -59 -7 -85
-30 -85 -78 0 -60 57 -92 111 -64 23 11 33 12 48 3 38 -25 51 -6 51 76 0 42
-5 85 -10 96 -23 43 -115 64 -155 35z m91 -121 c9 -23 -16 -46 -45 -43 -33 4
-39 31 -9 46 32 15 48 14 54 -3z"/>
<path d="M3979 5876 c-43 -29 -55 -78 -37 -140 25 -82 153 -97 198 -23 37 59
22 134 -32 167 -44 27 -86 25 -129 -4z m109 -84 c4 -50 -10 -72 -44 -72 -27 0
-44 26 -44 67 0 38 18 55 55 51 28 -3 30 -6 33 -46z"/>
<path d="M4354 5880 c-23 -15 -35 -34 -44 -67 -12 -41 -12 -50 6 -82 39 -73
126 -87 183 -30 55 54 45 139 -21 179 -42 25 -84 25 -124 0z m110 -77 c11 -41
-13 -83 -47 -83 -31 0 -47 18 -47 53 0 48 17 69 53 65 26 -2 33 -9 41 -35z"/>
<path d="M5023 5879 c-43 -28 -55 -72 -39 -144 13 -58 128 -96 175 -58 35 29
19 43 -50 43 -46 0 -59 3 -59 15 0 11 13 15 54 15 76 0 86 6 86 47 0 26 -8 43
-34 69 -40 40 -84 45 -133 13z m91 -45 c22 -22 11 -34 -30 -34 -27 0 -34 4
-34 19 0 31 39 40 64 15z"/>
<path d="M5357 5893 c-4 -3 -7 -55 -7 -115 0 -88 3 -110 15 -114 28 -11 45 16
45 72 0 76 13 104 49 104 36 0 41 -13 41 -100 0 -72 7 -85 40 -75 17 6 20 15
20 74 0 77 14 105 51 99 23 -3 24 -7 27 -80 3 -82 15 -105 52 -93 18 6 20 14
20 94 0 80 -2 91 -25 115 -27 29 -70 34 -101 11 -25 -19 -42 -19 -60 0 -19 19
-63 19 -88 0 -16 -12 -21 -12 -40 0 -23 17 -30 18 -39 8z"/>
<path d="M5803 5879 c-69 -44 -67 -156 3 -194 48 -26 122 -26 141 0 17 25 2
35 -54 35 -23 0 -48 3 -57 6 -32 12 -3 24 59 24 48 0 64 4 69 16 14 36 5 67
-28 100 -40 40 -84 45 -133 13z m91 -45 c22 -21 11 -34 -29 -34 -41 0 -55 18
-30 37 25 17 40 17 59 -3z"/>
<path d="M6033 5893 c-9 -3 -13 -31 -13 -87 0 -68 4 -88 20 -109 25 -31 53
-37 102 -20 23 7 40 8 43 2 4 -5 17 -9 31 -9 l25 0 -3 113 -3 112 -25 0 c-24
0 -25 -4 -31 -73 -8 -82 -21 -104 -58 -100 -25 3 -26 6 -29 78 -4 90 -17 111
-59 93z"/>
<path d="M3042 5844 c-12 -16 -26 -34 -31 -40 -4 -5 -16 -28 -26 -50 -10 -21
-27 -61 -40 -89 -35 -78 -47 -117 -52 -160 -3 -22 -10 -45 -15 -52 -5 -6 -20
-59 -33 -117 -22 -96 -24 -133 -27 -374 -1 -196 1 -277 11 -304 14 -43 37 -53
27 -12 -12 45 -8 588 4 656 11 60 25 115 56 218 20 68 69 189 82 202 7 7 12
17 12 23 0 6 14 33 30 59 35 54 36 85 2 40z"/>
<path d="M3852 5390 c-12 -12 -22 -31 -22 -44 0 -13 -10 -36 -21 -51 -18 -22
-20 -29 -8 -36 8 -5 17 -9 22 -9 4 0 7 -38 7 -85 l0 -85 30 0 30 0 0 80 c0 79
0 80 31 95 34 18 36 48 4 53 -11 2 -24 8 -29 13 -14 12 13 39 39 39 23 0 40
24 29 41 -11 18 -89 10 -112 -11z"/>
<path d="M3992 5398 c-17 -17 -15 -26 7 -38 27 -14 53 -2 49 24 -3 24 -37 33
-56 14z"/>
<path d="M4115 5388 c-3 -13 -4 -86 -3 -163 l3 -140 30 0 30 0 0 160 0 160
-27 3 c-22 3 -29 -2 -33 -20z"/>
<path d="M4247 5403 c-4 -3 -7 -75 -7 -159 0 -138 2 -154 18 -163 29 -16 46 3
44 48 -2 23 2 59 8 81 10 37 13 40 45 40 39 0 35 9 39 -110 1 -55 1 -55 34
-58 l34 -3 -4 96 c-3 87 -5 99 -27 116 -26 22 -81 25 -99 7 -19 -19 -34 9 -28
50 3 18 2 40 -1 48 -5 14 -44 20 -56 7z"/>
<path d="M5326 5381 c-18 -35 -12 -43 21 -28 18 8 29 8 44 -1 31 -20 64 -14
78 12 18 33 6 51 -21 32 -18 -13 -25 -13 -49 0 -41 21 -57 18 -73 -15z"/>
<path d="M3990 5195 l0 -116 28 3 27 3 0 110 0 110 -27 3 -28 3 0 -116z"/>
<path d="M4550 5283 c-52 -47 -53 -132 -3 -179 21 -19 37 -24 78 -24 48 0 56
3 84 35 71 81 16 195 -93 195 -25 0 -45 -8 -66 -27z m108 -45 c17 -17 15 -83
-4 -98 -11 -10 -23 -11 -41 -4 -55 19 -51 114 5 114 15 0 33 -5 40 -12z"/>
<path d="M5025 5298 c-3 -8 -4 -59 -3 -114 l3 -99 30 0 c29 0 30 2 33 50 5
101 10 115 43 115 36 0 49 -27 44 -96 -4 -63 1 -74 37 -74 l30 0 -4 96 c-3 88
-5 97 -28 116 -18 15 -33 18 -60 13 -49 -8 -72 -8 -97 0 -16 5 -24 3 -28 -7z"/>
<path d="M5329 5290 c-31 -25 -13 -40 41 -33 45 6 64 -13 23 -23 -64 -14 -94
-27 -103 -44 -29 -54 7 -110 70 -110 20 0 41 5 47 11 8 8 17 8 31 0 46 -25 52
-17 52 73 0 100 -4 112 -41 131 -40 21 -92 19 -120 -5z m91 -125 c0 -18 -7
-26 -24 -31 -43 -11 -65 24 -28 45 31 19 52 13 52 -14z"/>
<path d="M5574 5276 c-28 -28 -34 -42 -34 -76 0 -78 39 -119 112 -120 61 0
103 34 113 89 13 79 -39 141 -121 141 -28 0 -44 -8 -70 -34z m120 -42 c10 -27
7 -69 -8 -89 -12 -16 -19 -18 -42 -10 -33 12 -49 51 -35 88 9 22 17 27 45 27
22 0 36 -6 40 -16z"/>
<path d="M4786 5122 c-3 -5 -8 -28 -12 -50 -6 -38 -5 -42 15 -42 15 0 25 11
36 37 9 20 13 43 11 50 -6 14 -42 18 -50 5z"/>
<path d="M6181 4794 c-12 -14 -20 -33 -17 -41 5 -12 11 -11 39 6 30 18 36 19
53 6 10 -8 29 -15 42 -15 19 0 21 3 12 19 -30 58 -90 69 -129 25z"/>
<path d="M3156 4691 c-24 -25 -29 -38 -29 -84 0 -59 21 -102 56 -114 12 -4 24
-7 27 -6 3 0 20 4 38 8 l32 7 0 -49 c0 -52 12 -73 42 -73 25 0 29 27 26 190
l-3 145 -30 -2 c-41 -4 -44 -3 -90 3 -35 5 -43 2 -69 -25z m122 -80 c4 -49
-10 -71 -44 -71 -44 0 -60 74 -24 110 32 32 64 13 68 -39z"/>
<path d="M3415 4710 c-6 -9 -9 -108 -5 -170 0 -5 10 -18 22 -30 24 -22 77 -27
108 -10 14 7 25 7 38 -1 41 -26 51 -7 51 98 0 54 -3 104 -8 111 -4 8 -19 12
-32 10 -22 -3 -24 -8 -29 -81 -5 -79 -14 -96 -51 -97 -28 0 -38 24 -41 100 -3
68 -5 75 -25 78 -11 2 -24 -2 -28 -8z"/>
<path d="M3728 4704 c-37 -20 -48 -43 -48 -104 0 -45 4 -56 30 -80 43 -41 118
-49 158 -17 28 22 13 37 -40 37 -54 0 -89 13 -74 27 4 4 35 10 69 13 l62 5 3
38 c6 75 -85 122 -160 81z m83 -44 c34 -19 23 -40 -21 -40 -41 0 -52 14 -28
38 15 15 24 15 49 2z"/>
<path d="M3947 4713 c-4 -3 -7 -55 -7 -115 l0 -108 30 0 30 0 0 63 c0 71 12
94 55 105 23 6 31 15 33 35 3 22 -1 27 -18 27 -11 0 -31 -7 -44 -15 -21 -14
-24 -14 -36 0 -13 16 -32 20 -43 8z"/>
<path d="M4167 4704 c-15 -8 -32 -26 -37 -40 -13 -33 -13 -100 0 -125 15 -28
63 -49 110 -49 34 0 48 6 71 31 39 42 46 86 21 136 -31 61 -102 81 -165 47z
m104 -65 c6 -12 8 -36 4 -55 -4 -26 -12 -35 -32 -40 -46 -12 -79 48 -53 97 15
27 66 26 81 -2z"/>
<path d="M4516 4689 c-37 -44 -37 -124 1 -169 25 -30 30 -32 75 -28 l48 5 0
-48 c0 -39 4 -51 21 -59 45 -25 49 -12 49 165 l0 165 -23 0 c-13 0 -28 -5 -34
-11 -8 -8 -17 -8 -31 0 -39 21 -78 13 -106 -20z m130 -64 c14 -55 -24 -99 -70
-82 -17 7 -26 64 -15 94 15 41 74 33 85 -12z"/>
<path d="M4777 4713 c-4 -3 -7 -43 -7 -88 0 -105 19 -135 84 -135 23 0 47 5
53 11 8 8 16 7 30 -2 11 -7 28 -9 37 -6 14 6 16 21 14 114 l-3 108 -30 0 -30
0 -5 -75 c-6 -87 -12 -100 -46 -100 -30 0 -34 8 -38 95 -2 39 -4 73 -5 78 -1
9 -45 9 -54 0z"/>
<path d="M5075 4689 c-32 -28 -35 -36 -35 -83 1 -55 10 -73 52 -100 47 -31
148 -21 148 15 0 16 -7 19 -52 19 -64 0 -86 11 -63 30 10 8 31 11 61 7 39 -4
47 -2 60 18 33 51 -24 125 -96 125 -30 0 -48 -8 -75 -31z m103 -31 c24 -24 13
-38 -28 -38 -26 0 -40 5 -40 13 0 18 21 37 40 37 9 0 21 -5 28 -12z"/>
<path d="M5390 4698 c1 -13 18 -63 38 -112 61 -143 92 -138 156 25 37 96 36
113 -5 107 -19 -2 -28 -15 -44 -63 -12 -34 -26 -60 -34 -60 -8 0 -21 22 -30
50 -21 66 -28 75 -57 75 -18 0 -24 -5 -24 -22z"/>
<path d="M5682 4693 c-27 -23 -34 -37 -39 -81 -6 -50 -5 -53 31 -87 30 -28 46
-35 76 -35 77 0 120 43 120 120 0 34 -6 48 -34 76 -45 45 -105 48 -154 7z
m117 -57 c9 -17 11 -32 4 -52 -13 -39 -35 -51 -67 -36 -22 10 -26 18 -26 55 0
52 4 57 45 57 23 0 35 -6 44 -24z"/>
<path d="M5965 4708 c-41 -24 -54 -51 -55 -110 0 -51 3 -59 31 -82 53 -45 164
-31 146 18 -4 11 -16 13 -42 9 -60 -10 -94 42 -65 98 8 13 21 19 48 19 50 0
70 14 56 37 -13 22 -89 29 -119 11z"/>
<path d="M6168 4699 c-59 -44 -58 -147 3 -190 52 -37 180 -20 155 20 -4 6 -31
11 -61 11 -49 0 -76 12 -61 27 3 3 34 9 68 12 l63 6 -1 42 c0 22 -7 47 -15 55
-42 42 -108 50 -151 17z m96 -45 c22 -21 11 -34 -28 -34 -40 0 -48 7 -35 31
12 23 42 25 63 3z"/>
<path d="M2846 4565 c-9 -21 -22 -43 -29 -47 -23 -14 -242 -9 -287 7 -24 8
-45 13 -48 10 -12 -11 30 -53 79 -78 71 -36 113 -35 77 1 -19 19 -4 24 84 33
46 5 92 10 103 13 11 2 25 5 31 5 18 1 23 24 15 62 l-8 34 -17 -40z"/>
<path d="M2684 4402 c6 -10 63 -20 141 -24 50 -2 61 -10 90 -67 26 -50 91
-128 100 -120 2 3 -14 32 -38 65 -23 32 -51 78 -61 102 -11 24 -26 42 -35 42
-9 0 -58 3 -110 7 -64 4 -92 2 -87 -5z"/>
<path d="M6602 4318 c-6 -8 -15 -30 -18 -48 -9 -45 17 -36 29 9 10 41 5 58
-11 39z"/>
<path d="M4806 4214 c-9 -25 16 -48 43 -39 16 5 21 13 19 28 -4 28 -52 36 -62
11z"/>
<path d="M6566 4221 c-4 -7 -5 -15 -2 -18 9 -9 19 4 14 18 -4 11 -6 11 -12 0z"/>
<path d="M3048 4144 c9 -13 20 -24 24 -24 4 0 19 -11 34 -25 28 -26 44 -32 44
-16 0 5 -27 27 -60 49 -48 32 -56 35 -42 16z"/>
<path d="M6511 4103 c-37 -73 -64 -103 -122 -136 -56 -33 -90 -67 -67 -67 13
0 46 21 85 55 6 5 30 21 53 35 23 14 50 41 60 60 19 38 36 110 26 110 -3 0
-19 -26 -35 -57z"/>
<path d="M4346 4109 c-14 -11 -26 -31 -26 -43 0 -25 38 -66 61 -66 19 -1 49
-24 49 -39 0 -7 -19 -11 -49 -11 -53 0 -70 -12 -51 -35 8 -10 31 -15 67 -15
44 0 58 5 78 25 43 42 29 77 -43 114 -54 28 -55 45 -2 38 28 -3 43 -1 52 10
33 40 -87 60 -136 22z"/>
<path d="M4591 4116 c-33 -18 -50 -53 -51 -104 0 -54 12 -77 50 -97 35 -18
121 -20 138 -3 26 26 13 37 -50 40 -48 2 -63 7 -63 18 0 11 15 16 63 18 71 3
78 11 68 68 -12 61 -95 93 -155 60z m88 -55 c13 -24 5 -31 -36 -31 -25 0 -33
4 -33 18 0 10 3 22 7 25 13 14 53 6 62 -12z"/>
<path d="M4808 4058 c-1 -40 -3 -99 -3 -131 -1 -60 -8 -73 -40 -79 -12 -2 -20
-11 -20 -23 0 -16 8 -21 40 -23 32 -2 45 2 63 21 22 23 22 31 20 163 l-3 139
-27 3 -28 3 -2 -73z"/>
<path d="M4968 4119 c-36 -20 -21 -39 31 -39 28 0 52 -4 55 -9 6 -9 -26 -21
-60 -21 -38 0 -74 -37 -74 -76 0 -61 66 -95 120 -62 15 9 24 9 43 -1 42 -22
49 -8 45 91 -4 81 -6 92 -28 109 -28 21 -103 25 -132 8z m92 -127 c0 -24 -19
-42 -46 -42 -28 0 -38 25 -18 45 22 22 64 20 64 -3z"/>
<path d="M3170 4064 c0 -9 35 -39 88 -76 23 -16 42 -32 42 -37 0 -4 12 -14 28
-22 15 -7 38 -21 51 -31 13 -10 31 -18 40 -17 11 0 9 4 -6 11 -13 6 -23 15
-23 20 0 4 -5 8 -11 8 -6 0 -17 6 -24 13 -33 29 -45 37 -55 37 -5 0 -10 4 -10
10 0 5 -27 28 -60 50 -33 22 -60 38 -60 34z"/>
<path d="M6245 3879 c-12 -19 3 -22 27 -5 l22 16 -21 0 c-12 0 -25 -5 -28 -11z"/>
<path d="M6171 3842 c-14 -9 -38 -21 -55 -27 -16 -5 -31 -16 -34 -23 -3 -10 0
-11 14 -3 11 5 40 17 66 27 53 19 84 44 52 43 -11 0 -30 -8 -43 -17z"/>
<path d="M3520 3840 c20 -13 43 -13 35 0 -3 6 -16 10 -28 10 -18 0 -19 -2 -7
-10z"/>
<path d="M3590 3821 c0 -3 10 -11 23 -16 34 -15 32 -47 -8 -109 -19 -31 -31
-56 -25 -56 5 0 22 19 37 43 15 23 37 53 48 67 29 33 38 60 22 65 -26 8 -97
13 -97 6z"/>
<path d="M6005 3764 c-33 -12 -83 -23 -111 -23 -33 -1 -56 -6 -64 -16 -7 -9
-11 -17 -9 -19 2 -1 29 -19 59 -39 64 -42 99 -77 132 -132 21 -37 23 -53 25
-190 2 -139 -9 -230 -30 -251 -10 -10 -9 -64 1 -64 27 0 56 202 50 348 -4 101
-9 125 -32 175 -17 35 -42 67 -64 84 -78 57 -75 86 7 97 32 4 61 16 78 31 33
29 34 29 -42 -1z"/>
<path d="M3654 3625 c-8 -21 4 -35 31 -35 28 0 38 12 29 34 -8 20 -53 21 -60
1z"/>
<path d="M4096 3621 c-9 -10 -21 -35 -27 -55 -5 -20 -14 -36 -19 -36 -16 0
-11 -37 5 -44 12 -4 15 -24 15 -91 l0 -86 33 3 32 3 5 85 c5 78 7 85 27 88 39
6 38 46 -2 53 -12 3 -20 12 -20 24 0 12 8 21 20 23 11 2 28 11 37 19 25 22 27
11 30 -152 l3 -140 25 0 25 0 5 137 c7 193 12 183 -92 185 -72 2 -88 0 -102
-16z"/>
<path d="M5387 3633 c-4 -3 -7 -15 -7 -25 0 -13 8 -18 29 -18 28 0 47 22 35
41 -6 10 -47 12 -57 2z"/>
<path d="M3538 3613 c-27 -33 -70 -130 -66 -149 4 -14 13 -2 32 41 15 32 36
71 47 86 10 15 19 30 19 33 0 12 -17 6 -32 -11z"/>
<path d="M3654 3527 c-2 -7 -3 -58 -2 -113 l3 -99 28 -3 27 -3 0 115 0 116
-25 0 c-14 0 -28 -6 -31 -13z"/>
<path d="M3784 3527 c-2 -7 -3 -58 -2 -113 3 -98 3 -99 28 -99 24 0 25 3 30
73 4 58 9 77 24 88 45 33 68 7 71 -84 2 -37 3 -71 4 -75 1 -5 13 -7 29 -5 l27
3 0 93 c0 87 -2 95 -24 113 -25 20 -86 26 -96 9 -3 -5 -15 -10 -26 -10 -10 0
-19 5 -19 10 0 15 -40 12 -46 -3z"/>
<path d="M4358 3523 c-3 -10 -3 -52 -1 -93 4 -58 9 -80 26 -97 24 -27 73 -30
103 -9 16 13 21 12 36 -1 36 -32 46 -11 50 97 2 55 2 105 0 110 -2 6 -16 10
-32 10 -28 0 -28 0 -32 -76 -3 -60 -7 -79 -23 -90 -22 -16 -25 -17 -45 -4 -10
6 -17 33 -20 87 -5 75 -6 78 -31 81 -19 2 -28 -2 -31 -15z"/>
<path d="M4651 3511 c-27 -25 -31 -36 -31 -79 0 -28 3 -58 6 -67 18 -47 163
-75 184 -36 15 30 14 31 -42 31 -103 0 -105 37 -3 42 l60 3 3 38 c7 87 -109
132 -177 68z m109 -36 c16 -20 4 -35 -28 -35 -41 0 -59 15 -43 34 17 20 55 21
71 1z"/>
<path d="M4890 3530 c-1 -5 -1 -53 -1 -105 0 -52 0 -100 1 -106 0 -6 12 -9 28
-7 26 3 27 5 32 75 6 87 24 113 64 95 23 -10 25 -17 28 -89 3 -77 3 -78 31
-81 l27 -3 0 95 c0 83 -3 99 -20 116 -23 23 -79 27 -110 8 -15 -10 -22 -10
-32 0 -14 14 -48 16 -48 2z"/>
<path d="M5198 3523 c-43 -27 -59 -86 -42 -150 18 -66 174 -87 174 -23 0 16
-7 19 -44 18 -57 -1 -66 6 -66 50 0 54 13 67 62 67 39 0 43 2 43 25 0 23 -4
25 -50 27 -33 2 -59 -3 -77 -14z"/>
<path d="M5385 3527 c-3 -7 -4 -58 -3 -113 l3 -99 30 0 30 0 0 110 0 110 -28
3 c-16 2 -29 -2 -32 -11z"/>
<path d="M5765 3374 c-19 -19 -16 -43 7 -57 20 -13 48 6 48 34 0 28 -35 43
-55 23z"/>
<path d="M5517 3373 c-16 -15 -6 -52 15 -59 28 -9 52 20 37 47 -10 19 -39 25
-52 12z"/>
<path d="M5635 3360 c-7 -23 10 -50 30 -50 20 0 37 27 30 50 -4 13 -15 20 -30
20 -15 0 -26 -7 -30 -20z"/>
<path d="M290 2791 c-6 -11 -10 -85 -9 -173 0 -87 4 -144 8 -133 8 19 22 325
15 325 -2 0 -8 -9 -14 -19z"/>
<path d="M4760 2567 c0 -70 3 -127 8 -127 8 0 5 240 -3 248 -3 3 -5 -52 -5
-121z"/>
<path d="M3088 2659 c-16 -9 -18 -29 -18 -187 0 -97 4 -183 9 -190 4 -7 23
-16 41 -18 21 -4 30 -2 25 5 -3 6 -12 11 -20 11 -24 0 -35 61 -35 197 0 128 1
135 24 158 32 32 15 48 -26 24z"/>
<path d="M3165 2660 c-3 -5 1 -10 10 -10 9 0 13 5 10 10 -3 6 -8 10 -10 10 -2
0 -7 -4 -10 -10z"/>
<path d="M3205 2660 c-4 -6 5 -10 20 -10 14 0 28 -7 32 -15 5 -14 8 -14 29 0
32 21 71 19 84 -4 5 -11 10 -84 10 -166 0 -82 -5 -155 -10 -166 -14 -25 -52
-24 -75 1 -17 19 -19 36 -16 149 1 82 -1 131 -8 135 -17 11 -71 -23 -71 -43 0
-10 11 -26 25 -35 14 -9 25 -25 25 -36 0 -12 -10 -25 -25 -32 -22 -10 -25 -17
-25 -68 0 -44 -4 -61 -20 -75 -23 -21 -26 -35 -7 -35 30 0 49 26 51 71 1 57
18 57 28 -1 4 -25 15 -51 25 -57 23 -18 508 -18 567 -1 22 6 42 13 44 14 2 1
-6 20 -17 43 -30 59 -32 209 -3 271 l21 45 -27 6 c-15 4 -31 7 -37 9 -5 1 -21
1 -35 0 -17 -2 -20 -4 -8 -7 28 -7 36 -60 34 -205 -3 -149 -9 -168 -56 -168
-32 0 -50 32 -50 90 0 22 -4 40 -10 40 -5 0 -10 -25 -10 -55 0 -43 -4 -56 -19
-65 -28 -14 -52 -12 -72 6 -16 15 -20 15 -41 0 -27 -19 -123 -22 -135 -3 -4 6
-9 77 -11 156 -4 157 5 201 41 201 11 0 17 3 14 7 -11 10 -256 13 -262 3z"/>
<path d="M3497 2664 c-3 -4 -2 -15 3 -25 6 -10 12 -73 15 -141 5 -113 7 -124
27 -140 13 -10 28 -16 33 -14 6 1 10 56 10 138 0 149 6 168 56 168 33 0 49
-23 49 -69 0 -17 5 -31 10 -31 6 0 10 16 10 35 0 22 7 41 21 54 13 12 17 21
10 25 -16 10 -142 -1 -154 -13 -16 -16 -42 -14 -57 4 -13 16 -23 19 -33 9z"/>
<path d="M3920 2660 c-21 -7 -19 -8 18 -9 23 -1 42 4 42 9 0 12 -24 12 -60 0z"/>
<path d="M4165 2663 c-11 -3 -24 -9 -30 -13 -22 -16 -61 -18 -79 -4 -11 8 -29
14 -40 14 -20 -1 -19 -2 3 -14 41 -22 50 -53 51 -161 0 -170 -21 -208 -116
-208 -34 0 -50 -3 -42 -8 22 -14 102 -10 126 6 19 14 24 14 51 0 31 -16 98
-20 117 -7 6 4 14 24 18 44 4 21 16 44 28 52 21 15 21 15 -6 22 -44 11 -58 -1
-50 -41 5 -29 3 -39 -12 -50 -26 -20 -50 -18 -59 3 -4 9 -8 48 -9 85 -3 80 10
102 56 93 53 -11 68 10 52 72 l-7 23 -22 -21 c-46 -43 -99 -8 -75 49 15 38 53
59 98 56 17 -1 32 2 32 7 0 8 -51 9 -85 1z"/>
<path d="M4270 2661 c0 -2 12 -20 28 -40 24 -32 27 -44 25 -107 -1 -41 -8 -84
-16 -101 -14 -27 -14 -30 4 -41 12 -8 19 -23 19 -42 0 -38 32 -70 69 -70 42 0
61 10 61 31 0 23 -13 25 -30 4 -16 -19 -35 -19 -66 1 -24 16 -24 18 -8 42 14
21 15 34 5 99 -6 40 -11 100 -11 133 0 63 13 80 58 80 28 0 41 -20 51 -81 l9
-54 1 72 1 72 -100 3 c-55 2 -100 1 -100 -1z"/>
<path d="M2290 2639 c0 -11 4 -18 10 -14 5 3 7 12 3 20 -7 21 -13 19 -13 -6z"/>
<path d="M2310 2592 c0 -24 14 -44 37 -53 21 -8 23 -12 13 -24 -7 -8 -20 -15
-30 -15 -18 0 -50 -30 -50 -47 0 -6 -12 -14 -27 -17 -16 -4 -33 -17 -40 -32
-10 -22 -9 -26 12 -36 19 -8 30 -7 57 10 21 13 43 18 59 15 36 -7 46 14 19 42
-21 22 -21 24 -5 48 9 14 29 30 45 37 53 22 42 60 -14 46 -16 -4 -32 1 -50 15
-14 11 -26 16 -26 11z"/>
<path d="M3950 2470 c0 -53 4 -90 10 -90 6 0 10 37 10 90 0 53 -4 90 -10 90
-6 0 -10 -37 -10 -90z"/>
<path d="M1967 2490 c-35 -28 -63 -68 -71 -105 -7 -30 -7 -30 20 8 21 29 34
37 59 37 17 0 36 5 42 11 9 9 20 9 43 -1 17 -7 33 -10 37 -6 3 3 -1 6 -10 6
-9 0 -17 4 -17 9 0 14 -48 61 -63 61 -8 0 -26 -9 -40 -20z"/>
<path d="M4450 2470 c0 -5 5 -10 10 -10 6 0 10 5 10 10 0 6 -4 10 -10 10 -5 0
-10 -4 -10 -10z"/>
<path d="M2110 2413 c0 -5 8 -18 18 -31 16 -20 19 -21 37 -8 20 14 20 15 0 21
-11 4 -28 11 -37 16 -10 5 -18 6 -18 2z"/>
<path d="M4435 2389 c-4 -5 -1 -24 6 -41 12 -28 13 -29 20 -10 14 37 -8 80
-26 51z"/>
<path d="M206 2320 c-17 -18 -14 -46 5 -35 5 4 9 1 9 -6 0 -7 3 -10 6 -6 8 8
34 -18 35 -35 0 -7 4 -4 9 7 5 14 2 26 -11 41 -11 11 -19 28 -19 37 0 22 -10
21 -34 -3z"/>
<path d="M1595 2330 c-3 -5 1 -10 9 -10 8 0 18 5 21 10 3 6 -1 10 -9 10 -8 0
-18 -4 -21 -10z"/>
<path d="M1700 2281 c0 -6 5 -13 10 -16 6 -3 10 1 10 9 0 9 -4 16 -10 16 -5 0
-10 -4 -10 -9z"/>
<path d="M1727 2234 c-4 -4 -7 -22 -7 -41 0 -44 26 -55 52 -24 23 30 23 41 -2
41 -10 0 -23 7 -28 15 -4 9 -11 12 -15 9z"/>
<path d="M5557 2204 c-9 -10 12 -34 29 -34 8 0 15 -4 15 -10 1 -5 3 -14 4 -20
1 -5 3 -44 4 -85 1 -68 3 -75 21 -75 18 0 20 7 20 83 0 89 5 103 35 108 11 3
20 11 20 19 0 12 -16 16 -70 18 -39 1 -74 0 -78 -4z"/>
<path d="M6195 2198 c-2 -7 -5 -26 -7 -43 -2 -23 -7 -29 -22 -27 -48 9 -86
-26 -86 -77 0 -46 75 -94 95 -61 5 8 11 7 21 -1 27 -22 35 5 32 111 -2 72 -7
105 -15 108 -7 2 -15 -2 -18 -10z m-7 -141 c4 -44 -18 -59 -48 -32 -26 23 -25
40 2 59 31 22 42 15 46 -27z"/>
<path d="M254 2174 c-4 -14 -2 -30 5 -37 8 -8 11 -1 11 26 0 43 -7 48 -16 11z"/>
<path d="M2037 2128 c6 -44 -9 -68 -43 -68 -33 0 -31 -28 3 -41 37 -14 43 -10
64 46 26 68 25 92 -5 97 -22 5 -23 2 -19 -34z"/>
<path d="M2543 2133 c-17 -6 -17 -43 0 -43 19 0 36 20 30 36 -5 15 -10 16 -30
7z"/>
<path d="M5777 2124 c-11 -11 3 -24 26 -25 21 0 21 -1 2 -8 -11 -5 -29 -18
-39 -30 -38 -42 16 -107 59 -71 10 8 19 8 33 1 27 -15 32 -6 32 60 0 47 -4 60
-19 69 -22 11 -84 14 -94 4z m67 -82 c9 -14 -12 -35 -28 -29 -23 9 -20 37 3
37 11 0 22 -4 25 -8z"/>
<path d="M5987 2123 l-38 -4 3 -67 c2 -54 6 -67 21 -70 14 -3 17 4 17 37 0 39
5 48 44 75 17 12 15 39 -2 34 -4 -1 -24 -3 -45 -5z"/>
<path d="M6316 2117 c-9 -7 -20 -31 -23 -53 -5 -36 -2 -43 23 -63 19 -15 39
-21 63 -19 49 4 52 26 4 30 -56 4 -58 33 -2 41 58 8 68 21 39 52 -26 28 -75
34 -104 12z m64 -21 c0 -11 -19 -15 -25 -6 -3 5 1 10 9 10 9 0 16 -2 16 -4z"/>
<path d="M1541 2031 c-1 -27 2 -32 11 -23 8 8 8 17 0 34 -10 22 -11 21 -11
-11z"/>
<path d="M241 1828 c0 -9 -4 -25 -7 -35 -5 -17 -5 -17 6 0 6 10 9 25 7 35 -4
15 -5 15 -6 0z"/>
<path d="M1924 1825 c-3 -8 -2 -27 3 -42 l10 -28 17 28 c10 15 16 34 12 42 -7
19 -35 19 -42 0z"/>
<path d="M1511 1734 c0 -11 3 -14 6 -6 3 7 2 16 -1 19 -3 4 -6 -2 -5 -13z"/>
<path d="M5555 1738 c-2 -7 -5 -26 -7 -43 -2 -23 -7 -29 -22 -27 -35 6 -63 -8
-76 -37 -15 -36 -5 -88 19 -101 19 -10 99 -9 116 2 15 9 3 210 -12 216 -7 2
-15 -2 -18 -10z m-7 -135 c2 -18 -3 -35 -13 -43 -14 -11 -19 -10 -35 6 -31 31
-8 78 35 70 6 -2 11 -16 13 -33z"/>
<path d="M6353 1734 c-7 -19 2 -28 22 -21 19 8 19 23 0 31 -9 3 -18 -1 -22
-10z"/>
<path d="M1895 1727 c-11 -7 -22 -13 -23 -14 -7 -3 10 -43 18 -43 5 0 12 10
16 23 8 23 13 47 11 46 -1 0 -11 -6 -22 -12z"/>
<path d="M212 1718 c-16 -21 -24 -58 -13 -58 6 0 11 1 11 3 0 1 4 17 9 35 10
35 9 39 -7 20z"/>
<path d="M5672 1650 c-32 -31 -30 -92 4 -114 27 -18 94 -19 95 -1 0 6 -15 12
-33 15 -21 3 -34 11 -36 23 -3 14 4 17 36 17 54 0 68 19 41 54 -26 33 -75 35
-107 6z m65 -21 c-14 -8 -22 -8 -30 0 -8 8 -3 11 19 11 25 -1 27 -2 11 -11z"/>
<path d="M5844 1661 c-2 -2 -4 -35 -4 -73 0 -61 2 -68 20 -68 17 0 20 7 20 43
1 91 57 105 62 15 3 -45 6 -53 23 -53 17 0 21 8 23 45 4 56 17 73 43 59 14 -7
19 -21 19 -55 0 -47 23 -71 41 -43 11 17 2 94 -14 120 -13 21 -57 25 -75 7 -9
-9 -17 -9 -34 0 -21 11 -113 13 -124 3z"/>
<path d="M6180 1655 c0 -10 11 -15 33 -16 31 -1 31 -2 5 -8 -37 -8 -81 -49
-74 -67 3 -9 6 -19 6 -24 0 -15 34 -21 87 -14 l53 6 0 53 c0 38 -5 56 -18 68
-24 22 -92 23 -92 2z m60 -85 c0 -13 -7 -20 -19 -20 -22 0 -35 15 -26 30 12
19 45 11 45 -10z"/>
<path d="M6357 1664 c-4 -4 -7 -38 -7 -76 0 -61 2 -69 18 -66 14 3 17 15 17
72 0 64 -10 88 -28 70z"/>
<path d="M6446 1651 c-21 -24 -12 -47 25 -60 42 -14 38 -41 -6 -41 -26 0 -33
-3 -29 -15 4 -10 20 -15 50 -15 33 0 46 5 58 22 22 31 21 33 -19 58 -41 25
-45 40 -10 40 16 0 25 6 25 15 0 23 -72 20 -94 -4z"/>
<path d="M75 1621 c-3 -6 3 -18 13 -28 23 -21 42 -56 47 -85 6 -30 26 -49 49
-47 41 3 56 -1 56 -16 0 -8 5 -15 11 -15 7 0 9 9 5 23 -3 12 -6 25 -6 30 0 4
-11 12 -25 17 -19 7 -25 17 -25 39 0 23 -6 31 -29 39 -16 6 -39 20 -50 31 -23
23 -37 26 -46 12z"/>
<path d="M1530 1547 c0 -7 8 -29 18 -48 l18 -36 12 36 c9 31 9 38 -5 49 -22
16 -43 15 -43 -1z"/>
<path d="M1584 1435 c4 -10 -3 -17 -22 -20 -15 -4 -34 -11 -42 -16 -8 -5 -27
-17 -42 -27 -16 -9 -28 -20 -28 -24 0 -15 38 -8 63 12 28 22 49 25 78 10 14
-8 27 -6 50 5 38 20 34 34 -20 57 -36 15 -42 16 -37 3z"/>
<path d="M3775 1399 c-65 -60 -98 -131 -125 -268 -6 -30 -21 -66 -35 -83 -28
-33 -33 -76 -10 -84 8 -4 15 -14 15 -24 0 -10 -7 -23 -15 -30 -20 -17 -19 -84
1 -166 13 -50 24 -71 46 -87 42 -31 58 -71 58 -148 0 -37 4 -78 9 -91 15 -37
63 -84 107 -106 22 -11 46 -27 53 -36 19 -23 5 -52 -32 -66 -124 -46 -127 -50
-127 -144 l0 -66 355 0 355 0 0 38 c0 20 5 57 11 81 13 60 5 79 -42 91 -21 6
-50 22 -65 36 -24 25 -25 30 -18 93 4 36 13 83 20 105 8 21 14 50 14 65 1 14
7 44 15 66 13 37 13 41 -6 58 -22 20 -21 42 2 42 9 0 13 -9 12 -22 -3 -29 1
-29 27 -1 26 28 25 42 -2 78 -20 28 -21 35 -12 112 8 67 8 90 -4 118 -8 19
-18 87 -22 150 -8 122 -26 180 -79 249 -28 37 -96 84 -113 79 -7 -3 -16 -22
-23 -44 -10 -35 -14 -39 -47 -42 -35 -3 -38 0 -54 35 -9 21 -16 41 -16 46 1 4
-4 7 -11 7 -21 0 -45 -32 -49 -65 -3 -28 -6 -30 -43 -30 -38 0 -40 2 -56 45
-9 25 -24 46 -32 48 -9 2 -37 -16 -62 -39z m483 -416 c5 -31 -19 -39 -143 -48
-136 -10 -150 -10 -253 0 -86 8 -104 17 -81 41 11 10 27 12 69 5 92 -15 232
-11 307 9 82 22 97 21 101 -7z m-230 -203 c30 -79 62 -130 90 -142 15 -6 61
-10 102 -10 112 1 129 -9 96 -61 -9 -14 -16 -67 -19 -145 l-6 -124 -36 -44
c-50 -61 -86 -78 -167 -79 -53 0 -77 5 -112 25 -70 37 -70 75 -1 64 29 -5 29
-5 -8 15 -21 11 -51 23 -68 26 -17 4 -57 24 -89 46 -55 36 -59 42 -68 91 -6
29 -13 76 -16 105 -5 56 3 70 44 74 64 6 74 -5 41 -48 -11 -13 -17 -31 -15
-38 3 -8 37 -24 76 -36 59 -19 75 -21 102 -11 18 7 47 12 64 12 23 0 32 5 33
18 3 35 -4 48 -45 86 -33 31 -51 40 -88 44 -27 2 -48 6 -48 9 0 2 11 25 24 51
13 26 27 58 31 72 20 66 59 66 83 0z m-15 -189 c26 -10 39 -41 27 -61 -11 -19
-178 -6 -198 14 -19 18 -3 42 31 49 42 8 116 7 140 -2z"/>
<path d="M260 1415 c0 -12 37 -75 45 -75 3 0 5 6 5 14 0 17 -49 77 -50 61z"/>
<path d="M1395 1346 c-18 -13 -18 -14 8 -9 15 3 30 9 33 14 8 14 -20 10 -41
-5z"/>
<path d="M336 1315 c15 -23 63 -38 49 -15 -3 6 -12 10 -20 10 -7 0 -15 7 -19
15 -3 8 -10 15 -16 15 -6 0 -3 -11 6 -25z"/>
<path d="M1255 1285 c-44 -19 -86 -34 -93 -35 -7 0 -28 -11 -46 -25 -18 -14
-38 -25 -43 -25 -23 0 -20 -28 4 -39 28 -13 42 -6 76 37 31 37 55 46 81 28 22
-14 24 -13 47 24 13 20 29 36 35 33 5 -2 19 5 29 17 26 29 5 26 -90 -15z"/>
<path d="M5510 1295 c0 -8 8 -15 18 -15 10 0 23 -5 30 -12 8 -8 15 -8 27 2 21
17 19 33 -4 25 -11 -3 -22 -1 -26 5 -10 16 -45 12 -45 -5z"/>
<path d="M5860 1241 c0 -66 11 -94 30 -75 5 5 10 38 12 74 3 61 2 65 -19 68
-22 3 -23 0 -23 -67z"/>
<path d="M410 1260 c0 -5 12 -10 28 -10 21 0 24 2 12 10 -20 13 -40 13 -40 0z"/>
<path d="M1880 1261 c0 -5 5 -13 10 -16 6 -3 10 -2 10 4 0 5 -4 13 -10 16 -5
3 -10 2 -10 -4z"/>
<path d="M6049 1245 c-22 -22 -10 -132 16 -151 22 -16 34 -17 55 -4 13 8 12
12 -7 25 -27 19 -31 66 -8 85 20 16 19 30 -2 46 -23 17 -35 17 -54 -1z"/>
<path d="M5236 1231 c-4 -6 -19 -8 -35 -5 -25 5 -29 3 -34 -23 -3 -16 -3 -48
0 -71 4 -32 10 -42 24 -42 15 0 19 8 19 38 0 46 20 78 44 69 12 -5 16 -19 16
-57 0 -47 2 -50 25 -50 23 0 25 4 25 43 0 55 13 76 37 61 12 -7 19 -26 21 -58
3 -38 7 -46 23 -46 16 0 19 7 19 55 0 65 -26 102 -63 90 -28 -10 -66 -10 -93
0 -12 4 -25 2 -28 -4z"/>
<path d="M5511 1231 c-17 -11 -6 -31 17 -32 14 0 14 -2 2 -6 -26 -9 -60 -46
-60 -63 0 -35 59 -66 75 -39 4 6 19 7 36 4 32 -7 32 -8 29 65 -2 64 -52 101
-99 71z m53 -80 c11 -17 -5 -39 -25 -34 -29 8 -23 43 7 43 7 0 15 -4 18 -9z"/>
<path d="M5689 1211 c-16 -16 -29 -39 -29 -50 0 -47 82 -97 120 -72 19 13 9
22 -32 30 -51 11 -43 35 14 39 65 4 72 28 18 65 -35 24 -57 21 -91 -12z m71
-11 c0 -5 -9 -10 -21 -10 -11 0 -17 5 -14 10 3 6 13 10 21 10 8 0 14 -4 14
-10z"/>
<path d="M6351 1231 c-18 -12 -5 -31 22 -32 20 -1 21 -2 2 -6 -26 -6 -65 -42
-65 -60 0 -25 40 -55 63 -48 12 4 36 8 52 8 25 2 31 7 33 31 6 53 -7 92 -34
104 -30 14 -54 15 -73 3z m57 -94 c3 -12 -3 -17 -22 -17 -25 0 -35 18 -19 34
12 12 38 2 41 -17z"/>
<path d="M6524 1217 c-23 -20 -25 -26 -15 -44 16 -30 14 -60 -6 -94 -16 -27
-16 -29 1 -48 24 -26 65 -32 103 -14 48 22 58 39 45 68 -8 18 -19 25 -40 25
-38 0 -47 11 -20 24 22 11 70 91 60 100 -3 4 -27 6 -53 6 -36 0 -55 -6 -75
-23z m60 -13 c30 -12 12 -44 -25 -44 -10 0 -12 33 -2 43 8 8 8 8 27 1z m26
-138 c0 -30 -48 -42 -72 -18 -17 17 1 32 38 32 22 0 34 -5 34 -14z"/>
<path d="M6727 1233 c-4 -3 -7 -19 -7 -34 0 -18 -7 -32 -20 -39 -26 -14 -25
-35 1 -61 16 -16 27 -19 47 -13 15 4 39 7 55 6 26 -1 27 0 27 53 0 46 -4 56
-26 74 -26 21 -64 28 -77 14z m36 -40 c-7 -2 -19 -2 -25 0 -7 3 -2 5 12 5 14
0 19 -2 13 -5z m17 -52 c0 -24 -25 -34 -40 -16 -15 18 -5 35 21 35 12 0 19 -7
19 -19z"/>
<path d="M6174 1215 c-3 -7 -4 -37 -2 -66 3 -46 6 -54 23 -54 13 0 20 7 21 20
2 59 5 66 29 75 14 5 25 16 25 24 0 18 -90 19 -96 1z"/>
<path d="M520 1210 c0 -6 7 -10 15 -10 8 0 15 2 15 4 0 2 -7 6 -15 10 -8 3
-15 1 -15 -4z"/>
<path d="M700 1149 c0 -11 63 -14 189 -11 35 1 62 4 59 7 -9 9 -248 13 -248 4z"/>
<path d="M2430 1135 c-10 -12 -10 -15 4 -15 8 0 23 -12 33 -26 l16 -26 14 26
c8 14 18 26 23 26 6 0 10 8 10 18 0 10 -3 13 -8 6 -8 -13 -42 -15 -42 -2 0 14
-37 9 -50 -7z"/>
<path d="M6960 1140 c0 -5 5 -10 11 -10 5 0 7 5 4 10 -3 6 -8 10 -11 10 -2 0
-4 -4 -4 -10z"/>
<path d="M5865 1120 c-8 -14 3 -30 21 -30 8 0 14 9 14 20 0 21 -24 28 -35 10z"/>
<path d="M2383 1074 c-8 -22 15 -44 26 -25 10 16 4 41 -10 41 -5 0 -12 -7 -16
-16z"/>
<path d="M2065 1030 c4 -6 11 -8 16 -5 14 9 11 15 -7 15 -8 0 -12 -5 -9 -10z"/>
<path d="M1212 880 c0 -14 2 -19 5 -12 2 6 2 18 0 25 -3 6 -5 1 -5 -13z"/>
<path d="M2112 870 c-19 -30 -15 -40 17 -40 32 0 48 24 30 46 -16 19 -32 17
-47 -6z"/>
<path d="M4998 831 c-1 -6 -16 -12 -32 -14 -17 -2 -32 -9 -34 -15 -5 -15 14
-16 23 -2 3 6 17 10 31 10 15 0 24 6 24 15 0 17 -7 20 -12 6z"/>
<path d="M5713 784 c-2 -6 -3 -38 -1 -70 2 -45 7 -60 19 -62 13 -2 17 8 21 49
5 48 21 73 43 66 6 -2 12 -28 15 -58 4 -47 8 -54 28 -57 20 -3 22 1 22 42 0
89 56 97 62 8 3 -39 6 -47 23 -47 31 0 34 81 5 118 -22 27 -63 36 -75 17 -4
-6 -16 -8 -28 -3 -34 11 -129 9 -134 -3z"/>
<path d="M6042 777 c-51 -54 -12 -127 67 -127 52 0 52 22 0 30 -22 3 -35 11
-37 23 -3 14 4 17 43 17 56 0 68 20 35 56 -31 32 -79 32 -108 1z m68 -17 c0
-5 -7 -10 -15 -10 -8 0 -15 5 -15 10 0 6 7 10 15 10 8 0 15 -4 15 -10z"/>
<path d="M6210 742 c0 -77 15 -91 90 -89 l55 2 0 70 c0 58 -3 70 -17 73 -15 3
-18 -4 -18 -42 0 -91 -66 -99 -72 -9 -2 36 -7 49 -20 51 -16 3 -18 -5 -18 -56z"/>
<path d="M3132 723 c-10 -4 -10 -8 -1 -19 17 -20 39 -17 39 6 0 20 -12 24 -38
13z"/>
<path d="M1120 691 c0 -6 5 -13 10 -16 6 -3 10 1 10 9 0 9 -4 16 -10 16 -5 0
-10 -4 -10 -9z"/>
<path d="M3191 586 c-8 -10 -9 -16 -1 -21 13 -8 30 3 30 21 0 18 -14 18 -29 0z"/>
<path d="M1780 559 c0 -13 20 -50 34 -64 14 -13 84 -11 98 3 15 15 0 34 -25
31 -12 -2 -38 7 -57 19 -39 25 -50 27 -50 11z"/>
<path d="M1171 430 c0 -8 4 -24 9 -35 l9 -20 0 20 c0 11 -4 27 -9 35 -9 13
-10 13 -9 0z"/>
<path d="M5716 413 c-3 -4 -6 -55 -6 -115 0 -101 1 -108 20 -108 19 0 20 7 20
109 0 84 -3 110 -14 114 -8 3 -17 3 -20 0z"/>
<path d="M5976 401 c-10 -10 -13 -22 -8 -25 12 -7 54 23 47 35 -9 14 -20 11
-39 -10z"/>
<path d="M2000 381 c0 -25 14 -41 36 -41 29 0 31 11 6 33 -20 19 -42 22 -42 8z"/>
<path d="M6557 352 c-13 -14 -15 -30 -10 -77 7 -71 16 -85 54 -85 34 0 38 19
9 38 -11 7 -20 23 -20 36 0 12 9 31 20 41 22 20 26 35 8 35 -6 0 -19 7 -28 15
-15 14 -18 13 -33 -3z"/>
<path d="M5816 344 c-10 -25 -7 -114 4 -135 8 -13 21 -19 45 -19 40 0 44 8 15
33 -28 23 -27 73 2 88 l21 11 -24 19 c-30 23 -55 24 -63 3z"/>
<path d="M5203 324 c-2 -7 -5 -38 -6 -70 -2 -49 1 -59 16 -62 13 -3 17 3 17
28 0 27 24 90 35 90 17 0 35 -38 35 -76 0 -37 3 -44 20 -44 17 0 20 7 20 43 0
29 6 49 18 60 26 24 40 8 44 -48 3 -42 6 -50 23 -50 17 0 20 8 23 48 5 79 -35
118 -88 85 -14 -9 -24 -9 -42 0 -28 14 -109 11 -115 -4z"/>
<path d="M5507 334 c-13 -13 -7 -99 8 -121 13 -18 24 -21 80 -21 l65 1 0 68
c0 48 -4 68 -14 72 -21 8 -36 -13 -36 -53 -1 -84 -51 -79 -60 6 -5 47 -23 67
-43 48z"/>
<path d="M5954 326 c-3 -7 -4 -40 -2 -72 2 -47 7 -59 21 -62 15 -3 17 6 17 72
0 62 -3 76 -15 76 -9 0 -18 -6 -21 -14z"/>
<path d="M6080 331 l-35 -6 0 -65 c0 -58 2 -65 20 -65 16 0 21 8 25 47 3 27
11 53 17 59 16 16 44 -18 42 -50 -4 -49 1 -61 21 -61 17 0 20 7 20 41 0 56 15
82 40 69 14 -7 20 -23 22 -58 3 -40 6 -47 26 -50 20 -3 22 0 22 50 0 85 -32
115 -95 86 -19 -9 -28 -9 -37 0 -13 13 -31 13 -88 3z"/>
<path d="M6375 315 c-53 -52 -16 -125 63 -125 56 0 59 27 5 32 -27 2 -39 8
-41 21 -3 14 4 17 43 17 56 0 68 20 35 56 -31 32 -73 32 -105 -1z m75 -15 c0
-5 -9 -10 -20 -10 -11 0 -20 5 -20 10 0 6 9 10 20 10 11 0 20 -4 20 -10z"/>
<path d="M6757 334 c-3 -3 -20 -6 -39 -7 l-33 -2 0 -65 c0 -58 2 -65 20 -65
16 0 21 8 23 43 3 34 8 45 26 52 24 9 39 33 29 44 -8 8 -18 8 -26 0z"/>
<path d="M6852 317 c-28 -29 -29 -87 -4 -110 11 -10 35 -17 59 -17 47 0 73 28
73 78 0 63 -85 95 -128 49z m88 -52 c0 -6 -6 -20 -14 -31 -19 -25 -50 -8 -54
30 -3 20 2 28 20 35 23 9 48 -8 48 -34z"/>
<path d="M1280 266 c0 -14 5 -28 10 -31 6 -3 10 -25 11 -48 0 -23 4 -50 8 -60
6 -15 9 -13 24 17 16 34 14 66 -3 66 -5 0 -14 16 -20 35 -14 43 -30 54 -30 21z"/>
<path d="M5036 234 c-4 -10 -1 -14 6 -12 15 5 23 28 10 28 -5 0 -13 -7 -16
-16z"/>
<path d="M1930 208 c0 -9 5 -20 10 -23 13 -8 13 5 0 25 -8 13 -10 13 -10 -2z"/>
<path d="M5021 154 c0 -11 3 -14 6 -6 3 7 2 16 -1 19 -3 4 -6 -2 -5 -13z"/>
<path d="M4586 131 c-3 -5 -12 -36 -20 -70 l-14 -61 125 0 126 0 -44 41 c-93
87 -155 119 -173 90z"/>
<path d="M6933 133 c-9 -3 -13 -27 -13 -69 0 -70 13 -79 23 -17 4 21 9 50 13
66 6 26 2 31 -23 20z"/>
<path d="M3521 85 c-17 -15 -40 -40 -52 -56 l-20 -29 71 0 71 0 -3 52 c-4 63
-20 72 -67 33z"/>
<path d="M1230 56 c-13 -41 -9 -52 15 -43 16 7 20 44 6 66 -6 10 -12 3 -21
-23z"/>
<path d="M1332 50 c0 -14 2 -19 5 -12 2 6 2 18 0 25 -3 6 -5 1 -5 -13z"/>
<path d="M1980 36 c0 -19 4 -23 20 -19 20 5 20 7 4 24 -22 24 -24 24 -24 -5z"/>
<path d="M2056 41 c-23 -25 -13 -41 25 -41 31 0 40 25 17 48 -16 16 -22 15
-42 -7z"/>
</g>
</svg>
