<?xml version="1.0" encoding="utf-8"?>
<!-- Generator: Adobe Illustrator 24.2.1, SVG Export Plug-In . SVG Version: 6.00 Build 0)  -->
<svg version="1.1" id="Camada_1" xmlns="http://www.w3.org/2000/svg" xmlns:xlink="http://www.w3.org/1999/xlink" x="0px" y="0px"
	 viewBox="0 0 192.2 63.1" style="enable-background:new 0 0 192.2 63.1;" xml:space="preserve">
<style type="text/css">
	.st0{fill-rule:evenodd;clip-rule:evenodd;fill:#228EBF;}
</style>
<g id="Camada_x0020_1_1_">
	<g id="_1812961175968">
		<g id="SA-SEL_1_">
			<path class="st0" d="M89.5,35.1L77.9,23.9v-7.1H85v7.4h5.8v-9.3c0-2-1-3.1-3.1-3.1H75.1c-2.1,0-3.1,1-3.1,3.1v9.3
				c0,1.3,0.4,2.3,1.3,3.1L85,38.6v7.7h-7.1v-8h-5.8v9.8c0,2.1,1,3.1,3.1,3.1h12.6c2.1,0,3.1-1,3.1-3.1v-9.9
				C90.8,37,90.4,35.9,89.5,35.1L89.5,35.1L89.5,35.1z"/>
			<path class="st0" d="M107.8,38.7h-5.7L105,21L107.8,38.7z M102,11.8l-7.5,39.3v0.1h5.7l1.2-7.5h7.3l1.2,7.5h5.7l-7.5-39.4
				L102,11.8L102,11.8L102,11.8z"/>
			<polygon class="st0" points="117.6,28.9 117.6,34.2 129.5,34.2 129.5,28.9 			"/>
			<path class="st0" d="M136,27.4l11.7,11.2v7.7h-7.1v-8h-5.8v9.8c0,2.1,1,3.1,3.1,3.1h12.6c2.1,0,3.1-1,3.1-3.1v-9.9
				c0-1.3-0.4-2.4-1.3-3.2l-11.7-11.1v-7.1h7.1v7.4h5.8v-9.3c0-2-1-3.1-3.1-3.1h-12.6c-2.1,0-3.1,1-3.1,3.1v9.3
				C134.8,25.5,135.2,26.6,136,27.4L136,27.4L136,27.4z"/>
			<polygon class="st0" points="157.1,11.8 157.1,51.3 173.3,51.3 173.3,46.1 162.9,46.1 162.9,33.7 171.7,33.7 171.7,28.6 
				162.9,28.6 162.9,17.1 173.1,17.1 173.1,11.8 			"/>
			<polygon class="st0" points="176.9,11.8 176.9,51.3 192.2,51.3 192.2,46 182.7,46 182.7,11.8 			"/>
		</g>
		<g id="Logo_1_">
			<path class="st0" d="M36.3,32.9l-11.9,5.9l-6.3-23.2c-4.5,3.9-7.4,9.6-7.4,15.9c0,11.6,9.6,21,21.4,21c3.8,0,7.4-1,10.5-2.7
				L36.3,32.9L36.3,32.9z"/>
			<path class="st0" d="M32,10.5c-1,0-2.1,0.1-3.1,0.2l-1.4-5.1c1.5-0.2,3-0.4,4.5-0.4c14.7,0,26.7,11.8,26.7,26.3
				c0,14.5-12,26.3-26.7,26.3S5.3,46.1,5.3,31.6c0-11.2,7.1-20.7,17.1-24.5l6.1,22.4l11.9-5.9L44,49c5.7-3.8,9.4-10.2,9.4-17.4
				C53.4,19.9,43.8,10.5,32,10.5L32,10.5z M32,0C14.3,0,0,14.1,0,31.6C0,49,14.3,63.1,32,63.1s32-14.1,32-31.5
				C64.1,14.1,49.7,0,32,0L32,0z"/>
		</g>
		<path class="st0" d="M74.6,61.1c0,0.1,0,0.3-0.1,0.3c-0.1,0.1-0.2,0.1-0.4,0.1h-1.6c-0.1,0-0.3,0-0.3-0.1
			c-0.1-0.1-0.1-0.2-0.1-0.3v-1.6h0.6v1.6h1.4v-1.5l-1.8-2.1c-0.1-0.1-0.2-0.3-0.2-0.5v-1.3c0-0.1,0-0.3,0.1-0.3
			c0.1-0.1,0.2-0.1,0.3-0.1h1.6c0.1,0,0.3,0,0.4,0.1c0.1,0.1,0.1,0.2,0.1,0.3v1.5h-0.6v-1.4h-1.4V57l1.8,2.1
			c0.1,0.1,0.2,0.3,0.2,0.5V61.1z M77.9,61.1c0,0.3-0.2,0.5-0.5,0.5h-1.3c-0.3,0-0.5-0.2-0.5-0.5v-3c0-0.3,0.2-0.5,0.5-0.5h1.3
			c0.3,0,0.5,0.2,0.5,0.5v1.4l-0.2,0.2h-1.5v1.4h1.2v-0.7h0.5V61.1L77.9,61.1z M77.3,59.3v-1.2h-1.2v1.2H77.3z M81,61.1
			c0,0.3-0.2,0.5-0.5,0.5h-1.3c-0.3,0-0.5-0.2-0.5-0.5v-3c0-0.3,0.2-0.5,0.5-0.5h1.3c0.3,0,0.5,0.2,0.5,0.5v0.8h-0.5v-0.8h-1.1v3
			h1.1v-0.9H81V61.1z M84,58.9h-0.5v-0.8l-1,0v3.5h-0.6v-4h0.6v0.1c0.2,0,0.4-0.1,0.6-0.1c0.2,0,0.4,0,0.6,0c0.3,0,0.5,0.2,0.5,0.5
			L84,58.9L84,58.9z M87,61.1c0,0.3-0.2,0.5-0.5,0.5h-1.3c-0.3,0-0.5-0.2-0.5-0.5v-3c0-0.3,0.2-0.5,0.5-0.5h1.3
			c0.3,0,0.5,0.2,0.5,0.5v1.4l-0.2,0.2h-1.5v1.4h1.2v-0.7H87V61.1L87,61.1z M86.4,59.3v-1.2h-1.2v1.2H86.4z M89.4,61.6h-0.8
			c-0.3,0-0.5-0.2-0.5-0.5v-3h-0.5v-0.5h0.5v-1.2h0.5v1.2h0.7v0.5h-0.7v3h0.7V61.6L89.4,61.6z M92.3,61.6h-0.5v-0.1
			c-0.2,0-0.4,0.1-0.7,0.1c-0.3,0-0.5,0-0.7,0c-0.3,0-0.4-0.2-0.4-0.5v-1.4c0-0.3,0.1-0.5,0.4-0.5h1.3v-1.2h-1.2v0.7h-0.5v-0.7
			c0-0.3,0.1-0.5,0.4-0.5h1.3c0.3,0,0.5,0.2,0.5,0.5V61.6L92.3,61.6z M91.8,61.1v-1.4h-1.2v1.4L91.8,61.1z M95.4,58.9h-0.5v-0.8
			l-1,0v3.5h-0.6v-4h0.6v0.1c0.2,0,0.4-0.1,0.6-0.1c0.2,0,0.4,0,0.6,0c0.3,0,0.5,0.2,0.5,0.5L95.4,58.9L95.4,58.9z M96.6,56.7h-0.6
			V56h0.6V56.7z M96.6,61.6h-0.5v-4h0.5V61.6z M99.9,61.6h-0.5v-0.1c-0.2,0-0.4,0.1-0.7,0.1c-0.3,0-0.5,0-0.7,0
			c-0.3,0-0.5-0.2-0.5-0.5v-1.4c0-0.3,0.2-0.5,0.4-0.5h1.3v-1.2h-1.2v0.7h-0.5v-0.7c0-0.3,0.1-0.5,0.4-0.5h1.3
			c0.3,0,0.5,0.2,0.5,0.5V61.6L99.9,61.6z M99.3,61.1v-1.4h-1.2v1.4L99.3,61.1z M108.1,61.1c0,0.3-0.2,0.5-0.5,0.5h-1.3
			c-0.3,0-0.5-0.2-0.5-0.5v-3c0-0.3,0.2-0.5,0.5-0.5h1.3c0.3,0,0.5,0.2,0.5,0.5v0.8h-0.5v-0.8h-1.1v3h1.1v-0.9h0.5V61.1z
			 M111.3,61.6h-0.5v-0.1c-0.2,0-0.4,0.1-0.7,0.1c-0.3,0-0.5,0-0.7,0c-0.3,0-0.5-0.2-0.5-0.5v-1.4c0-0.3,0.2-0.5,0.4-0.5h1.3v-1.2
			h-1.2v0.7H109v-0.7c0-0.3,0.1-0.5,0.4-0.5h1.3c0.3,0,0.5,0.2,0.5,0.5L111.3,61.6L111.3,61.6z M110.7,61.1v-1.4h-1.2v1.4
			L110.7,61.1z M114.5,61.6h-0.5v-0.1c-0.6,0.1-0.9,0.1-1,0.1c-0.2,0-0.4-0.1-0.6-0.2c-0.1-0.2-0.2-0.4-0.2-0.6v-2.3
			c0-0.2,0.1-0.5,0.2-0.6c0.2-0.2,0.4-0.2,0.6-0.2h0.9v-2.4h0.5V61.6L114.5,61.6z M113.9,61.1v-3h-0.8c-0.3,0-0.5,0.2-0.5,0.5v2.1
			c0,0.3,0.2,0.5,0.5,0.5C113.2,61.1,113.5,61.1,113.9,61.1L113.9,61.1z M117.6,61.1c0,0.3-0.2,0.5-0.5,0.5h-1.3
			c-0.3,0-0.5-0.2-0.5-0.5v-3c0-0.3,0.2-0.5,0.5-0.5h1.3c0.3,0,0.5,0.2,0.5,0.5v1.4l-0.2,0.2h-1.5v1.4h1.2v-0.7h0.5L117.6,61.1
			L117.6,61.1z M117.1,59.3v-1.2h-1.2v1.2H117.1z M117.5,57.3h-0.4l-0.6-0.5l-0.6,0.5h-0.3v0l0.8-0.9h0.3L117.5,57.3L117.5,57.3
			L117.5,57.3z M122.6,61.6h-0.6v-3.5l-1.2,0v3.5h-0.5v-3.5l-1.2,0v3.5h-0.6v-4h0.6v0.1c0.2,0,0.4-0.1,0.6-0.1
			c0.3,0,0.5-0.1,0.6-0.1c0.2,0,0.3,0.1,0.4,0.2c0.2,0,0.5-0.1,0.7-0.1c0.3,0,0.5-0.1,0.7-0.1c0.3,0,0.5,0.2,0.5,0.5L122.6,61.6
			L122.6,61.6z M124.1,56.7h-0.6V56h0.6V56.7z M124.1,61.6h-0.5v-4h0.5V61.6z M127.3,61.1c0,0.3-0.2,0.5-0.5,0.5h-1.3
			c-0.3,0-0.5-0.2-0.5-0.5v-3c0-0.3,0.2-0.5,0.5-0.5h1.3c0.3,0,0.5,0.2,0.5,0.5v0.8h-0.5v-0.8h-1.1v3h1.1v-0.9h0.5V61.1z
			 M130.5,61.6h-0.5v-0.1c-0.2,0-0.4,0.1-0.7,0.1c-0.3,0-0.5,0-0.7,0c-0.3,0-0.5-0.2-0.5-0.5v-1.4c0-0.3,0.2-0.5,0.4-0.5h1.3v-1.2
			h-1.2v0.7h-0.5v-0.7c0-0.3,0.1-0.5,0.4-0.5h1.3c0.3,0,0.5,0.2,0.5,0.5L130.5,61.6L130.5,61.6z M129.9,61.1v-1.4h-1.2v1.4
			L129.9,61.1z M135.3,61.6h-0.5v-0.1c-0.6,0.1-0.9,0.1-1,0.1c-0.2,0-0.4-0.1-0.6-0.2c-0.1-0.2-0.2-0.4-0.2-0.6v-2.3
			c0-0.2,0.1-0.5,0.2-0.6c0.2-0.2,0.4-0.2,0.6-0.2h0.9v-2.4h0.5V61.6L135.3,61.6z M134.8,61.1v-3H134c-0.3,0-0.5,0.2-0.5,0.5v2.1
			c0,0.3,0.2,0.5,0.5,0.5C134.1,61.1,134.3,61.1,134.8,61.1L134.8,61.1z M138.5,61.6H138v-0.1c-0.2,0-0.4,0.1-0.7,0.1
			c-0.3,0-0.5,0-0.7,0c-0.3,0-0.4-0.2-0.4-0.5v-1.4c0-0.3,0.1-0.5,0.4-0.5h1.3v-1.2h-1.2v0.7h-0.5v-0.7c0-0.3,0.1-0.5,0.4-0.5h1.3
			c0.3,0,0.5,0.2,0.5,0.5L138.5,61.6L138.5,61.6z M138,61.1v-1.4h-1.2v1.4L138,61.1z M143.3,61.6h-2.1v-6.4h2.1v0.5h-1.5v2.4h1.4
			v0.5h-1.4v2.5h1.6V61.6L143.3,61.6z M146.5,61.6h-0.6v-3.5l-1.2,0v3.5h-0.6v-4h0.6v0.1c0.2,0,0.4-0.1,0.7-0.1c0.3,0,0.5,0,0.7,0
			c0.3,0,0.5,0.2,0.5,0.5L146.5,61.6L146.5,61.6z M149.6,62.6c0,0.3-0.2,0.5-0.5,0.5h-1.3c-0.3,0-0.5-0.2-0.5-0.5c0-0.1,0-0.1,0-0.3
			c0-0.1,0-0.2,0-0.2h0.5v0.5h1.2v-1h-0.9c-0.2,0-0.5-0.1-0.6-0.2c-0.2-0.2-0.2-0.4-0.2-0.6v-2.3c0-0.2,0.1-0.4,0.2-0.6
			c0.1-0.2,0.3-0.2,0.6-0.2c0.1,0,0.4,0,1,0.1v-0.1h0.5V62.6L149.6,62.6z M149.1,61.1v-3c-0.4,0-0.7,0-0.8,0c-0.3,0-0.5,0.2-0.5,0.5
			v2.1c0,0.3,0.2,0.5,0.5,0.5H149.1z M152.8,61.1c0,0.3-0.2,0.5-0.5,0.5H151c-0.3,0-0.5-0.2-0.5-0.5v-3c0-0.3,0.2-0.5,0.5-0.5h1.3
			c0.3,0,0.5,0.2,0.5,0.5v1.4l-0.2,0.2h-1.5v1.4h1.2v-0.7h0.5V61.1L152.8,61.1z M152.3,59.3v-1.2h-1.2v1.2H152.3z M156.1,61.6h-0.6
			v-3.5l-1.2,0v3.5h-0.6v-4h0.6v0.1c0.2,0,0.4-0.1,0.7-0.1c0.3,0,0.5,0,0.7,0c0.3,0,0.5,0.2,0.5,0.5L156.1,61.6L156.1,61.6z
			 M159.3,61.6h-0.6v-3.5l-1.2,0v3.5H157v-6.4h0.6v2.5c0.2,0,0.4-0.1,0.6-0.1c0.3,0,0.5-0.1,0.6-0.1c0.3,0,0.5,0.2,0.5,0.5V61.6
			L159.3,61.6z M162.5,61.6h-0.5v-0.1c-0.2,0-0.4,0.1-0.7,0.1c-0.3,0-0.5,0-0.7,0c-0.3,0-0.5-0.2-0.5-0.5v-1.4
			c0-0.3,0.2-0.5,0.4-0.5h1.3v-1.2h-1.2v0.7h-0.5v-0.7c0-0.3,0.1-0.5,0.4-0.5h1.3c0.3,0,0.5,0.2,0.5,0.5L162.5,61.6L162.5,61.6z
			 M161.9,61.1v-1.4h-1.2v1.4L161.9,61.1z M165.5,58.9h-0.5v-0.8l-1,0v3.5h-0.6v-4h0.6v0.1c0.2,0,0.4-0.1,0.6-0.1c0.2,0,0.4,0,0.6,0
			c0.3,0,0.5,0.2,0.5,0.5L165.5,58.9L165.5,58.9z M166.8,56.7h-0.6V56h0.6V56.7z M166.8,61.6h-0.5v-4h0.5V61.6z M170,61.6h-0.5v-0.1
			c-0.2,0-0.4,0.1-0.7,0.1c-0.3,0-0.5,0-0.7,0c-0.3,0-0.5-0.2-0.5-0.5v-1.4c0-0.3,0.2-0.5,0.4-0.5h1.3v-1.2h-1.2v0.7h-0.5v-0.7
			c0-0.3,0.1-0.5,0.4-0.5h1.3c0.3,0,0.5,0.2,0.5,0.5V61.6L170,61.6z M169.4,61.1v-1.4h-1.2v1.4L169.4,61.1z M174.8,61.6h-2.1v-6.4
			h2.1v0.5h-1.5v2.4h1.4v0.5h-1.4v2.5h1.6V61.6L174.8,61.6z M176.2,61.6h-0.5v-6.4h0.5V61.6z M179.4,61.1c0,0.3-0.2,0.5-0.5,0.5
			h-1.3c-0.3,0-0.5-0.2-0.5-0.5v-3c0-0.3,0.2-0.5,0.5-0.5h1.3c0.3,0,0.5,0.2,0.5,0.5v1.4l-0.2,0.2h-1.5v1.4h1.2v-0.7h0.5L179.4,61.1
			L179.4,61.1z M178.8,59.3v-1.2h-1.2v1.2H178.8z M179.1,56.3l-1,0.9h-0.4v0l0.6-0.9L179.1,56.3L179.1,56.3L179.1,56.3z M181.7,61.6
			H181c-0.3,0-0.5-0.2-0.5-0.5v-3H180v-0.5h0.5v-1.2h0.5v1.2h0.7v0.5H181v3h0.7V61.6z M184.6,58.9H184v-0.8l-1,0v3.5h-0.6v-4h0.6
			v0.1c0.2,0,0.4-0.1,0.6-0.1c0.2,0,0.4,0,0.6,0c0.3,0,0.5,0.2,0.5,0.5V58.9L184.6,58.9z M185.8,56.7h-0.6V56h0.6V56.7z M185.8,61.6
			h-0.5v-4h0.5V61.6z M189,61.1c0,0.3-0.2,0.5-0.5,0.5h-1.3c-0.3,0-0.5-0.2-0.5-0.5v-3c0-0.3,0.2-0.5,0.5-0.5h1.3
			c0.3,0,0.5,0.2,0.5,0.5v0.8h-0.5v-0.8h-1.1v3h1.1v-0.9h0.5V61.1z M192.2,61.6h-0.5v-0.1c-0.2,0-0.4,0.1-0.7,0.1
			c-0.3,0-0.5,0-0.7,0c-0.3,0-0.5-0.2-0.5-0.5v-1.4c0-0.3,0.2-0.5,0.4-0.5h1.3v-1.2h-1.2v0.7h-0.5v-0.7c0-0.3,0.1-0.5,0.4-0.5h1.3
			c0.3,0,0.5,0.2,0.5,0.5L192.2,61.6L192.2,61.6z M191.7,61.1v-1.4h-1.2v1.4L191.7,61.1z M105.1,61.6h-0.6l-0.2-1.4H103l-0.2,1.4
			h-0.6v0l1.2-6.4h0.6L105.1,61.6L105.1,61.6z M104.3,59.7l-0.6-3.5l-0.6,3.5H104.3z"/>
	</g>
</g>
</svg>
