<svg xmlns="http://www.w3.org/2000/svg" viewBox="0 0 150 150"><g data-name="2063740143664"><path d="M104.9 64.3a4.6 4.6 0 0 0-1.7.1c-.4.3-.2 1-.3 1.6-1.4 4.5-2.5 9.1-4.1 13.6h5.3a.3.3 0 0 0 .3-.3l1.2-4.8c1-3.4 1.8-6.8 3.1-10.2ZM126.7 79.4a11.8 11.8 0 0 1-.7-2c-.9-4.2-1.9-8.3-2.9-12.5-.1-.4-.2-.6-.7-.6h-4.8c-.4 0-.5.2-.3.5a.8.8 0 0 1-.1 1c-3.8 4.5-7.2 9.2-11.2 13.6-.3.1-.3.2 0 .2h3c1 0 .2 0 .2-.2a23.3 23.3 0 0 1 2.6-3.8.6.6 0 0 1 .6-.3h7c.4 0 .6.1.7.5a16.7 16.7 0 0 1 .5 3.1c0 .2-.5.6.1.6a58 58 0 0 0 5.9 0c.2 0 .3 0 .1-.2Zm-8.5-11.7c.3 1.5.7 2.8 1 4.2s.3 1.4-1.1 1.4h-4.4l4.5-5.6ZM77.3 79.4a11.3 11.3 0 0 1-.8-2.4c-.9-4-1.9-8.1-2.8-12.1-.1-.5-.3-.6-.8-.6h-4.6c-.5 0-.7.2-.4.6s.1.6-.2.9c-3.7 4.5-7.1 9.3-11.1 13.6-.5.2-.1.2.1.2a26.1 26.1 0 0 0 2.8 0c.1 0 .3 0 .3-.2a17 17 0 0 1 2.6-3.8.5.5 0 0 1 .5-.3h7.2c.2 0 .4 0 .5.3s.8 2.5.4 3.8h.2c2 0 4 .1 6 0 .2.2.3.1.1 0Zm-8.5-11.7 1.2 5.2c.1.4-.1.4-.4.4h-5.3ZM146.7 64.3h-11.1c-2.1 0-3.7.7-4.3 2.5s-.9 2.9-1.3 4.4a1.9 1.9 0 0 0 1.9 2.5c1.4.1.2 0 .4 0h7c.9 0 1 .1.7 1s-.3 1.1-.4 1.6a1.3 1.3 0 0 1-1.4 1.1h-8.1c-.6-.1-1.3-.6-1.7-.1s-.1 1.2-.1 1.9.4.2.6.2c3.7 0 7.5.1 11.2 0 1.9 0 3.7-.7 4.4-2.6a39.6 39.6 0 0 0 1.3-4.6c.4-1.7-.3-2.7-2-2.8h-7.1c-1 0-1.1-.1-.8-1l.3-1.2a1.3 1.3 0 0 1 1.3-1c2.9.1 5.8-.1 8.8.1.4.1.8.5 1.1.1s.1-.8.1-1.2.2-1-.8-1ZM97.8 64.5a1.9 1.9 0 0 0-1.3-.1H82.6a39.9 39.9 0 0 1-1.1 4.7c-1.1 3.3-1.8 6.8-3.1 10.1-.5.7.2.4.4.4H92c1.9 0 3.8-.7 4.4-2.7a27.6 27.6 0 0 0 .8-2.7c.3-1.1.1-1.6-1-2l-.5-.3a2.6 2.6 0 0 0 2.5-1.5 12.7 12.7 0 0 0 1.1-3.8 1.7 1.7 0 0 0-1.5-2.1Zm-5.6 9.4-.9 2.8a1 1 0 0 1-1.1.9h-5.4c-.4 0-.6 0-.4-.5s.7-2.4 1-3.7.3-.5.8-.5h5.3c.8 0 .9.2.7 1Zm1.9-6.6-.8 2.6a1.2 1.2 0 0 1-1.4 1h-5.4c-.2 0-.3-.1-.2-.2l1.3-4.4h5.9c.6.1.7.4.6 1Z" fill="#852a29"/><path d="M2 86.5c.1.1.1.2.1.5a.8.8 0 0 1-.9.9c-.6 0-.9-.4-.9-1v-.4h.4c-.1 0-.1.2-.1.3a.6.6 0 0 0 .6.6.5.5 0 0 0 .6-.6c0-.1 0-.3-.1-.3ZM.3 86.1v-.5c0-.3 0-.5.1-.6a.5.5 0 0 1 .4-.2.4.4 0 0 1 .4.3l.4-.2.5-.2v.5h-.4c-.3 0-.3.1-.3.3h.7v.4Zm.8-.4v-.2a.3.3 0 0 0-.3-.3c-.1 0-.2.1-.2.3v.2ZM1.3 83.3v.7h.5v-.8h.3v1.2H.3v-1.1h.3v.7H1v-.7h.3zM2 81.5a.7.7 0 0 1 .1.5.8.8 0 0 1-.9.9c-.6 0-.9-.4-.9-1v-.4h.4a.4.4 0 0 0-.1.3.6.6 0 0 0 .6.6.5.5 0 0 0 .6-.6.4.4 0 0 0-.1-.3ZM.3 80.7h1.8v.4H.3v-.4zM.3 79.2v-.4h1.1c.5 0 .7.2.7.6v.3h-.4v-.2c0-.2-.1-.3-.4-.3ZM1.3 77.7h.2v.7h-.2v-.7zM2.1 77.4h-.3l-.2-.2c-.3-.4-.5-.6-.7-.6s-.2.1-.2.3a.6.6 0 0 0 .1.4H.5a1.4 1.4 0 0 1-.2-.6.6.6 0 0 1 .6-.6c.3 0 .5.2.7.5h.2V76h.3ZM1.8 75.7v-.2a.6.6 0 0 0-.1-.4l-.3-.2c0 .1.1.2.1.4a.5.5 0 0 1-.5.5.7.7 0 0 1-.7-.6.7.7 0 0 1 .8-.7 1.1 1.1 0 0 1 .8.3 1.4 1.4 0 0 1 .2.7v.2Zm-.9-.3c.2 0 .3-.1.3-.2a.4.4 0 0 0-.1-.3H1c-.2 0-.4.1-.4.3s.1.2.3.2ZM.7 73v.7H1a.6.6 0 0 1 .1-.4c.1-.2.2-.2.4-.2s.6.2.6.7a.7.7 0 0 1-.1.5h-.3c.1-.1.1-.2.1-.4a.3.3 0 0 0-.3-.3c-.1 0-.2.1-.2.5v.2H.4V73ZM2.1 72.6h-.3l-.2-.3c-.3-.3-.5-.5-.7-.5s-.2.1-.2.3a.4.4 0 0 0 .1.3H.5a.8.8 0 0 1-.2-.4.6.6 0 0 1 .6-.6 1 1 0 0 1 .7.4l.2.2v-.7h.3ZM.7 70.4l.2.4H.6l-.2-.4V70h1.7v.4H.7z" fill="#8a2b2b"/><path d="M148.4 61.7a1.3 1.3 0 0 0-1.3 1.3 1.2 1.2 0 0 0 1.3 1.2 1.2 1.2 0 0 0 1.3-1.2 1.3 1.3 0 0 0-1.3-1.3Zm0 2.4a1.1 1.1 0 0 1-1.1-1.1 1.1 1.1 0 0 1 1.1-1.2 1.2 1.2 0 0 1 1.2 1.2 1.1 1.1 0 0 1-1.2 1.1Z" fill="#832a29"/><path d="M149 63.3c-.1-.2-.1-.3-.3-.3q.3-.2.3-.3c0-.1-.1-.2-.1-.3h-1v1.2h.3v-.5h.2a.2.2 0 0 1 .2.2.8.8 0 0 1 .1.3h.4c-.1 0-.1-.1-.1-.3Zm-.6-.4h-.2v-.4h.2c.2 0 .3.1.3.2s-.2.2-.3.2Z" fill="#832a29"/><path fill="#852a29" fill-rule="evenodd" d="m126.3 91-.4-5h1.4l.1 3.4 2.2-3.4h1.5l-3.3 5h-1.5zM121.7 85.4l1-1.6h1.3l-1.6 1.6h-.7zM119.4 88.4a3.4 3.4 0 0 1 .6-1.2 5.2 5.2 0 0 1 1.1-1 2.7 2.7 0 0 1 1.2-.3 1.8 1.8 0 0 1 1.5.7 2.4 2.4 0 0 1 .1 1.9 4.2 4.2 0 0 1-1.1 1.8 2.8 2.8 0 0 1-1.9.7 2.3 2.3 0 0 1-1.1-.3 1.1 1.1 0 0 1-.5-.9 2.3 2.3 0 0 1 .1-1.4Zm1.2 0a1.7 1.7 0 0 0 0 1 .6.6 0 0 0 .6.3.9.9 0 0 0 .7-.3 2.1 2.1 0 0 0 .6-1 1.4 1.4 0 0 0 0-.9.7.7 0 0 0-.6-.4 1 1 0 0 0-.7.4 1.5 1.5 0 0 0-.6.9ZM111.4 86.1h1.2v.7a1.7 1.7 0 0 1 1.4-.8.8.8 0 0 1 .7.2.9.9 0 0 1 .3.6l.7-.6a1.2 1.2 0 0 1 .8-.2c.3 0 .6 0 .7.2a.9.9 0 0 1 .3.7 3.9 3.9 0 0 1-.1.9l-.8 3.2h-1.2l.6-2.3a4.6 4.6 0 0 0 .1-1c-.1-.2-.2-.3-.4-.3l-.5.2-.4.5a6.2 6.2 0 0 0-.3 1L114 91h-1.1l.5-2.2a2.3 2.3 0 0 0 .2-.9c0-.2 0-.3-.1-.4h-.3l-.6.2-.4.5a4.1 4.1 0 0 0-.3 1l-.5 1.9h-1.2l1.3-4.9ZM106.1 91l1.8-7h1.4l-1.7 7h-1.5zM137.7 91l1.3-5.1h1.4l-1.3 5.1h-1.4z"/><ellipse cx="140.1" cy="84.7" rx=".9" ry=".7" transform="rotate(-61.9 140.026 84.65)" fill="#852a29"/><path d="M144.2 88.1c-.2-.1-.9-.5-.8-.8a.5.5 0 0 1 .5-.3 1.1 1.1 0 0 1 .7.3l.3.2.6-1.1a2 2 0 0 0-2.2-.4 1.8 1.8 0 0 0-1.2 1.5 1.3 1.3 0 0 0 .7 1.2c.2.2.9.6.8.9s-.5.2-.7.2l-.6-.2-.3-.2-.7 1c.4.6 1.7.7 2.4.5a1.8 1.8 0 0 0 1.2-1.5 1.1 1.1 0 0 0-.7-1.3Z" fill="#852a29"/><path fill="#852a29" fill-rule="evenodd" d="m13 87.7 18.9-28.8h-8.8L4.3 87.7H13z"/><path fill="#e13837" fill-rule="evenodd" d="m18.5 87.7 17.4-16.6 17.4 16.6h4.8L38.2 58.9h-5.3L14.1 87.7h4.4z"/><path fill="#852a29" fill-rule="evenodd" d="m37 87.7-6.5-10.4 5.4-5.2 16.4 15.6H37z"/></g><path d="m134.7 89.5.6.8a2.6 2.6 0 0 1-2.1.8 1.5 1.5 0 0 1-1.5-1 2.2 2.2 0 0 1 0-1.6 3.6 3.6 0 0 1 1.1-1.9 2.4 2.4 0 0 1 1.7-.6 1.6 1.6 0 0 1 1.4.6 3.2 3.2 0 0 1 .1 2.4h-3.1c-.4 1.4 1.4 1.2 1.8.5Zm.2-1.6a1.3 1.3 0 0 0-.1-.7.5.5 0 0 0-.5-.3 1.3 1.3 0 0 0-1.1 1Z" fill="#852a29" fill-rule="evenodd"/></svg>