<svg xmlns="http://www.w3.org/2000/svg" viewBox="0 0 150 150"><path d="M144.2 89.8H143c-.2.1-.1.4-.2.5a1.9 1.9 0 0 0-3.1.5 2.3 2.3 0 0 0 .9 3.2h.6a2 2 0 0 0 1.2-.6c-.2.5 0 .5.4.5h.6c.1 0 .2 0 .2-.2l.6-3.6s.1-.3 0-.3Zm-2.6 3c-.5 0-.8-.3-.8-.9a1 1 0 0 1 1-1.1.8.8 0 0 1 .8.9 1 1 0 0 1-1 1.1ZM122.7 89.8h-1.2c-.2.1 0 .4-.2.5a1.9 1.9 0 0 0-3.1.6 2.2 2.2 0 0 0 .9 3.1h.6a2 2 0 0 0 1.2-.6c-.2.6.1.5.4.5h.6c.2 0 .2 0 .3-.2s.3-2.4.5-3.6.1-.3 0-.3Zm-2.6 3a.8.8 0 0 1-.8-.9c.1-.6.5-1.1 1-1.1s.9.4.9.9-.5 1.1-1.1 1.1ZM127.9 89.8a2.3 2.3 0 0 0-2.9 2.9c.2.8.8 1 1.5 1.3h1c.3-.2.8-.2 1.1-.5s.2-.1.1-.2l-.6-.7c-.2-.1-.3.2-.5.2s-1.2.2-1.3-.3 0-.4.3-.4a19.2 19.2 0 0 0 2.4 0c.1 0 .2.1.3-.1a2 2 0 0 0-1.4-2.2Zm0 1.4c0 .3-.3.1-.5.1a.1.1 0 0 1-.2 0c-.1 0-.3.1-.4 0s-.4.1-.4 0a.9.9 0 0 1 .3-.5.8.8 0 0 1 .7-.1c.3 0 .6.2.5.5ZM136.3 94h-.2a1.4 1.4 0 0 1-1.2-1.8l.3-2.1.2-.2c1.2-.1 1.2-.1 1.1 1.1s-.1.8-.2 1.2a.8.8 0 0 0 .3.8c.4.1.6-.1.8-.5a7.1 7.1 0 0 0 .4-2.1c.1-.4.2-.5.5-.5s1 0 .9.9-.1.7-.2 1a2.2 2.2 0 0 1-1.8 2.3h-.9ZM132.4 94l-1-.4c-.2-.1-.3-.2-.1-.4a.4.4 0 0 0 .1-.3c.1-.3.3-.4.6-.2a1.4 1.4 0 0 0 .9.3c.2-.1.3-.1.4-.3s-.1-.3-.2-.3l-.9-.5a1.1 1.1 0 0 1-.2-1.8 2.4 2.4 0 0 1 2.6-.1c.2.3-.1.4-.1.6s-.2.5-.5.2h-.2c-.3-.1-.7-.2-.9.2s.4.3.6.4l.5.3a1 1 0 0 1 .6 1 1.1 1.1 0 0 1-.7 1.1l-.7.3h-.8ZM115.5 94l-1-.4c-.2-.1-.3-.2-.1-.4s.1-.2.1-.3.3-.4.6-.2a1.2 1.2 0 0 0 .9.3c.2-.1.3-.1.4-.3a.3.3 0 0 0-.3-.3l-.9-.5a1 1 0 0 1-.2-1.7 2.4 2.4 0 0 1 2.7-.2c.2.2-.1.4-.1.5s-.2.6-.6.3h-.3c-.3-.1-.6-.1-.7.2s.3.3.5.4 1.3.5 1.2 1.4-.6 1.1-1.4 1.2h-.8ZM107.4 94c-1.3-.7-1.7-1.4-1.4-2.7a2.3 2.3 0 0 1 3.2-1.4c.2.1.3.2.2.4a1.3 1.3 0 0 1-.1.6c0 .3 0 .4-.3.1a.9.9 0 0 0-1.3.1 1.2 1.2 0 0 0-.2 1.4 1.1 1.1 0 0 0 1.3.1h.2c0 1.2-.1 1.3-.8 1.4h-.8Z" fill="#e23a3c"/><path d="M115.6 94c.2-.2.5-.1.7-.1h-.7Z" fill="#ef9a87"/><path d="M126.5 94Z" fill="#eb816e"/><path d="M107.5 94c.2-.2.5-.1.7-.1h-.7Z" fill="#ef9784"/><path d="M136.4 94Z" fill="#ef9b88"/><path d="M110.9 94a.6.6 0 0 1 .6 0h-.6Z" fill="#f1a290"/><path d="M132.5 94Z" fill="#ef9885"/><path d="M119.2 94a.5.5 0 0 1 .5-.1h-.5Z" fill="#ef9683"/><path d="M140.7 94Z" fill="#ee9582"/><path d="M144.9 94a.5.5 0 0 1 .5 0h-.5Z" fill="#f1a896"/><path d="m80.9 88.5-9.8.6-16.9 1-13.1.7-15.9.9-14.5.8-10.4.6c-.3.1-.4 0-.4-.3a25.4 25.4 0 0 0 0-3.9c0-.4.1-.4.4-.4h80.6Z" fill="#e23a3c"/><path d="M145.9 65H73l10.3-.7 10-.6 14.4-.9 11.9-.8 14.3-.9 11.7-.7c.3 0 .3.1.3.3Z" fill="#e2383b"/><path d="M34.7 84.8c-.1.2-.3.2-.5.2h-1l-1 .2h-.5l-1.7.2-1.5.3H28c-.1-.6-.3-1.2-.4-1.8s-.1-.3-.3-.3h-4.5c-.2 0-.3.1-.3.2s-.3 1.2-.4 1.8-.5.2-.8.3h-6.1c-.2 0-.2-.1-.1-.3.7-2.1 1.5-4.3 2.3-6.5l.3-.2a8.2 8.2 0 0 0 1.9-.9l.3-.2.8-.6a.1.1 0 0 1 .1-.1l.4-.3.3-.2h.1a4.7 4.7 0 0 1 2-1h.9c-.3 1-.5 2.1-.8 3.1s0 .2.2.2h2.2c.2 0 .3 0 .2-.3a29.9 29.9 0 0 1-.8-3.2l.3-.2 1.5-.9.6-.3a3.9 3.9 0 0 0 1.1-.6h.3l.7-.7h.1v-.6h.1c.4 1.2.9 2.5 1.3 3.8 1.1 2.8 2.1 5.9 3.2 8.9ZM95.2 76.4l.4.7v-.3c0-.3 0-.3.4-.2h.4l.5.2H98a5 5 0 0 0 2.1.1l.8-.5.4-.3.2-.2a.2.2 0 0 1 .2-.2h.1V84a1 1 0 0 1-.5.4 6.7 6.7 0 0 1-1.2.6 38.5 38.5 0 0 1-4.7.8l-.2-.2c-1.8-3.1-3.6-6.2-5.3-9.3-.2 0-.1.1-.1.2.3 3 .1 6 .1 9.1 0 .1 0 .2-.2.2h-5.9l-.2-.2c0-2.2 0-4.4.1-6.6a2.2 2.2 0 0 1 .5-.8 1.2 1.2 0 0 1 .5-.5l.5-.6.6-.5.7-.5 1-.5a7 7 0 0 1 3.5-.5h1.1l1.3.3 1.4.4ZM52.3 85.2l-1.3.4a21.1 21.1 0 0 1-3.5.5 1.7 1.7 0 0 1-2.1-1.3c-.8-1.6-1.7-3.2-2.5-4.9V86h-6.1c-.2 0-.3 0-.3-.3v-7.8c0-.2 0-.4.2-.4h.4l1.6-.4.6-.2h.3l1.8-.6a3.4 3.4 0 0 1 1.4-.2h1.5a2.1 2.1 0 0 0 1-.4h.8l1.2-.3h.4l2.7-1a3.1 3.1 0 0 0 .9-.7c0-.1.1-.1.1-.2s0-.1.1-.2v-1.7h.1c.5 2 .6 4-.8 5.8a3.3 3.3 0 0 1-2.1 1.3c-.3 0-.3.1-.1.3l3.9 6.1c.2 0 0 0-.2.1ZM69.2 83.7a23.1 23.1 0 0 1-3.5 1.8 15.4 15.4 0 0 1-4.7.5h-5.8c-.1 0-.2 0-.2-.3v-6.4l.3-.2a8.5 8.5 0 0 0 2.6-1.1h.4l1.6-.8.9-.2h.6v2.4c0 1.3 0 1.3 1.3 1.1a3 3 0 0 0 2.9-2.5 6.5 6.5 0 0 0-.1-2.4h.3l3.4-.7 1-.5h.1c.1 0 .1-.1.2-.2h.1l.2-.3h.1v-.3h.1c0-.1 0-.2.2-.2a9.2 9.2 0 0 1-2 10.3ZM122.3 84.6l-.8.2h-.3l-1.8.4h-.5l-2 .4h-.8a13.3 13.3 0 0 1-.5-1.9c-.1-.2-.1-.3-.3-.3h-4.5a.3.3 0 0 0-.3.3c-.1.5-.3 1.1-.4 1.7l-.3.2-1.4.2h-5.1c-.2 0-.3 0-.2-.2.7-2.2 1.5-4.4 2.3-6.6a1.8 1.8 0 0 1 .7-.5c.1-.1.2-.1.2-.2h.1l.3-.2 2.4-1.4 1.4-.4h1.8l-.6 2.1c0 .2 0 .2.2.2h2.3c.2 0 .2-.1.1-.2s-.3-1.4-.5-2.1h.6a2.7 2.7 0 0 0 2-.9h.1v-.3h.3a.3.3 0 0 0 .1-.2h.1l.2-.2h.2l.2-.2.3-.2h.1c.3-.1.6-.4.9-.3 1.1 3.1 2.1 6.2 3.2 9.2l.3 1c.2.3 0 .4-.1.4ZM131 86.1h-7v-9a.9.9 0 0 1 .3-.7l1.5-.9.9-.4a10.3 10.3 0 0 1 3-.4c.3.1.6 0 .8.2v4.9a.3.3 0 0 0 .3.3h6.1v4.1c0 .2-.1.3-.3.4l-1 .4-2.6.7-1.6.3ZM6.7 76.6c0 2.4 1.3 3.8 3.3 3.8a6.5 6.5 0 0 0 3.4-1.1.8.8 0 0 1 .8 0l-.2 4.6v.7a.6.6 0 0 1-.1.4l-1.5.9-.7.4a9.4 9.4 0 0 1-11.3-7 16 16 0 0 1 .5-2.1 2.7 2.7 0 0 1 .6-1 2.7 2.7 0 0 1 1.4-.7H3a4.6 4.6 0 0 1 2 .2l1.4.5c.3 0 .4.2.3.4ZM70.6 72.2l-1.6.4-5.2 1h-.1a5.8 5.8 0 0 0-2.3-.2v.6a.8.8 0 0 1-.7.2l-4 .9-1.3.2c-.2.1-.3.1-.4 0v-7.5c0-.2 0-.2.2-.2a66.1 66.1 0 0 1 8.9.2 9 9 0 0 1 6.7 3.9l.2.2c0 .3-.2.3-.4.3ZM50.6 70l-.3.2-4.8 1.9-.7.3h-1c-.9 0-.9 0-.9.8h-.3l-1.8.8-.8.3-2.4 1-.8.3h-.3v-8H45a7.9 7.9 0 0 1 5.1 1.5l.6.7c.1.1 0 .2-.1.2ZM145.9 75.7v9.6a2.4 2.4 0 0 1-1.6.7h-5c-.1-.2 0-.3 0-.4v-6a1.1 1.1 0 0 1 .3-.9 6.1 6.1 0 0 1 .7-1l.5-.4.4-.3a3.3 3.3 0 0 1 1.7-.4h.5a4.2 4.2 0 0 0 1.9-.6c.2-.1.3-.4.6-.3ZM118.1 71.5c0 .2-.2.2-.3.3l-4.3 1.5h-.4c0-.1-.1-.1-.2-.2v.3l-1.3.5-2 .7-2.6 1c-.1.1-.4.2-.4-.1l1.5-4.2c.4-1.2.8-2.4 1.3-3.7s.1-.2.3-.2h6.8c.1 0 .3-.1.3.1s.9 2.8 1.3 4ZM83.6 74.8v-7c0-.2.1-.2.3-.2h6.2l3 5.2c0 .2-.1.2-.3.3l-8.7 1.6c-.2.1-.3.2-.5.1ZM78.8 77.4c.8 1.4 1.6 2.8 2.3 4.2a2.8 2.8 0 0 1 .1.9 19.2 19.2 0 0 0 0 2.4.9.9 0 0 1-.5.8 4 4 0 0 1-1.5.3h-4.7v-6.2a1.1 1.1 0 0 1 .4-1l.2-.2a5.1 5.1 0 0 1 2.3-1.2h.9c.2-.2.4-.2.5 0ZM19.1 74.3l2.3-6.6c0-.1.1-.1.3-.1h6.8c.2 0 .3 0 .3.1s.5 1.5.7 2.2-.1.3-.3.4l-3.4 1.3-2.6 1.1c-1.2.6-2.4 1-3.7 1.5s-.2.3-.4.1ZM139.3 67.6h6.4c.2 0 .2.1.2.2v4.8l-.5.2-4.4.8-1.5.4h-.2v-6c0-.2-.1-.3 0-.4ZM12.5 67.5h.1c1.5.4 1.5.4 1.5 1.9s-.1 2.5-.1 3.8h-.3l-2.2-.9-4.4-1.7a34 34 0 0 0-3.4-1.2h-.2a10 10 0 0 1 3.7-1.9 9.2 9.2 0 0 0 1.6-.1 9.2 9.2 0 0 1 3.3.2Z" fill="#2b5599"/><path d="m81.1 79-4.4-8.1-1.6-3c-.1-.2-.2-.3.2-.3h5.6c.2 0 .3 0 .3.2-.1 3.7-.1 7.4-.1 11.1Z" fill="#d93639"/><path d="M124 67.6h6.3c.2 0 .2.1.2.2v4.3l-.4.2-4 .9-1.7.4c-.1 0-.3.1-.4-.1v-5.9Z" fill="#2b5599"/><path d="M8.2 59.7c1.2-1.4 2.5-1.5 3.4-.2a1.8 1.8 0 0 1 1.9-.9 1.5 1.5 0 0 1 1.4 1.3c.1 1.2 0 2.5.1 3.7a.2.2 0 0 1-.2.2h-.1c-.5 0-1.1.1-1.4-.1s-.1-.9-.1-1.4v-1.6a.7.7 0 0 0-.7-.8.7.7 0 0 0-.8.8 12.2 12.2 0 0 0-.1 2.7c0 .3 0 .4-.3.4s-1.1.1-1.3-.1-.1-.9-.1-1.3v-1.7c0-.5-.2-.8-.7-.8s-.8.2-.8.7a14.1 14.1 0 0 0-.1 2.9.3.3 0 0 1-.3.3c-.5-.1-1.1.1-1.4-.1s0-.9 0-1.4V59c0-.2 0-.3.2-.3h.6c.6 0 1.2-.1.8 1Z" fill="#e23a3c"/><path d="M95.5 72.5v-4.7c0-.2 0-.2.2-.2h5.8c.2 0 .3 0 .3.2v3.6a3.3 3.3 0 0 1-1.3.4l-1.3.2-1.8.4-1.7.2c-.1.1-.1 0-.2-.1Z" fill="#2b5599"/><path d="M27.6 60.2a2.3 2.3 0 0 0-1.7-1.6 2 2 0 0 0-2.1.8h-.1a.1.1 0 0 1 .1-.1v-1.9c0-.4.1-1-.1-1.3s-.9 0-1.3 0-.3 0-.3.3v6.5c0 .9 0 .8.8.9s1 0 .7-.9l.2.2a2 2 0 0 0 2.1.8 2 2 0 0 0 1.6-1.5 3.3 3.3 0 0 0 .1-2.2Zm-2.8 2.3a1.2 1.2 0 0 1-1.2-1.2 1.2 1.2 0 0 1 1.2-1.3c.7 0 1.1.5 1.1 1.3s-.4 1.2-1.1 1.2ZM41.9 58.7c-.4.1-1.1-.2-.8 1a2 2 0 0 0-2.4-1 2.2 2.2 0 0 0-1.6 1.7 4.6 4.6 0 0 0 .1 2 2.3 2.3 0 0 0 2.3 1.6 2.2 2.2 0 0 0 1.6-1.2c-.3 1.1.3 1 .8 1h.5a.3.3 0 0 0 .3-.3c0-1.4-.1-2.7 0-4s-.1-.9-.8-.8ZM40 62.5c-.8 0-1.2-.5-1.2-1.3A1.1 1.1 0 0 1 40 60c.7 0 1.1.5 1.1 1.3a1.1 1.1 0 0 1-1.1 1.2ZM56.4 59.6c0-.9 0-.8-.9-.9s-.9 0-.8.7a2 2 0 0 0-2.3-.8 2 2 0 0 0-1.6 1.7 4.9 4.9 0 0 0-.1 1.2c.2 1 .5 1.9 1.5 2.2a1.9 1.9 0 0 0 2.5-.8c.1.8.1.8.8.8h.6a.3.3 0 0 0 .3-.3Zm-2.8 2.9c-.7 0-1.1-.5-1.1-1.3a1.1 1.1 0 0 1 1.1-1.2c.8 0 1.2.5 1.2 1.3a1.1 1.1 0 0 1-1.2 1.2ZM18.5 58.6a2.7 2.7 0 0 0-2.8 2.7 2.7 2.7 0 0 0 2.8 2.7 2.8 2.8 0 0 0 2.8-2.7 2.7 2.7 0 0 0-2.8-2.7Zm0 3.9a1.1 1.1 0 0 1-1.1-1.2c0-.8.4-1.2 1.1-1.2s1 .4 1 1.2-.4 1.2-1 1.2ZM103.8 93.3c-.3-1.3-.5-2.6-.8-3.9s-.1-1.1-.4-1.3-.9-.1-1.4-.1h-.2c-.2 0-.3.1-.4.3l-2.1 4.3-.6 1.2h1.3c.2 0 .4 0 .4-.2s.8-1 1.6-.9h.6a.4.4 0 0 1 .4.4c0 .5.2.9.8.7h.4c.4.1.5 0 .4-.5Zm-2.1-1.9c-1 .1-1 .1-.6-.8s.3-.7.4-1.1a8.5 8.5 0 0 0 .4 1.7c0 .2-.1.2-.2.2ZM5.3 60.1v3.4c0 .2 0 .3-.2.3H3.6a.3.3 0 0 1-.3-.3v-6.8c0-.1.1-.2.3-.2s1.3-.2 1.6.1.1 1 .1 1.6ZM114.4 89.8h-1.2c-.2.1-.1.4-.2.5l-.8-.5a2.1 2.1 0 0 0-2.6 1.8 1.8 1.8 0 0 0 1.3 2.3h.6c.4 0 .7-.3 1.1-.6s.1.5.4.5h.6c.2 0 .2-.1.2-.2l.6-3.6s.1-.2 0-.2Zm-2.6 3a.8.8 0 0 1-.8-.9 1.1 1.1 0 0 1 1-1.1.8.8 0 0 1 .8.9 1 1 0 0 1-1 1.1ZM31.5 59.9v-3.5q0-.4.3-.3H33q.3-.1.3.3v7.1c0 .2 0 .3-.3.3s-1.1.1-1.4-.1-.1-.9-.1-1.4ZM45.5 59.9a1.9 1.9 0 0 1 1.9-1.3c.2.1.3.1.2.3v.3a2.5 2.5 0 0 1-.1.9c-.2.3-.6 0-.8.1a1.2 1.2 0 0 0-1.1 1.1 14.8 14.8 0 0 0-.1 2.1c0 .3 0 .4-.3.4s-1.1.1-1.3-.1-.1-.9-.1-1.4V59c0-.2 0-.3.3-.3h.3c1 0 1 0 1.1 1.2ZM28.6 61.2V59c0-.2 0-.3.2-.3s1.2-.1 1.5.1.1.9.1 1.4v3.3a.3.3 0 0 1-.3.3c-.5-.1-1.2.1-1.4-.1s-.1-.9-.1-1.4ZM36.2 61.2v2.3c0 .2 0 .3-.3.3s-1.1.1-1.4-.1-.1-.9-.1-1.4V59a.3.3 0 0 1 .3-.3c.5.1 1.1-.1 1.4.1s.1.9.1 1.4ZM49.9 61.3v2.2a.3.3 0 0 1-.3.3h-1.2c-.3 0-.3-.1-.3-.3V59c0-.2 0-.3.2-.3s1.2-.1 1.5.1.1.9.1 1.4Z" fill="#e23a3c"/><path d="M19.1 74.3a18.6 18.6 0 0 0 2.5-1l7.7-3.2c.1 0 .2 0 .2-.2l.2.6c0 .2-.2.2-.3.3l-6.9 3-3.2 1.5H19c-.2 0-.3 0-.2-.2Z" fill="#335b9d"/><path d="M14 73.7v.6c-.3 0-.5-.2-.8-.3h-.4a4.7 4.7 0 0 0-1.5-.6A46.1 46.1 0 0 0 6.7 72l-2.9-.5H2.4c-.2 0-.5.1-.7-.2l.8-.9a31.2 31.2 0 0 1 4.4.9c1.6.4 3 1 4.5 1.5l2.2.8c.2-.1.4-.1.4.1Z" fill="#365fa0"/><path d="M74.6 69.5 77 74c-.2.2-.4.2-.7.3l-1.4.5c-.1 0-.3.1-.4-.1v-4.9c0-.1-.1-.2.1-.3Z" fill="#2b5599"/><path d="M1.7 71.2h.6a24.1 24.1 0 0 1 7.1 1.3 7.3 7.3 0 0 1 1.9.7H9.1a18.8 18.8 0 0 0-5.7-.9H1.5c-.1 0-.3 0-.2-.3Z" fill="#3c63a2"/><path d="M3.5 69.3a22.9 22.9 0 0 1 2.8.9c2.6.9 5.1 2 7.7 3v.3h-.3l-2.6-1-4-1.4-3.2-.9H2.8Z" fill="#2f589b"/><path d="M42.9 74.2v.5h-.1l-1 .4-4.4 2.2h-.5c-.3 0-.4.1-.4.3v7.8c0 .2.1.3.4.3h-.1c-.3 0-.3-.1-.3-.4V67.9v7.8a.1.1 0 0 0 .1.1c.1.2 0 .4 0 .6 0 .5 0 .5.5.3s3.5-1.7 5.3-2.4c.2-.1.3-.2.4-.1Z" fill="#3c64a2"/><path d="M1.3 71.9c.1.4.5.2.7.2l3.3.2a10 10 0 0 1 2.4.4l1.9.5-1 .3-3-.5a13.4 13.4 0 0 0-4 .1H1c-.1 0-.2 0-.2-.2a9.3 9.3 0 0 1 .5-1Z" fill="#4269a5"/><path d="M18.8 75.2c0 .2.1.2.2.1l6.4-2.9 4.3-1.9v.3c0 .2-.2.2-.3.3L22.9 74l-4 1.9c-.1.1-.2.2-.4.1Z" fill="#3a62a1"/><path d="M95.5 72.5c.3.1.5-.1.8-.1s2.8-.6 4.3-.7l1.2-.3v.9l-.9.2-4.1.7-1 .2h-.3Z" fill="#335b9d"/><path d="M.8 72.9c.2.3.5.1.7.1a10.1 10.1 0 0 1 3-.2l3.7.5a.5.5 0 0 1 .4.2l-.5.3c-.2.1-.4 0-.6 0a19.6 19.6 0 0 0-5.4-.2 2.9 2.9 0 0 1-1.3 0H.6Z" fill="#476ca8"/><path d="M61.4 74.1v.4H61c-1.9.4-3.8 1-5.7 1.5H55v-.9l3.6-.7 2.8-.6Z" fill="#335b9d"/><path d="m83.6 74.8 4.8-.9 4.4-.8.3-.2.3.4c-.1.2-.2.2-.3.2l-7.2 1.3-1.8.4h-.5Z" fill="#315a9c"/><path d="M.6 73.5c1.2.2 2.4-.2 3.6-.1a22 22 0 0 1 3.6.4h.3l-.5.5a1.1 1.1 0 0 1-.8 0L3 74.1l-2.2-.3H.6Z" fill="#4e72ab"/><path d="M139.3 74a8.6 8.6 0 0 1 2.3-.6l4-.8h.3v.4l-.4.2-3.6.8-2.2.6c-.1 0-.3.1-.4 0s-.1-.4 0-.6ZM124 73.5l3.5-.7 3-.7v.4c-.2.2-.5.2-.8.3l-5.3 1.4c-.1.1-.3.2-.4 0Z" fill="#335b9d"/><path d="m93.8 74.1.2.4c0 .2-.2.2-.3.3l-2.4.3-2.8.5-4.5.7c-.1 0-.2.1-.4 0v-.4a6.3 6.3 0 0 1 1.9-.3h.2a18.9 18.9 0 0 1 2.3-.5l1.5-.2a6.9 6.9 0 0 1 2-.3l.8-.2Z" fill="#446aa6"/><path d="M2.8 70a21.7 21.7 0 0 1 5 1.3l6.1 2.2h.1v.2L9.2 72a29.6 29.6 0 0 0-4.9-1.3l-1.6-.3c-.1 0-.2 0-.2-.1Z" fill="#335b9d"/><path d="M112.9 73.6v.4l-1.4.6-4.8 1.9h-.3a1.9 1.9 0 0 0 .2-.7c.1.2.2.1.3.1l4.3-1.7 1.7-.6Z" fill="#335c9d"/><path d="M51.7 71.4h-.1a6.4 6.4 0 0 0-1.9.8c-1.1.4-2.2 1-3.3 1.5l-.6.2a1.1 1.1 0 0 1-.1-.5h-.1l1-.4 3.9-2 .9-.2Z" fill="#4369a5"/><path d="M93.8 74.1c-.3.4-.8.3-1.2.4l-2.4.4-2.8.4-2.7.5a2.1 2.1 0 0 1-1.1.1v-.2l.3-.2 8.6-1.4 1.1-.3Z" fill="#3e65a3"/><path d="m29.7 71.2-4.4 2H25c-.1.1-.1.1-.1.2h-.1l-.5.2h-.2l-.9.4-.5.3h-.3l-2.9 1.3-.8.4c-.1.1-.3.1-.2-.1v.1l4.2-1.9 4.5-2.1 2.6-1.2v.2c.1.2 0 .2-.1.2Z" fill="#3e66a3"/><path d="M24.9 73.9v.4a3.9 3.9 0 0 1-1.1.6L19.5 77l-1.3.7H18a1.9 1.9 0 0 0 .2-.7l1.5-.7q2.3-1.2 4.7-2.3c.2-.1.3-.2.5-.1Z" fill="#4e73ab"/><path d="M24.8 74.3v.3h-.1a3.3 3.3 0 0 1-1 .6L21 76.8l-2.9 1.4h-.4l.2-.4 3.7-1.9Z" fill="#5578af"/><path d="M.6 73.7a14.6 14.6 0 0 0 2.2.3h2l2.8.2-.4.5H3.6c-.1-.1-.1 0-.1-.1l-2.8-.4c-.1-.1-.3-.1-.2-.3Z" fill="#5477af"/><path d="M93.6 73.8c0 .2-.1.2-.3.2l-9.5 1.6h-.2v-.3l1.1-.3 4.4-.8 4.1-.7h.3Z" fill="#3a62a1"/><path d="M49 56.2a1 1 0 0 1 1 1 1 1 0 0 1-2 0 1 1 0 0 1 1-1ZM35.3 58.2a1.1 1.1 0 0 1-1-1 1 1 0 0 1 1-1 .9.9 0 0 1 1 1 1 1 0 0 1-1 1ZM30.4 57.2a1 1 0 0 1-.9 1 1 1 0 0 1-1-1 .9.9 0 0 1 1-1 .9.9 0 0 1 .9 1Z" fill="#e23a3c"/><path d="m83.6 76.3 3.5-.6 2.8-.5 3.8-.5.3-.2.2.2c0 .3-.3.2-.4.3a19 19 0 0 1-2.5.3c-.1.1-.3 0-.3.2a7 7 0 0 0-3.5.5l-2 .4-1.4.2a.5.5 0 0 1-.5 0Z" fill="#496ea8"/><path d="m50.9 70.3-.5.3-4.1 1.7-1.1.4h-.1l-.3-.2h-.1a13.6 13.6 0 0 1 2.5-1.1l3.3-1.4c.1-.1.2-.1.2-.2l.3.3c0 .1 0 .2-.1.2Z" fill="#325b9c"/><path d="m71.2 72.3-.2.2-.9.2-5.6 1.2h-.2l-.5-.3h-.1l5.7-1.1 1.3-.3c.1 0 .2 0 .3-.2a.5.5 0 0 0 .2.3Z" fill="#335b9d"/><path d="M95.5 74.1v-.4c.1-.2.2-.2.4-.2l5.4-.9h.5v.4h-.3l-4.8.8h-1.2Z" fill="#3e65a3"/><path d="M25 73.2c-.1.1-.1.1-.1.2v.5L18.6 77c-.1 0-.2.3-.5.1a1.4 1.4 0 0 0 .2-.6 1.5 1.5 0 0 0 .9-.4l3.2-1.5h.1l1.6-.7h.2l.6-.3Z" fill="#476ca7"/><path d="M93.5 73.6a20 20 0 0 1-2.6.5l-7 1.3h-.3v-.2l7.3-1.3 2.5-.6Z" fill="#345c9e"/><path d="M112.9 74.2a.4.4 0 0 0-.1.3l-.6.3-3.1 1.3-2.3 1-.5.2c-.1 0-.2.1-.3-.1l.3-.6 1-.3 5.3-2.2Z" fill="#4067a4"/><path d="M51.4 70.8a.1.1 0 0 1-.1.1 31.2 31.2 0 0 0-4.2 1.8l-1.4.6h-.1c0-.1-.1-.2-.1-.3h-.1l.3-.3.6-.2 1.3-.5.7-.3c.2-.2.4-.1.6-.2a11.9 11.9 0 0 1 1.6-.8c.2-.1.5-.1.6-.3Z" fill="#3b63a1"/><path d="M61.4 75.1q0 .2-.3.3l-2.8.8-2.6.7H55v-.4l.4-.2 5.5-1.6h.5v.3Z" fill="#4067a4"/><path d="M101.8 74.6v.4l-.4.2h-.6a2.1 2.1 0 0 1-.8 0l-2.8.4-1.1.2h-.5c-.1-.1 0-.2-.1-.4 1.1 0 2.1-.3 3.2-.4l2.5-.4c.2-.1.4-.2.6 0Z" fill="#5d7eb3"/><path d="m101.8 74.6-4.5.6-1.5.2h-.3V75h.4l2.7-.4 2.8-.4h.4Z" fill="#5578af"/><path d="M112.7 75v.3h-.1l-.3.2-5 2.2-1.3.6c-.1 0-.2.1-.3-.1l.2-.4a2 2 0 0 1 .8-.4l5.3-2.3c.2-.1.4-.3.7-.2Z" fill="#4e72ab"/><path d="M61.4 74.8c-2.2.6-4.3 1.1-6.4 1.8v-.4c2.1-.7 4.2-1.2 6.4-1.7.1.2.1.2 0 .3Z" fill="#3a62a1"/><path d="M61.5 76.1a.1.1 0 0 0-.1.1 3.2 3.2 0 0 1-.9.3l-5.1 1.6a.3.3 0 0 1-.4 0v-.3c0-.1.1-.2.3-.2l4.1-1.3 1.6-.5.3-.2c0-.1 0-.2.1-.2v.6Z" fill="#5477af"/><path d="m101.8 72.7-6.3 1v-.4l3.6-.6a12.6 12.6 0 0 1 2.7-.4Z" fill="#3a62a1"/><path d="M61.4 75v.4h-.1l-.6.2a49.9 49.9 0 0 0-5.1 1.6c-.2 0-.4.2-.6.1V77l2.5-.7 3.6-1a.5.5 0 0 0 .3-.5V74c0-.3-.1-.5 0-.7V74.5c.1.1.1.1 0 .2v.3Z" fill="#476da8"/><path d="M118.2 71.9c0 .2-.2.2-.3.3l-3.7 1.4-.7.2h-.4c0-.2.1-.4 0-.5l-.2-.2c-.1-.1 1.5-.3 2.2-.5l3-1.2c0 .3.1.4.1.5Z" fill="#335b9d"/><path d="M112.7 75.3h-.1v.2h-.1l-.4.2-1.4.6h-.1a10.7 10.7 0 0 0-3.9 1.8h-.2l-.4.3h-.6a1.4 1.4 0 0 0 .2-.6 3.8 3.8 0 0 0 1.5-.5l5.2-2.3Z" fill="#5578af"/><path d="m61.4 76.5-.2.2h-.4l-.9.2h-.3l-4.1 1.4c-.2.1-.3.2-.5 0v-.4l6.4-1.9c.1.4.1.5 0 .5Z" fill="#5d7fb4"/><path d="M95.5 74.7v-.3l.3-.2 5-.7h.5c.2 0 .3-.1.5.1v.3l-.4.2-3.9.5-1.6.3Z" fill="#4a6ea8"/><path d="M112.9 74v.2l-2.7 1.1-3.6 1.5c-.1 0-.3.2-.3-.1a.4.4 0 0 1 .1-.3c0 .2.1.1.2.1l6.2-2.5Z" fill="#3a62a1"/><path d="M112.8 74.7v.3l-3 1.3-3.8 1.6a4.3 4.3 0 0 0 .1-.5c.2.2.4 0 .5-.1q3.1-1.2 6.3-2.7Z" fill="#476ca7"/><path d="m139.3 74.6 5.4-1.3 1.2-.3v.3c-.2.2-.5.2-.8.3l-3.4.8-2.1.6h-.3c0-.2-.1-.3 0-.4Z" fill="#3a62a1"/><path d="M24.8 74.7h-.1v.4h-.1l-.8.4h-.2a4.7 4.7 0 0 0-2 1l-.4.2-1.5.7h-.2l-.4.2h-.2l-.9.4c-.1 0-.3.2-.4 0v-.3a11.2 11.2 0 0 0 2.5-1.1Z" fill="#5d7eb4"/><path d="m124 74.3 6.2-1.7h.3v.3a.4.4 0 0 1-.4.2l-5.5 1.6a.6.6 0 0 1-.6 0Z" fill="#3a62a1"/><path d="M51.1 70.3a2.6 2.6 0 0 1-1.1.7l-.6.3-2.9 1.1c-.4.2-.8.2-1 .5h-.1l-.2-.2h-.1l5-2c.3-.2.6-.2.9-.5Z" fill="#355e9f"/><path d="m55 77.5 6.4-2c0 .6-.6.5-.9.6a41.6 41.6 0 0 0-5 1.6H55Z" fill="#4e72ab"/><path d="M.5 73.9c.1.3.4.1.6.2l2.3.4a8.1 8.1 0 0 0 2.2.1 7.8 7.8 0 0 1 1.6.2v.2a2.2 2.2 0 0 1-1.1.1 11.7 11.7 0 0 1-3.2-.4l-2-.2c-.2 0-.4 0-.5-.2Z" fill="#5b7db3"/><path d="m101.8 73.5-3.7.5-2.6.4v-.3l5.7-1h.6Z" fill="#446aa6"/><path d="m95.5 74.7 3.8-.5 2.5-.4v.3l-2.9.5-3.4.4Z" fill="#4f73ab"/><path d="M149.8 83.5h-.6a.4.4 0 0 1 .1-.3l.4-.3a.4.4 0 0 0 .3-.6l-.8.5c-.2-.4-.5-.6-.9-.4a1.9 1.9 0 0 0-.2 1.5h1.8c.1 0 .1-.1.1-.2s0-.2-.2-.2Zm-1.2.1c-.3 0-.2-.2-.2-.4s-.1-.4.2-.4.3.2.3.4 0 .4-.3.4Z" fill="#393737"/><path d="M5 75.8a5 5 0 0 0-2.1-.2c.1-.2.2-.2.3-.2h.5l-1.8-.2a1.1 1.1 0 0 0-1.2.4c-.2.2-.3.5-.6.5a7.7 7.7 0 0 1 .2-1.5h1.1l3.2.5 1.7.4h.5v.5h-.4l-1.1-.3Z" fill="#718fbf"/><path d="m126.7 75.2-.8.3-1.5.6c-.4.2-.4.2-.4-.3s.3-.2.5-.3l4-1.4 1.7-.5h.3v.3l-1 .4-2.1.7a.8.8 0 0 0-.7.2Z" fill="#5578af"/><path d="M145.4 93.9h-.5a.7.7 0 0 1-.5-.9.7.7 0 0 1 .7-.6.8.8 0 0 1 .8.6.7.7 0 0 1-.5.9Z" fill="#e23b3c"/><path d="M6.8 75.8c-.3.3-.6 0-.9-.1l-4.4-.8c-.4-.1-.9.1-1.2-.2v-.3l1.5.2c1.2.1 2.3.4 3.5.6l1.1.2h.4Z" fill="#6988ba"/><path d="M121.5 84.7c.3-.2.8 0 1-.4l.2.4c0 .2-.1.4-.2.4l-1.6.8c-.2.2-.5.1-.7.1H118a3.5 3.5 0 0 0 2.4-.6Z" fill="#7894bf"/><path d="M118.4 72.5c-.1.2-.3.2-.5.3l-4.1 1.7c-.2 0-.3.2-.5.1v-.4h.3l3.2-1.3 1.6-.6c-.1-.1 0 0 0 .2Z" fill="#4369a5"/><path d="M139.3 74.6v.4a.4.4 0 0 1 .1.3v2.2c0 .2.1.1.2.1l.6-.2c.1 0 .2-.1.2.1l-.2.4a2.7 2.7 0 0 0-.9 2.3c.1 1.9 0 3.8 0 5.7a.6.6 0 0 1-.1-.4V67.9a.4.4 0 0 1 .1-.3v7Z" fill="#abbcd8"/><path d="M61.4 76.5v.3a6.3 6.3 0 0 0-2.9 1h-.6l-2.1.7c-.3.1-.5.3-.8.2v-.4l2.2-.7 3.6-1.1c.3-.1.6-.1.6-.5h.1a.1.1 0 0 0-.1.1c.1.1.1.2 0 .2Z" fill="#6787b9"/><path d="M95.5 75.4v.4h.4l2.2-.3 1.8-.2 1.6-.2h.3v.2a1.7 1.7 0 0 1-1.1.3l-3.3.5-1.5.3h-.3Z" fill="#6988b8"/><path d="M41.4 56.3 39.9 58c-.1.2-.4.1-.7.1s0-.2 0-.2l.8-1.4a.2.2 0 0 1 .2-.2Z" fill="#e23c3d"/><path d="m118.5 74-1.7.7-2.8 1.2-.5.2v-.3c0-.1.1-.1.2-.2l4.6-2h.4v.2c.2 0 0 .1-.2.2Z" fill="#6988b8"/><path d="m118.7 73.4-2.5 1.1-2.7 1.2a.4.4 0 0 1-.1-.3 2.2 2.2 0 0 1 1.1-.5l3.4-1.4.7-.4a.8.8 0 0 1 .1.3Z" fill="#5f80b4"/><path d="M124 75.8c0 .2 0 .4.4.2a4.4 4.4 0 0 1 1.5-.5l-1.7 1.1c-.1.2-.2.3-.2.5V86c-.1 0 0-.2 0-.3V67.9c0-.1-.1-.2 0-.3v7a.4.4 0 0 1 .1.3v.6a.4.4 0 0 1-.1.3Z" fill="#5e7fb4"/><path d="M139.3 76.8v-.3a1 1 0 0 1 .5-.4l4.2-1.3 1.4-.5h.5v.2h-.2l-4.3 1.4-1.8.6Z" fill="#5c7eb3"/><path d="M149 81.9c-1 0-1 0-1-1v-.3h.4v.7c0 .1 0 .2.2.2s.2 0 .2-.2v-.6c0-.1 0-.2.2-.2a.2.2 0 0 1 .2.2v.5c-.1.2-.1.3.2.3s.3 0 .3-.3v-.6c0-.1 0-.2.2-.2s.1.1.1.2v1c0 .3 0 .4-.3.3Z" fill="#3a3737"/><path d="M74.5 74.8 77 74l.2.4c.1.2-.1.2-.2.3l-2.1.9c-.2 0-.3.1-.4-.1s-.1-.5 0-.7Z" fill="#325b9d"/><path d="M139.3 75.8v-.2c.1-.2.3-.2.4-.3a41.2 41.2 0 0 1 4.7-1.3l1.1-.4c.2 0 .3-.1.4.1v.2l-.3.2-5.8 1.7c-.2 0-.3.1-.5 0Z" fill="#4a6ea8"/><path d="M2.9 75.6A2.3 2.3 0 0 0 1 77.2l-.6.6c-.1.1-.1.2-.3.1a8.6 8.6 0 0 1 0-1.6c.2.1.1.3.1.5l.8-.7.4-.4a1.1 1.1 0 0 1 1.4-.2Z" fill="#7f9bc8"/><path d="m145.9 74.4-1.3.3-2 .6-3.3 1.2v-.4l.4-.2c1.9-.7 3.9-1.3 5.8-1.8h.4ZM118.6 73a7.5 7.5 0 0 1-2 1l-2.3 1-.9.4V75l.4-.2 4.5-1.9h.4Z" fill="#5578af"/><path d="M124 75.5v-.3l1-.4a36.8 36.8 0 0 1 4.7-1.5 1.1 1.1 0 0 1 .8-.1v.2l-.6.3-4.8 1.5a3.5 3.5 0 0 1-1.1.3Z" fill="#4a6fa8"/><path d="M100.1 85.2a9.1 9.1 0 0 0 1.7-.9v.9a3.8 3.8 0 0 1-2.9.8c-.1-.2.1-.2.1-.2Z" fill="#7995c0"/><path d="M2.9 75.6c-.6-.2-1.1-.3-1.6.3L.1 77.2v-.9l.4-.4c.5-.8 1.3-.6 2.1-.5l1.2.2c-.3.1-.6-.1-.9.1Z" fill="#7896c4"/><path d="M139.3 77q.1-.3.3-.3l2-.7 3-.9 1-.3h.3v.2c-.2.3-.6.3-.9.4l-2.1.7-2.6.7-.6.2Z" fill="#6a88b9"/><path d="M118.3 72.1c-.3.4-.9.4-1.3.6l-3.8 1.5V74l4.8-2h.2Z" fill="#3a62a1"/><path d="m29.9 71.7-3.6 1.7-.9.4a.2.2 0 0 1-.3 0v-.2l.3-.2 4.3-2h.3v.2c.1 0 0 .1-.1.1Z" fill="#496ea8"/><path d="M6.9 75.5c-1.7-.1-3.4-.7-5.1-.9H.7c-.1 0-.3 0-.3-.2l4.2.6h2.5Z" fill="#6181b6"/><path d="M149.1 86c-.5 0-.9-.1-1-.6a.8.8 0 0 1 .3-1s.1-.2.2 0 .2.2 0 .3-.3.6 0 .8a.8.8 0 0 0 1-.1c.2-.2.1-.5-.2-.7s-.1-.2 0-.3.1-.1.2 0a.7.7 0 0 1 .4.9.9.9 0 0 1-.9.7Z" fill="#393637"/><path d="m145.9 74.1-3.3 1-3.3 1v-.3l6.6-1.9Z" fill="#4f72ab"/><path d="M149.1 80.1c-.5 0-.8-.1-1-.5s-.1-.8.2-1 .2-.2.3-.1.2.2 0 .4a.4.4 0 0 0-.1.6c.1.3.5.3.8.2a.4.4 0 0 0 .4-.4c0-.3-.1-.4-.3-.4s-.1-.3-.1-.4.2 0 .3 0a.8.8 0 0 1 .4 1 .9.9 0 0 1-.9.6ZM150 69.7c0-.3-.2-.4-.4-.5a2 2 0 0 0-1.1 0 .5.5 0 0 0-.4.7.6.6 0 0 0 .6.5c.4-.1.6-.2.6-.7s-.2-.1 0-.2h.4c.1.1 0 .2-.1.3s-.1.2-.1.3.2 0 .3 0 .2-.2.2-.4Zm-1.3.3a.3.3 0 0 1-.3-.3c0-.1.1-.2.3-.2s.3 0 .3.2a.3.3 0 0 1-.3.3Z" fill="#393637"/><path d="m124 75.5 5-1.6 1.5-.5v.2L126 75l-2 .8Z" fill="#4f73ab"/><path d="M136.9 84.3v-4.2c.1 0 0 .2 0 .3v5.3c0 .3 0 .4-.3.4h-2.9v-.2h.2a3.6 3.6 0 0 0 2.6-.9c.1 0 .2-.1.2-.3a.8.8 0 0 1 .2-.4Z" fill="#809ac3"/><path d="m119 74.1-.9.3-.4.2-1.4.6-2.3.9c-.2.1-.3.2-.4.1h-.1l5-2.1c.1-.1.3-.1.3-.3Z" fill="#718fbc"/><path d="M139.3 75.3V75l6.6-1.7v.2h-.2l-5 1.3-1.1.4c-.1.1-.2.2-.3.1Z" fill="#3f67a3"/><path d="m139.3 75.3 3.3-1 3.3-.8v.2c-1.9.4-3.7.9-5.6 1.5l-1 .4Z" fill="#456ba6"/><path d="M124 74.9v-.3a3.3 3.3 0 0 0 1.4-.4l5.1-1.4v.2l-.3.2a41.3 41.3 0 0 0-5 1.5l-.8.2Z" fill="#3f66a3"/><path d="m95.6 76.4 6.2-1v.2l-.5.3-3.1.5a14.6 14.6 0 0 0-2.2.3c-.1.1-.3-.3-.4.1Z" fill="#728fbd"/><path d="m124 74.9 1.8-.5 4.7-1.4v.2l-4.8 1.4a11.5 11.5 0 0 1-1.7.6Z" fill="#446aa6"/><path d="M139.3 77.6v-.2c.1-.2.3-.2.5-.3l3.7-1 2-.5h.4l-.5.3-1.4.4-.9.2h-.9l-1 .4-1.5.4Z" fill="#849ec5"/><path d="M78 75.8v.2c.1.2-.1.3-.2.4l-3 1.6c-.1.1-.3.2-.4.1v-.4l1.2-.8 2-1Z" fill="#5e7fb4"/><path d="M30.2 71.9h-.1l-2.9 1.4-1.7.8h-.3a.4.4 0 0 1-.1-.3v-.2h.1c-.1.2-.1.4.2.2l4.5-2.1c.1 0 .1-.1.1-.2a.8.8 0 0 1 .2.4Z" fill="#4e72ab"/><path d="m145.9 74.8-3.4 1c-1 .3-1.9.8-2.9 1l-.3.2v-.2a14.8 14.8 0 0 1 2.7-1l3.9-1.2Z" fill="#6282b5"/><path d="M24.9 73.4c-.3.4-.7.4-1.1.6l-5.1 2.5c-.1.1-.3.3-.4 0l.2-.3h.2l3-1.4 2.7-1.3Z" fill="#4269a5"/><path d="M149.7 71.4v-.6h.3v.7c0 .1.1.3 0 .4l-.5-.2-.6-.6h-.5c-.1.2 0 .3.2.3a.3.3 0 0 1 0 .4c0 .1-.2 0-.2 0a.6.6 0 1 1 .5-1.1c.3.1.5.4.8.7Z" fill="#393637"/><path d="M149.6 72.2h-.3c0 .5-.4.2-.6.3h-.2c-.2 0-.4-.1-.5.1s.2.3.3.4l.9.5h.4a1.2 1.2 0 0 1 .4-.9c.3-.2-.5-.1-.4-.4Zm-.3 1-.6-.3c.3 0 .7-.3.6.3Z" fill="#383536"/><path d="M91 75.5h-.3l2.8-.5a.8.8 0 0 0 .7-.2l.2.5c-.3.3-.7.2-1 .3H91Z" fill="#4e72ab"/><path d="m101.8 75.2-1 .2c-1.7.1-3.3.4-5 .6-.2.1-.3 0-.3-.2l2.5-.3a19 19 0 0 1 2.5-.3l1.3-.2Z" fill="#6584b6"/><path d="M100.1 85.2c-.2.3-.6.4-.9.6l-.3.2h-3.5l3.8-.7Z" fill="#728fbc"/><path d="M139.3 77c1.1-.3 2.2-.5 3.3-.9l3.3-1.1v.3c0 .1-.1.1-.2.1l-1.3.5-4.8 1.3h-.3Z" fill="#718fbc"/><path d="m30 71.2-3.2 1.5-1.6.8h-.1v-.2l2.2-1 2.6-1.3c0 .1.1.1.1.2Z" fill="#4369a5"/><path d="M118.4 72.8a.1.1 0 0 1-.1.1l-4.6 1.9c-.1 0-.3.1-.4 0v-.2l5.1-2.1a.3.3 0 0 1 .1.2Z" fill="#4a6fa8"/><path d="m74.5 78.1 3.4-1.8c.1-.1.2-.1.2-.3v.3c.1.2 0 .3-.1.4l-1.1.5-2.1 1.1c-.1.1-.2.3-.4.1Z" fill="#6988b9"/><path d="M74.5 78.1v.5c.1.2.2.1.3 0s.2-.2.3 0a1.8 1.8 0 0 0-.7 1.7c.1 1.9 0 3.8 0 5.7-.1 0 0-.2 0-.3v-16s-.2-.2.1-.2-.1.1-.1.2v5.9c.2.1.1.3.1.4v1.3a.6.6 0 0 1-.1.4Z" fill="#839cc5"/><path d="m128.7 87.9-1.4 1.3h-.6c-.1 0 .1-.2.2-.4h.1a1.3 1.3 0 0 1 1.7-.9Z" fill="#e23c3d"/><path d="M74.5 77.7v-.4a11 11 0 0 1 1.4-.9l1.9-1 .2.4Z" fill="#5678b0"/><path d="M74.5 76.9v-.4a3.9 3.9 0 0 1 1.1-.6l1.4-.7a.7.7 0 0 1 .6-.1v.2c.1.2 0 .2-.1.2a10.7 10.7 0 0 1-2.2 1l-.5.3c0 .1-.1.2-.3.1Z" fill="#486da8"/><path d="M77.6 75.1a13.3 13.3 0 0 0-2.1.9l-1 .5V76l.7-.4 2.2-.9Z" fill="#4067a4"/><path d="M133.8 86h-2.4a4.7 4.7 0 0 0 1.6-.4l2.6-.7c0 .2-.1.2-.2.3Z" fill="#718fbc"/><path d="M119.5 86.1h.2c1.1.2 1.9-.6 2.8-1s.2-.1.2-.3l.2.8a1.4 1.4 0 0 1-1.1.5h-2.3Z" fill="#7f99c2"/><path d="m118.6 72.9-5.3 2.1v-.2l2.1-.9 2.9-1.1h.2Z" fill="#4f73ab"/><path d="m55 78.9 2.7-.9a.7.7 0 0 1 .6-.1 12.2 12.2 0 0 1-3.3 1.4Z" fill="#7190c0"/><path d="M148.8 67.6h.8c.3 0 .4.2.4.5s0 .5-.3.6-.3.2-.3 0a.2.2 0 0 1 .1-.4l.2-.2c0-.2-.2-.2-.3-.2h-1.1c-.2 0-.3 0-.3-.2s.1-.2.3-.2Z" fill="#3e3a3b"/><path d="M77.4 74.7c-.3.3-.7.3-1 .5l-1.9.8v-.4l2.5-1 .2-.2Z" fill="#3a62a1"/><path d="M148.4 74.2v.6c0 .1.1.2-.2.2s-.2-.1-.2-.2V74c0-.3.2-.3.4-.2a2.5 2.5 0 0 0 1.4.6c.2 0 .2.1.2.3s-.1.1-.2.1a4.2 4.2 0 0 1-1.4-.6Z" fill="#3c3839"/><path d="m51 85.5 1.3-.4.3-.2.3.5a2 2 0 0 1-1.5.6h-.8c-.2-.1 0-.1 0-.2s.3-.1.4-.3Z" fill="#7995c0"/><path d="m33.5 85 1.2-.2-.2.3-1.5.7c-.3.2-.7.1-1.1.1s0-.2.2-.3Z" fill="#7894c0"/><path d="M31.9 86c1.1.1 1.9-.6 2.8-1.1l.2.5h-.1c-.5.2-.8.7-1.4.5h-1.5Z" fill="#7e99c2"/><path d="m83.6 76.6 3.6-.6h.3l-.9.5-2.6.4h-.4Z" fill="#4f73ab"/><path d="M12.5 67.5c-.1.1-.2.2-.3.1a10.8 10.8 0 0 0-4.4-.1h-.6a10.6 10.6 0 0 1 5.3 0Z" fill="#8fa4c5"/><path d="m74.5 76.9 3.1-1.5a.1.1 0 0 0 .1-.1h.1c0 .1 0 .2-.1.2l-3.2 1.7Z" fill="#4f73ac"/><path d="m83.6 76.9 2.8-.5h.2l-.7.5-1.5.2c-.3.1-.5.2-.8 0Z" fill="#5578af"/><path d="m139.3 77.2 5.1-1.4a8.3 8.3 0 0 1 1.5-.4v.2l-6.6 1.8Z" fill="#7b96c1"/><path d="M75.2 78.6c-.2-.1-.3.1-.4.2s-.3 0-.3-.2a3.9 3.9 0 0 1 1.1-.6l2.4-1.2c.2-.1.3-.2.4-.1h.1c.1.1-.1.2-.2.2l-.9.5a6.5 6.5 0 0 0-2.2 1.2Z" fill="#7995c0"/><path d="M98.2 86.1c.2-.2.4-.1.7-.1a2.6 2.6 0 0 0 2.2-.6l.7-.2c0 .9 0 .9-.8.9Z" fill="#7f99c2"/><path d="M78.9 86.1c.8-.2 1.7-.2 2.1-.9s.1-1.3.1-2a8.5 8.5 0 0 0 0-1.6c.1.1.1.2.1.4v3.7c0 .3 0 .4-.3.4Z" fill="#d1dae9"/><path d="m148.7 76 .2.5c-.5 0-.6-.4-.8-.7s0-.2.1-.2h1.6c.2 0 .2.1.2.3h-1.3Z" fill="#393637"/><path d="M126.7 75.2c.3-.4.7-.3 1.1-.4a14.3 14.3 0 0 1 2.7-.9v.2a6.7 6.7 0 0 1-1.5.6h-.1c.2-.1.4 0 .7 0h.1a10.3 10.3 0 0 0-3 .5Z" fill="#5c7eb3"/><path d="M149 78.1h-.7c-.2 0-.3 0-.3-.3s.1-.2.3-.2h1.5c.1 0 .2 0 .2.3s-.1.2-.3.2Z" fill="#474142"/><path d="M92.1 75.6a1.8 1.8 0 0 1 1-.2l1.3-.2.2.3c0 .2-.2.2-.3.2l-.9.2Z" fill="#5578af"/><path d="m78.4 76.7-3.9 1.9v-.2l3.5-1.8c.2-.1.2-.2.2-.3Z" fill="#718fbc"/><path d="M51 85.5c0 .4-.3.3-.5.5h-3Z" fill="#728fbc"/><path d="m65.7 85.5 3.5-1.8a6.9 6.9 0 0 1-3.5 1.8Z" fill="#aabcd8"/><path d="m20.9 77.4-.9.6-1.9.9c-.2.1-.4.3-.7.2l.2-.5h.6l.4-.2h.4l.5-.2 1.1-.5c.1-.4.2-.5.3-.3Z" fill="#6f8dbe"/><path d="m83.6 77.2 2-.3h.3l-.7.5-1.2.2h-.4Z" fill="#5e7fb4"/><path d="M.1 77.9c.4-.1.5-.5.9-.7s-.3 1.5-.6 2.1a5.8 5.8 0 0 1-.3-1.4Z" fill="#87a0c9"/><path d="m98.1 76.3 2.4-.4 1.3-.3v.4h-.1a8 8 0 0 1-1.5.3l-1.6.2h-.5Z" fill="#7c97c1"/><path d="M93.4 75.9c.2-.4.6-.1.8-.3h.4l.6.9Z" fill="#5e7fb3"/><path d="M50.3 86.1h.2a3.4 3.4 0 0 0 2.4-.6 2.1 2.1 0 0 1 .4.6h-3Z" fill="#809ac3"/><path d="M20.9 77.4a2.9 2.9 0 0 0-1.4.5l-.5.2h-.1l-.3.2-.4.2-.6.2a2.6 2.6 0 0 0 1.2-.5l2.6-1.2h.2Z" fill="#6686b8"/><path d="M143.7 86.1a5.3 5.3 0 0 0 2.2-.8c.1.8.1.8-.7.8Z" fill="#809ac2"/><path d="M13.8 84.9c.3-.1.1-.4.2-.7v1.3c0 .2-.1.2-.3.2l-1 .4c0-.2.1-.3.2-.3Z" fill="#5e7fb3"/><path d="M83.6 77.6a9.2 9.2 0 0 1 1.6-.1l-.5.5a2 2 0 0 1-1.1.1Z" fill="#6887b8"/><path d="m17.4 79.1 2.3-1.1h.3a7.1 7.1 0 0 1-2.6 1.3Z" fill="#7996c3"/><path d="m28 85.8 2-.3c0 .3-.3.3-.4.5h-1.3a.3.3 0 0 1-.3-.2Z" fill="#6181b5"/><path d="M33.2 86.1c.7 0 1.1-.5 1.7-.7.3.4.2.7-.4.6Z" fill="#859ec5"/><path d="m13.8 84.9-1.1 1.2-1 .2Z" fill="#5476ae"/><path d="M129.6 74.8h-.9l1.8-.6v.3c-.2.2-.6.2-.9.3Z" fill="#6584b6"/><path d="M5 75.8c.3-.4.5 0 .8 0l1 .2v.6a.3.3 0 0 0-.3-.3Z" fill="#7893bf"/><path d="M77.4 77.5c.2-.4.6-.3.9-.5s.2-.1.2-.2l.3.6a6.6 6.6 0 0 0-1.4.1Z" fill="#869fc6"/><path d="M121.4 86.1a3.9 3.9 0 0 0 1.5-.6c.3.4.3.6-.4.6Z" fill="#859ec5"/><path d="M12.8 73.9a2.8 2.8 0 0 1 1.2.4v.5Z" fill="#4166a3"/><path d="M83.6 78.1c.4 0 .7-.2 1.1-.1l-.4.5h-.7Z" fill="#708ebc"/><path d="m108.4 86.1 1.7-.4c0 .3-.1.4-.4.4Z" fill="#859cc2"/><path d="M83.6 78.5c.2 0 .5-.2.7 0l-.6.8Z" fill="#7c96c1"/><path d="m105.5 78.9 1.2-.4-1.3.8Z" fill="#5e7fb4"/><path d="m129.6 74.8.9-.4v.5h-.9Z" fill="#6f8dbb"/><path d="m21.3 85.9.8-.2v.2h-.7Z" fill="#dde1e8"/><path d="M145.9 75.4a4.2 4.2 0 0 1-1.5.4l1.5-.5Z" fill="#7995c0"/><path d="M21.3 85.9h-.1c.3 0 .6.1.8-.1s0 .2-.2.2h-1.3Z" fill="#c9d3e3"/><path d="M14.2 79.3h-.8l.4-.3c.1-.1.3 0 .4.1Z" fill="#aebfd9"/><path d="M117.8 86h-1.5c-.1 0-.2 0-.2-.2h1.7Z" fill="#718fbc"/><path d="M14.2 79.1h-.4l.4-.3Z" fill="#9bb0d0"/><path d="M29.3 86.1h.3a.9.9 0 0 1 1 0h-1.3Z" fill="#718fbc"/><path d="M23.8 59.4h-.1v-.2Z" fill="#f2aa98"/><path d="M89.8 76.8a.2.2 0 0 1 0-.3h.1Z" fill="#959ac5"/><path d="M25.5 75.4h-.1V75a.1.1 0 0 1-.1-.1.4.4 0 0 0-.1-.3v.6a.4.4 0 0 1 .1.3v.4a.8.8 0 0 0 .1.4Zm-.9-.1c0 .1-.1.1-.1.2v.2c0-.2.1-.3.1-.5V75h-.1Z" fill="#fff"/><path d="M30.2 71.9v.2h-.1l-.8.4-3.7 1.8h-.4v-.4l3.6-1.7 1.1-.5a.2.2 0 0 1 .3 0Z" fill="#5578b0"/><path d="M30 72.7a1.4 1.4 0 0 1-.7.8H29l-.6.4-2.7 1.2h-.3V75h.1l1-.5 3.1-1.5.5-.2Z" fill="#6988b8"/><path d="M30.1 72.5H30l-2.6 1.2-1.7.9h-.5v-.2h.1c1.5-.7 2.9-1.5 4.4-2.1a.5.5 0 0 1 .4-.2.1.1 0 0 1 .1-.1c0 .3 0 .4-.1.5Z" fill="#5d7eb3"/><path d="M30.1 72.5c0 .1 0 .2-.1.2a33.1 33.1 0 0 0-3.3 1.5l-1.3.7h-.1a.4.4 0 0 0-.1-.3h.4l4.2-2.1c.1-.1.1-.2.3-.1Z" fill="#6382b5"/><path d="M31.9 86h-1.1c-.1-.1 0-.2.1-.2a5.2 5.2 0 0 1 1.3-.6l1.3-.2-1.3.8Z" fill="#718fbc"/><path d="m32.2 85.2-1.4.8h-1.2c0-.3.4-.2.4-.5Z" fill="#6a88b9"/><path d="m29.3 73.5-1.3.8-.7.3-.7.4-.9.3h-.3v-.2l3.5-1.6c.1 0 .2-.2.3-.1Z" fill="#708ebc"/><path d="M28 74.3c-.8.5-1.7.9-2.5 1.5a.8.8 0 0 1-.1-.4l2.4-1h.2Z" fill="#7c97c1"/><path d="M24.7 75.2v.4h-.8Z" fill="#6585b7"/><path d="M24.6 75.5c0 .2-.1.3-.1.5h-.3l.3-.2Z" fill="#7792bf"/><path d="m98.1 76.4 3.1-.4h.5l-.2.2a11.3 11.3 0 0 1-1.8.3l-2.1.4h-.7l-.5-.2c0-.2.2-.2.3-.2h1.4Z" fill="#849dc5"/><path d="M97.9 77.2h-.6c-.1-.2 0-.2.1-.2l1.7-.3 2-.3h.3l-.4.3a15.4 15.4 0 0 1-3.1.5Z" fill="#97adcf"/><path d="M97.9 77.2a16.7 16.7 0 0 1 3.1-.5 3.1 3.1 0 0 1-3.1.5Z" fill="#a5b9d6"/><path d="m101.4 76.4-1.8.2-2.2.4h-.5c0-.1-.1-.2 0-.2l4.5-.6h.1Z" fill="#8ca4ca"/><path d="M97.7 76.5h-.4c-.3.1-.6 0-.9.2H96a1.1 1.1 0 0 1 .8-.2l1.3-.2h-.4Z" fill="#7c97c1"/><path d="M42.8 73.2c0 .2-.1.3 0 .5 0 .2-.1.3 0 .5h.1v-1.1Zm2.3-.6Zm.3.3Zm.2.3Zm.2.7v.7c-.1.1-.1.3-.2.4s-.2.3-.2.4h.1l.2-.3c.1-.1.1-.3.2-.4a.4.4 0 0 0-.1-.8Zm-1.1-1.5Zm-1 3.5h-.6c-.2-.1-.2-.3-.2-.8v-.4h-.1c-.1.1 0 .2 0 .3a.5.5 0 0 0 0 .5v.2h.9Z" fill="#fff"/><path d="M42.9 75.1a.1.1 0 0 0-.1.1l-1.1.5-2 1h-.1l-.2.2a7.2 7.2 0 0 1-2.5.7c.3-.3.7-.3 1-.5l2.8-1.3 2.2-1Z" fill="#4369a5"/><path d="m51.5 72.5-.6.2-4 2h-.4l-.4.2c-.2.1-.3.2-.4.1h-.1c.1-.1.1-.3.2-.4h.1a5.2 5.2 0 0 1 1.3-.6l3.3-1.6.8-.3h.3s.1.3-.1.4Z" fill="#5679b0"/><path d="m45.8 73.9 5.5-2.5a.2.2 0 0 1 .3 0v.2a3.9 3.9 0 0 1-1.1.6l-4.3 2c-.2 0-.3.2-.4 0Z" fill="#496ea8"/><path d="M51.6 71.9h-.1l-2.8 1.2-2.8 1.3 5.6-2.5a.1.1 0 0 1 .1-.1Z" fill="#4f73ab"/><path d="M47.4 75a6.1 6.1 0 0 1-1.3.3c-.1.1-.1 0-.1 0s0-.2.1-.2l.8-.5 2.9-1.3 1.3-.6c.2-.2.3-.1.4.1v.2l-1.7.9-1.6.7Z" fill="#6181b4"/><path d="M44.3 75.9h-.8a10.5 10.5 0 0 0-3.9.8c0 .1-.1.1-.2.1h-.1c0-.1 0-.1.1-.1a21.6 21.6 0 0 1 3.4-1.7h.1c0 .5 0 .7.2.8h1.2Z" fill="#486da7"/><path d="M47.4 75c.1-.3.4-.2.5-.4l.6-.3c1-.4 1.9-1 2.9-1.3a1.9 1.9 0 0 1-1.1.9 17.2 17.2 0 0 1-2.9 1.1Z" fill="#6786b7"/><path d="M51.5 72.5v.3h-.1c0-.1-.2 0-.3 0l-4.9 2.4s-.2 0-.1.1H46l-.7.2h.1c0-.1.1-.2.2-.4h.1a3.9 3.9 0 0 0 1.4-.5l4.2-2h.2Z" fill="#5c7db3"/><path d="M61.4 76.5v-.2c.1.1.1.2 0 .2ZM61.4 75.1ZM61.4 74.8v-.2c.1.1.1.1 0 .2ZM61.4 76.8ZM61.5 76.1a.1.1 0 0 0-.1.1V76ZM63.7 73.5ZM65.5 75.3h-.1V75c0-.1 0-.2-.1-.2v-.3h-.2l-.3-.3-.2-.2h.3l.3.3h.2a.1.1 0 0 0 .1.1v.6h.1Z" fill="#fff"/><path d="M71 72.6v.3h-.1l-.7.2-4.8 1.2h-.5l-.3-.3h.4l5.6-1.3Z" fill="#4369a5"/><path d="M71 72.5h-.1l-3.7.9-2.5.5h-.1l-.2-.2h-.1l4.1-1 2.3-.5Z" fill="#3a61a1"/><path d="M70.4 74a11 11 0 0 1-3.9 1.2l-1 .2h-.1l.6-.2 2.7-.7h.5l.8-.2h.4Z" fill="#6484b6"/><path d="M70.8 73.3c0 .2 0 .3-.2.4h-.4l-.7.2-.8.2-3.1.8h-.3c0-.1 0-.2-.1-.2h.1c0-.1.1-.1.2-.1l1.6-.4h.1l1.4-.3h.4l1.5-.4h.3Z" fill="#5578af"/><path d="M71 72.9v.2a.1.1 0 0 1-.1.1h-.1l-1 .2-.7.2h-.4l-1.4.3h-.1l-1.4.3H65l5.9-1.2Z" fill="#496ea8"/><path d="m70.6 73.7-.2.3h-.2c-.3-.1-.7.1-1 .2l-3.7 1h-.1V75h.1l3.4-.9 1.7-.4Z" fill="#5d7eb3"/><path d="M70.9 73.1a.3.3 0 0 1-.1.2l-5.5 1.5h-.1v-.3a24.6 24.6 0 0 0 2.9-.7l2.8-.7Z" fill="#4f72ab"/><path d="M112.5 75.8c0-.1.1-.1.1-.2a.9.9 0 0 0-.1.5v.3c0 .1-.1.2-.1.4v-.7a.4.4 0 0 1 .1-.3ZM112.7 75ZM112.9 74.2ZM112.9 74ZM112.9 73.5ZM113.1 73.9ZM113.2 74.1ZM113.3 74.6ZM113.3 74.8ZM113.3 75ZM113.4 75.3ZM113.5 75.7ZM113.8 77a6181264102439.9 6181264102439.9 0 0 0-.2-.6v-.2h-.1a.1.1 0 0 1 .1.1h.1v.3h.1v.2Z" fill="#fff"/><path d="M121.5 84.7a9.1 9.1 0 0 1-1.3.8 2.9 2.9 0 0 1-2.2.5c-.1-.1 0-.2.1-.2l1.2-.6Z" fill="#718fbc"/><path d="m118.1 74.4-.6.5h-.2l-3.3 1.5h-.4v-.2h-.1a5.5 5.5 0 0 0 1.8-.6l2.7-1.1h.1Z" fill="#7f99c2"/><path d="m119.3 85.2-1.3.8h-.2a4.9 4.9 0 0 1-1.7-.1Z" fill="#6a88b9"/><path d="m117.5 74.9-.3.3h-.2c-.9.5-1.9.8-2.8 1.2l-.4.2h-.1a.4.4 0 0 1-.1-.3.1.1 0 0 1 .1-.1l2.9-1.1c.3-.1.5-.3.8-.3Z" fill="#8ca4ca"/><path d="M112.6 75.6a.9.9 0 0 0-.1.5h-.1l-.8.4h-1a.1.1 0 0 1-.1-.1h.2Z" fill="#5d7eb3"/><path d="m117.2 75.2-.3.4h-.1a.1.1 0 0 0-.1.1l-2.5 1h-.2a.1.1 0 0 0-.1.1h-.1a.4.4 0 0 1-.1-.3 23.3 23.3 0 0 1 3.3-1.4Z" fill="#98adcf"/><path d="M116.5 76a2.6 2.6 0 0 1-2.3 1c0-.2.1-.2.2-.3l1.8-.7c.1-.1.2-.2.3 0Z" fill="#bbcae0"/><path d="m116.5 76-.9.3-1.4.7h-.4l1.9-.9.8-.3c.1 0 .2-.1.2.1Z" fill="#afbfd9"/><path d="M116.7 75.8c-.1-.2-.2 0-.3 0l-2.6 1.1c.3-.4.7-.4 1.1-.6l1.9-.7h.1Z" fill="#a5b8d6"/><path d="M112.5 76.2v.3h-.9a2.5 2.5 0 0 1 .9-.4Z" fill="#6786b7"/><path d="M112.4 76.5c0 .1-.1.2-.1.4a.4.4 0 0 0-.4-.2l.4-.2Z" fill="#7490bd"/><path d="m133.8 86 1.4-.8.4-.3 1.3-.6c0 .5-.1.8-.5 1a4.3 4.3 0 0 1-2.6.7Z" fill="#7793bf"/><path d="M133 85.6a2.3 2.3 0 0 1-1.6.4Z" fill="#6886b8"/><path d="M42.9 73.1v.6h-.1l-1 .5-4 1.7-1.2.5h-.1v-.7a3.8 3.8 0 0 0 1.5-.5l3.7-1.5Z" fill="#335b9d"/><path d="M143.4 76.6h-.3a9.8 9.8 0 0 1 2.3-.6 2.5 2.5 0 0 1-2 .6Z" fill="#97adcf"/><path d="m139.3 77.6 1.6-.5h.3l-.4.2-1.1.4c-.1.1-.3.2-.4 0Z" fill="#8ca4ca"/><path d="m139.3 77.7 1.5-.4-.4.4c-.3-.1-.6.1-.9.2s-.2 0-.2-.2Z" fill="#99aed0"/><path d="M42.9 73.7v.5l-5.8 2.6c-.6.3-.6.1-.6-.4h.1l2.8-1.3 3.4-1.4Z" fill="#365e9f"/><path d="M45.8 74.3v-.7Z" fill="#5679b0"/><path d="m17.6 78.7.6-.2c-.2.1-.3.3-.6.2ZM19 78.1l.5-.2ZM18.2 78.5c.1-.2.2-.2.4-.2ZM18.6 78.3l.3-.2c-.1.2-.2.2-.3.2Z" fill="#6787b9"/><path d="M97.3 76.6c.1-.2.3-.1.4-.1ZM97.7 76.5Z" fill="#7c97c1"/></svg>