<svg xmlns="http://www.w3.org/2000/svg" viewBox="0 0 150 150"><g data-name="contato"><path d="M62.5 53.8 50.1 57s-2 .7-2-1.3v-1.9L30 57.3v4.5l-6.8 2.1S13 66.4 13.1 72.5s6 7.6 8.6 7.6c0 2.1.1 15.3.1 15.3l69.2 5.2 23.6 1.6s17.8 1.3 16.3-8.5c0 0-1.7-9.6-1.8-12.3 3.5 0 7.8-1.4 7.8-6.3s-4.4-7.6-11.2-10-49-16.4-49-16.4l-26.5-1Z" fill="#fff" fill-rule="evenodd"/><path d="M62.5 53.8 50.1 57s-2 .7-2-1.3v-1.9L30 57.3v4.5l-6.8 2.1S13 66.4 13.1 72.5s6 7.6 8.6 7.6c0 2.1.1 15.3.1 15.3l69.2 5.2 23.6 1.6s17.8 1.3 16.3-8.5c0 0-1.7-9.6-1.8-12.3 3.5 0 7.8-1.4 7.8-6.3s-4.4-7.6-11.2-10-49-16.4-49-16.4l-26.5-1Z" fill="#fff" stroke="#30348d" stroke-miterlimit="10" stroke-width="4"/><path d="M36.5 80.8h5.9V79a2.1 2.1 0 0 0-2.3-2.3l-4.6-.2H31c-1.2.2-2.7.6-2.8 3.4v7s-.3 2.1 2.7 2.3h8.5s3 .2 3-2.6V84h-5.9v3s-.1.8-1.2.8-1.1-.2-1.1-.7v-8.4s-.2-.9 1.1-.9 1.1.7 1.1.9.1 2.1.1 2.1ZM52.5 86.8a1.1 1.1 0 0 1-1.1 1.1 1 1 0 0 1-1.1-1.1v-7.6a1.1 1.1 0 0 1 1.1-1.1 1 1 0 0 1 1.1 1.1Zm5.9-7.8a2.1 2.1 0 0 0-2.3-2.3l-4.6-.2H47c-1.2.2-2.7.6-2.8 3.4v7s-.3 2.1 2.7 2.3h8.5s3 .2 3-2.6V79ZM120 86.8a1.1 1.1 0 0 1-1.1 1.1 1 1 0 0 1-1.1-1.1v-7.6a1.1 1.1 0 0 1 1.1-1.1 1 1 0 0 1 1.1 1.1Zm5.9-7.8a2.1 2.1 0 0 0-2.3-2.3l-4.6-.2h-4.5c-1.2.2-2.7.6-2.8 3.4v7s-.2 2.1 2.8 2.3h8.4s3 .2 3-2.6V79ZM60.6 76.9v12.5h5.2v-5.8s.1-1.1.6 0l3 5.8h5V76.9h-5.2v5.5s-.2.8-.7-.2l-2.7-5.3ZM87.3 76.9v1.5h-2.7v11h-5.8v-11h-3.1v-1.5h11.6zM110.7 76.9v1.5h-2.6v11h-5.9v-11h-3v-1.5h11.5zM92.7 85.1l1-5.6 1 5.6Zm4.2-8.2h-7.2l-3.2 12.5H92l.6-2.8h2.3l.7 2.8h5.4Z" fill="#a8aaad" fill-rule="evenodd"/><path d="M35.5 80.1h5.9v-1.8a2 2 0 0 0-2.2-2.3l-4.6-.2h-4.5c-1.3.2-2.8.6-2.8 3.4v7s-.3 2.2 2.7 2.4h8.4s3 .2 3-2.6v-2.7h-5.9v3s0 .8-1.1.8-1.1-.2-1.1-.7V78s-.2-.9 1.1-.9 1.1.7 1.1.9ZM51.6 86.1a1.1 1.1 0 0 1-1.1 1.1 1 1 0 0 1-.8-.3 1.2 1.2 0 0 1-.4-.8v-7.6a1.1 1.1 0 0 1 1.2-1.1.9.9 0 0 1 .7.3 1.2 1.2 0 0 1 .4.8Zm5.8-7.8a2 2 0 0 0-2.2-2.3l-4.6-.2h-4.5c-1.3.2-2.8.6-2.8 3.4v7s-.3 2.2 2.7 2.4h8.4s3 .2 3-2.6v-7.7ZM119.1 86.1a1.1 1.1 0 0 1-1.1 1.1 1 1 0 0 1-1.1-1.1v-7.6a1.1 1.1 0 0 1 1.1-1.1 1 1 0 0 1 1.1 1.1Zm5.8-7.8a2 2 0 0 0-2.2-2.3l-4.6-.2h-4.5c-1.3.2-2.8.6-2.8 3.4v7s-.3 2.1 2.7 2.3h8.4s3.1.2 3.1-2.6v-7.6ZM59.7 76.2v12.5h5.2v-5.8s0-1 .5 0l3.1 5.8h5V76.2h-5.2v5.5s-.2.8-.7-.2l-2.7-5.3ZM86.3 76.2v1.5h-2.6v11h-5.9v-11h-3v-1.5h11.5zM109.8 76.2v1.5h-2.7v11h-5.8v-11h-3.1v-1.5h11.6zM91.8 84.4l1-5.6 1 5.6Zm4.2-8.2h-7.3l-3.1 12.5h5.5l.5-2.8H94l.6 2.8h5.5Z" fill="#e1282d" fill-rule="evenodd"/><path d="M120 91.9c0 .2-.3.3-.6.3s-.7-.1-.7-.3.3-.4.7-.4.6.1.6.4Z" fill="#fff" fill-rule="evenodd"/><path fill="#30348d" fill-rule="evenodd" d="M32.9 60.9h10.4v2.2l-10.4 2.8v-5zM32.9 59.8h10.4v-1.2l-8.9.6s-1.2 0-1.5.6ZM72.9 53.6l42.6 18.9a28.6 28.6 0 0 0 3.9 1.9c.8.2 9.7 1.8 10.5 1.8s5.7-1 .5-3.1-21-8.2-25.9-9.7ZM76.5 56.9l-39.7 9c-4.7 1.1-15.3 4.6-16.4 5.3s-4.4 2.6 0 2.8 25.3.9 37 .8l56-.5-2.7-1.2s-52-1.2-60.3-2c0 0-10.1-.4-.9-4.5s27-9.7 27-9.7ZM29.5 90.5H125s2.9 5.6-1.2 6.6c-2.2.4-30.2.5-57.1-3Z"/><rect x="94.6" y="92.8" width="1" height="2.75" rx=".2" fill="#fff"/><path d="M95.7 91.9c0 .2-.3.3-.6.3s-.7-.1-.7-.3.3-.4.7-.4.6.1.6.4Z" fill="#fff" fill-rule="evenodd"/><rect x="118.8" y="92.8" width="1" height="2.75" rx=".2" fill="#fff"/><path d="M96.5 95.5h1v-1.6s-.1-.7.9-.7 1.3.1 1.4.8v1.5h1.1V94s-.1-.8 1.1-.8 1 .8 1 .8v1.5h1.2V94s-.1-1.4-2-1.4a3.2 3.2 0 0 0-1.9.5 3.1 3.1 0 0 0-1.7-.5c-.7 0-2.1.5-2.1 1.4ZM107.1 95.2a1.1 1.1 0 0 1-1.1-1 1.1 1.1 0 0 1 2.2 0 1.1 1.1 0 0 1-1.1 1Zm0-2.6c-1.3 0-2.3.7-2.3 1.5s1 1.4 2.3 1.4 2.3-.6 2.3-1.4-1.1-1.5-2.3-1.5ZM106.3 92.4l1.8-.4c.1 0 .2-.1.1-.3a.7.7 0 0 0-.7-.2 2.5 2.5 0 0 0-.9.4c-.3.1-.6.6-.3.5ZM110.6 92.6h-.6s-.5 0-.2.5l1.5 2.1s.4.7.9 0 1-1.7 1.2-2-.1-.9-.5-.3l-.8 1.3a.3.3 0 0 1-.4 0c-.3-.7-.9-1.6-1.1-1.6ZM116 93.1a.9.9 0 0 1 1 .7h-2.1a1.1 1.1 0 0 1 1.1-.7Zm.7 1.9c-.3.1-1.7.1-1.7-.7h3.1a1.9 1.9 0 0 0-2.1-1.7c-2 0-2.1 1.3-2.1 1.5s.1 1.5 2.1 1.4 1 0 1.2-.3-.3-.3-.5-.2ZM123.1 93.1s.4.3.5.1-.2-.5-.6-.6a5.2 5.2 0 0 0-1.8.2c-.4.1-.7.3-.6.7s.8.7 1.3.8 1 .2 1 .4-.5.3-.8.4l-1-.2c-.3-.1-.7.1-.3.4a3.2 3.2 0 0 0 1.3.2c.4 0 1.3-.1 1.5-.6s-.1-.8-.5-.9a9.3 9.3 0 0 0-1.3-.4c-.2-.1-.4-.6.3-.6Z" fill="#fff" fill-rule="evenodd"/></g></svg>