<svg xmlns="http://www.w3.org/2000/svg" width="150" height="150" xml:space="preserve"><path style="stroke:none;stroke-width:1;stroke-dasharray:none;stroke-linecap:butt;stroke-dashoffset:0;stroke-linejoin:miter;stroke-miterlimit:4;fill:#000;fill-rule:nonzero;opacity:1" vector-effect="non-scaling-stroke" transform="translate(.6 -.02)" d="M39.9 54.5c-2.6 3-4.7 6.4-7 9.6a20.8 20.8 0 0 1-3.2 4c-.5.5-1 1-1.7.7-.7-.3-.6-1.1-.6-1.8a19.4 19.4 0 0 1 1.9-6.2 57.2 57.2 0 0 0 2.4-5.7 31.2 31.2 0 0 0-4.4 5.9c-2.1 3.3-3.5 6.9-5.3 10.3a9.5 9.5 0 0 1-1.7 2.7c-.4.3-.8.7-1.4.3-.6-.4-.2-.8-.1-1.2a17.6 17.6 0 0 1 1.7-3.7 97.9 97.9 0 0 1 11.7-17.6 11.7 11.7 0 0 1 1.6-1.5 1.4 1.4 0 0 1 1.7-.2c.5.5.3 1.1.1 1.7-1.2 2.3-2.4 4.6-3.5 7-1.1 2.4-2.2 4.5-2.6 7.2a2.5 2.5 0 0 0 1-1.1c3.1-4.2 5.8-8.6 9.1-12.6a12.8 12.8 0 0 1 2.9-2.8c.4-.2.9-.5 1.3-.1s.4.8.3 1.2a16.9 16.9 0 0 1-2 4.3 69.5 69.5 0 0 0-5.4 9.6 18.9 18.9 0 0 0-1.6 7.4 2.8 2.8 0 0 1-.1.9.9.9 0 0 1-.8.9.9.9 0 0 1-1.1-.8 6.3 6.3 0 0 1 .1-3.6c.9-4 2.9-7.5 4.8-11 .8-1.2 1.5-2.5 2.3-3.8.8-1.3-.3-.1-.4 0Zm60.2-2.3c.3-.9 1-2-.1-2.7-1.1-.7-1.8.4-2.5 1a56.4 56.4 0 0 0-8.5 9.8 7 7 0 0 1-3.9 3.1 5.8 5.8 0 0 0-2.5 1.2c-.3.3-.5.6-.2 1s.5.3.9.2a4.4 4.4 0 0 1 1.8-.4L82.9 69a15 15 0 0 0-1.6 3.4c-.1.3-.2.7.1.9.3.2.7.1 1-.2a5.2 5.2 0 0 0 1.5-1.8l3.9-6.5c.2-.3.4-.7.6-.8l6.5-1.8a6.4 6.4 0 0 1-.2.9c-.6 2.8-1.4 5.6-1.3 8.5 0 .7 0 1.7.9 1.8.9.1.8-.9.9-1.5.5-2.7.8-5.4 1.4-8 .3-1.1.4-2.3 2.1-2.2 1.7.1 1.3-.3 1.3-1s-.8-.8-1.4-.7c-.6.1-.8-.4-.6-1Zm-3.8 5.6a3.3 3.3 0 0 1-3.5 3.2l-2.2.5c.4-1.5 5.2-7.3 7.2-8.6-.3 1.8-1.2 3.3-1.5 4.9Zm-35.5 6.4c-.3-.3-.6 0-.8.1l-1.9.8c-.3.1-.8.2-1-.2-.2-.4.1-.6.3-.9l1.4-1.3c.2-.3.7-.6.3-1.1-.4-.5-.8-.2-1.2 0a7.8 7.8 0 0 0-2.2 1.5l-2.3 2a6.9 6.9 0 0 1 .7-1.5c.3-.6 1.4-1.2.7-1.8-.7-.6-1.5.4-1.9 1a13.8 13.8 0 0 0-1.7 2.5 45.2 45.2 0 0 0-2.3 5c-.2.4-.2 1.1-.6 1a1.4 1.4 0 0 1-1.1-1.2 3.4 3.4 0 0 1 .2-2 12.8 12.8 0 0 1 1.1-2.7c.7-1.1.4-2.3.5-3.4.1-1.1-.5-1-1.1-1.1a3.4 3.4 0 0 0-2 .3c-2.8 1.2-5.6 6-5.3 9 .3 3 1.3 2.3 2.9 1.5a10.5 10.5 0 0 0 1.9-1.8 4.5 4.5 0 0 0 .2.8c.2 1.1.7 2 1.9 2s2.4.2 3.1-1.6a19.8 19.8 0 0 1 4.3-5.9c.3 1.6.8 2.1 2 1.9a6.1 6.1 0 0 0 3.7-2.1c.2-.2.4-.6.2-.8Zm-16.9 5.3a1.1 1.1 0 0 1-1.2.4c-.4-.2-.3-.7-.3-1.2a9.4 9.4 0 0 1 3.2-5.6 1.7 1.7 0 0 1 1.2-.5c.7.1 1.2.5.8 1.2a42.8 42.8 0 0 1-3.7 5.7Zm29.3 1.8c-1.2-.7-1.1-1.7-.9-2.8l.6-1.7a8.6 8.6 0 0 0 1.2-4.2c0-1.1-.4-1.8-1.5-1.7a4.6 4.6 0 0 0-3.2 1.3 12.4 12.4 0 0 0-3.4 5.3 5.7 5.7 0 0 0-.3 2.9c.2 1.5 1.2 2 2.6 1.4a5.5 5.5 0 0 0 2.2-2.1c.3 2.2.9 3 2 3s.9.1 1.1-.4a.8.8 0 0 0-.4-1Zm-3.3-2.9a7.4 7.4 0 0 1-1.2 1.3.8.8 0 0 1-.9.2c-.4-.1-.4-.5-.4-1.1a9.9 9.9 0 0 1 3.3-5.8 1.3 1.3 0 0 1 1.8-.1c.7.6 0 1.1-.2 1.6Zm54-2c-.4-.3-.6.2-.9.5l-2.1 1.9a5.2 5.2 0 0 1-3.1 1.4c-.6.1-1.2 0-1.4-.8-.2-.8.4-.8.9-1.1a10.1 10.1 0 0 0 4.6-4.3 1.7 1.7 0 0 0-2.3-2.5 9.8 9.8 0 0 0-5.4 7.2 2.6 2.6 0 0 0 3.3 3.1 10.3 10.3 0 0 0 6.1-3.9c.2-.1.4-.2.3-.5-.1-.3.3-.8 0-1Zm-4.5-2.9c.2-.3.6-.6.9-.4.3.2.3.8.1 1.2a6.1 6.1 0 0 1-3.9 2.7 11.5 11.5 0 0 1 2.9-3.5Zm4.8 3.9c.3-.2.4-.5.7-.7a.6.6 0 0 1 .7 0c.3.2.1.4 0 .6-.1.2-.3.8-.4 1.2a2 2 0 0 0 .7 2.3 1.5 1.5 0 0 0 1.8 0 1.1 1.1 0 0 0 .5-1.5c-.3-.8-.7-1.6-1-2.3-1.1-2.5-.6-4.3 1.7-5.7a5.6 5.6 0 0 1 3.8-.9 2 2 0 0 1 1.6 2.9 4.6 4.6 0 0 1-4.3 2.3c-.3-.1-.7-.1-.7-.5s.3-.4.5-.5l2.1-1a.9.9 0 0 0 .5-1.1c-.1-.6-.6-.6-1.1-.6a3 3 0 0 0-3 3.9c.3 1 .7 1.9 1 2.9.3 1 .6 2.4-.5 3.3a3.2 3.2 0 0 1-5.2-2.8c.1-.4.1-.7.2-1a2 2 0 0 1 .4-.8Zm-16.8-2.5 1.9-1.6a9.8 9.8 0 0 1 2.3-1.7c.4-.2.9-.4 1.3 0s-.1.9-.4 1.2l-1.2 1.1c-.2.3-.6.6-.4 1 .2.4.8.3 1.2.2l1.7-.8c.2-.1.5-.4.8-.1.3.3 0 .5-.2.8a5.6 5.6 0 0 1-3.8 2.1c-1.2.1-1.8-.5-1.8-2a22 22 0 0 0-4.4 6c-.2.3-.2.7-.4.9-.2.2-.9.9-1.6.6-.7-.3-.2-.9-.1-1.4a34.9 34.9 0 0 1 3.7-7.5 3.9 3.9 0 0 1 1.9-1.9.6.6 0 0 1 .9.1c.1.2 0 .4-.2.6a16.4 16.4 0 0 1-1.4 2.2ZM148.7 78.8Zm1.3-.3a.5.5 0 0 1-.4.2H.4c-.2 0-.3 0-.4-.2h150Z"/><path style="stroke:none;stroke-width:1;stroke-dasharray:none;stroke-linecap:butt;stroke-dashoffset:0;stroke-linejoin:miter;stroke-miterlimit:4;fill:#000;fill-rule:nonzero;opacity:1" vector-effect="non-scaling-stroke" transform="translate(.6 -.02)" d="M150 78.7H-.1a.3.3 0 0 1 .1-.2h150c.1.1.1.2 0 .2ZM.4 78.7Zm149.6 0ZM57.3 84.7c-.6 1.6-1.1 3.3-1.7 4.9-.6 1.6-.2.8-.8.8-.6 0-.5-.5-.6-.8-.1-.3-1.2-3.3-1.9-4.8 0 1.5 0 3.1-.1 4.6-.1 1.5.3 1-.4 1s-.5-.6-.5-.9c-.1-1.9-.1-3.8-.1-5.7.1-.4-.1-1 .6-1a1.2 1.2 0 0 1 1.3.8c.5 1.7 1.1 3.5 1.8 5.6l1.9-5.5c.2-.6.4-1 1.1-.9.7.1.6.7.6 1.1v5.6c0 .4.1.9-.5.9s-.4-.6-.4-.9v-4.8ZM66.3 82.7c-2.2-.1-3.6 1.5-3.7 3.9a3.7 3.7 0 0 0 3.7 3.9 3.6 3.6 0 0 0 3.6-3.9c0-2.3-1.4-3.9-3.6-3.9Zm-.1 6.9c-1.5 0-2.5-1.2-2.5-3s1-3 2.6-3.1c1.6-.1 2.6 1.3 2.6 3.1a2.7 2.7 0 0 1-2.7 3ZM83.9 86.5v-2.6c-.1-.8.1-1.2 1-1.1.9.1 2.4 0 3.7 0 1.3 0 .8-.2.8.5s-.6.4-.9.4h-2.8c-.9 0-.8.6-.8 1.2s-.1 1.2.9 1.1h2.6c.3.1.8 0 .7.5-.1.5-.4.4-.6.4h-2.7c-1-.1-.9.6-.9 1.2s-.2 1.4.9 1.4h3c.4 0 .8 0 .8.5s-.5.4-.8.4h-4.1c-.7 0-.8-.3-.8-.8ZM102.3 82.7a2.4 2.4 0 0 1 2.5 1.3c.1.3.4.7 0 .9-.4.2-.6.1-.8-.3-.2-.4-1.5-1.1-2.5-1a1.2 1.2 0 0 0-1 1 1 1 0 0 0 .9 1l2.3.7a2 2 0 0 1 1.6 2 2.3 2.3 0 0 1-1.9 2.1c-1.7.4-3.4-.2-3.9-1.5s-.5-.7 0-1c.5-.3.7.1.8.5a2 2 0 0 0 2 1.2c.9 0 1.8-.1 1.9-1.2.1-1.1-.7-1.1-1.5-1.3l-1.2-.4c-1.4-.4-2.1-1.1-2-2.2.1-1.1 1.2-1.8 2.8-1.8ZM98.3 70.5a20.5 20.5 0 0 1 4.4-8.7c.3-.3.8-.8 1.3-.3s.2.9-.1 1.4a30.2 30.2 0 0 0-4.3 8.6.8.8 0 0 1-.8.7c-.3-.1-.5-.6-.5-1.7Zm-38.1.1a21.1 21.1 0 0 1 4.5-8.8c.3-.4.7-.7 1.2-.3.5.4.2.9 0 1.3a33.3 33.3 0 0 0-2.8 4.8c-.5 1.2-1 2.3-1.4 3.5-.4 1.2-.3 1.1-.9 1-.6-.1-.4-.8-.6-1.5ZM76.7 89.3q1-2.8 2.1-5.4a2.5 2.5 0 0 1 .4-.9c.1-.3.4-.2.7-.1.3.1.1.3.1.5-.9 2.2-1.7 4.4-2.6 6.5-.9 2.1-1.1.7-1.3.1-1-2.2-1.8-4.4-2.6-6.6-.1-.2-.3-.5.2-.6.5-.1.7 0 .8.5a34.2 34.2 0 0 0 1.3 3.4 20.3 20.3 0 0 0 .9 2.6Zm12 9.8c-.6-1-.9-1.9-.1-2.9s-.1-.5-.2-.7a2.1 2.1 0 0 0-2.6-.4 1.3 1.3 0 0 0-.3 2.1c.3.4.5.6 0 1a1.3 1.3 0 0 0-.5 1.6c.3.8 1 .9 1.8.9s2.3-.8 1.9-1.6Zm-1.9-3.7c.6 0 .9.2 1 .8a1 1 0 0 1-.9 1 1.1 1.1 0 0 1-1-.9c-.1-.6.4-.9.9-.9Zm0 4.8a1 1 0 0 1 0-2 1.2 1.2 0 0 1 1.2 1 1 1 0 0 1-1.2 1ZM94.6 100.1c.6-.3.9 0 1.3 0s1.6-.1 1.6-1.1-.7-1.2-1.4-1.2-1 .2-1.1-.4c-.1-.6-.3-1.7.2-2.3.5-.6 1-.2 1.6-.2.6 0 1.1-.3 1.1.4s-.7.2-1.1.3c-.4.1-1-.1-1 .7 0 .8.4.9 1 .9a1.6 1.6 0 0 1 1.6 1.6 1.7 1.7 0 0 1-1.7 1.9 1.9 1.9 0 0 1-2.1-.6ZM81.2 100h2c.3 0 .5.1.5.3a.4.4 0 0 1-.4.4h-.4c-.9-.1-2.2.5-2.6-.3-.4-.8.9-1.3 1.4-2l.7-.9a1.4 1.4 0 0 0 .1-1.6c-.4-.6-1-.4-1.5-.2s-.5.4-.7 0c-.2-.4.2-.5.5-.6a1.8 1.8 0 0 1 2.2.1 1.7 1.7 0 0 1 .3 2.1c-.4 1-1.3 1.6-2.1 2.7ZM76.5 99.8c.6.4 1.1.2 1.6.2s.7 0 .7.4-.3.3-.6.3H76c-.9 0-.9-.4-.4-.9s1.1-1.3 1.6-1.9c.5-.6.9-1.3.4-2s-1.1-.4-1.7-.2c-.6.2-.4.3-.5 0a.7.7 0 0 1 .3-.6 2.1 2.1 0 0 1 2.4.1c.8.6.6 1.5.2 2.3a9.6 9.6 0 0 1-1.8 2.3ZM91 100h.9c.5.2 1.4-.3 1.4.4s-1 .3-1.5.3-1.5.4-1.8-.3c-.3-.7.6-1 1-1.5l1.2-1.5a1.4 1.4 0 0 0 .1-1.5 1.2 1.2 0 0 0-1.5-.2c-.2 0-.6.4-.7-.1-.1-.5.2-.5.5-.6a1.8 1.8 0 0 1 2.2.3c.7.6.5 1.4.2 2.2-.3.8-1.3 1.5-2 2.5Z"/><path style="stroke:none;stroke-width:1;stroke-dasharray:none;stroke-linecap:butt;stroke-dashoffset:0;stroke-linejoin:miter;stroke-miterlimit:4;fill:#000;fill-rule:nonzero;opacity:1" vector-effect="non-scaling-stroke" transform="translate(.61 -.02)" d="M53.2 97.8c.1-2.1 1.5-3.4 3.3-2.9 1.8.5 1 .3.8.8-.2.5-.6 0-.9-.1a1.7 1.7 0 0 0-1.9.5 3.5 3.5 0 0 0-.1 3.3 1.9 1.9 0 0 0 2.1.5c.3 0 .6-.5.8 0 .2.5-.3.5-.7.7-.4.2-3.4-.5-3.4-2.8Z"/><path style="stroke:none;stroke-width:1;stroke-dasharray:none;stroke-linecap:butt;stroke-dashoffset:0;stroke-linejoin:miter;stroke-miterlimit:4;fill:#000;fill-rule:nonzero;opacity:1" vector-effect="non-scaling-stroke" transform="translate(.6 -.02)" d="M46.7 86.6v3c0 .4.1.8-.5.8s-.5-.4-.5-.7v-6.2c0-.3 0-.7.5-.7s.5.4.5.8ZM95 86.7v3c0 .3 0 .7-.5.7s-.5-.3-.5-.7v-6.3c0-.3 0-.6.5-.6s.5.4.5.7Zm-31.7 12h1.3c.7.1.8-.4.7-.9a1.6 1.6 0 0 0-1.4-1.4 1.8 1.8 0 0 0-2.1 1.1 2.5 2.5 0 0 0 .6 2.9 2 2 0 0 0 2.7-.3c-.7-.2-1.4.3-2-.1a.9.9 0 0 1-.6-1c0-.4.5-.2.8-.3Zm.2-1.8c.6 0 1 .3 1 .8s-.6.4-.9.5c-.3.1-1 .3-1.1-.4-.1-.7.5-.8 1-.9ZM67.5 58c-.7 0-.9-.4-.8-1a2.5 2.5 0 0 1 1.1-1.6c.4-.4 1-.9 1.6-.4.6.5.2 1.2-.2 1.8a2.4 2.4 0 0 1-1.7 1.2ZM107.6 56a2.7 2.7 0 0 1-1.9 2c-.7.2-1.1-.2-.9-1a2.9 2.9 0 0 1 1.6-2c.8-.4 1.3 0 1.2 1ZM69.7 97.3c-1.8-.5-2.4-.2-2.5 1-.1 1.2.4 1.9 1.8 1.6 1.4-.3.4-.2.5.1.1.3-.1.4-.2.5a2.3 2.3 0 0 1-1.4.2c-1-.1-1.4-.8-1.5-1.7-.1-.9.1-2.1 1.3-2.5a1.5 1.5 0 0 1 2 .8ZM101.3 97.6v2a1.1 1.1 0 0 1-1.4 1.1c-.3 0-.6 0-.6-.4s.3-.3.5-.3.7-.5.7-.9v-3.6a.5.5 0 0 1 .4-.6c.4 0 .4.4.4.6v2.1Zm-42.7 1v-.4c0-1.9 0-1.9 1.7-1.8 1.7.1.5 0 .5.3s-.1.4-.2.4-1.2 1.3-1.3 2.2v1c0 .2-.1.4-.3.4a.4.4 0 0 1-.4-.4v-1.7ZM71.5 98.8c-.1.5.3 1.8-.3 1.7-.6-.1-.3-1.2-.4-1.8a10.8 10.8 0 0 1 0-1.8.4.4 0 0 1 .4-.4c.2 0 .3.2.3.4ZM67.4 80.9c-.1.2-.1.4-.2.4s-.5 1.1-1.2 1c-.7-.1-.2-.4-.1-.5.1-.1.5-1.2 1.5-.9ZM71.1 94.7a.5.5 0 0 1 .5.5c0 .2-.1.4-.3.4a.4.4 0 0 1-.6-.3.5.5 0 0 1 .4-.6ZM39.9 54.5l.6-.8a.9.9 0 0 1-.2.8ZM124.2 67.4l-.4.8-.2-.3.3-.5Z"/></svg>