<svg xmlns="http://www.w3.org/2000/svg" viewBox="0 0 150 150"><g data-name="Conteúdo do PowerClip"><g data-name="1992297773840"><path fill="#eb7b2a" d="M115.6 55.9h10.6l-3.5 5h-10.6l3.5-5z"/><path d="M2.3 89.9c-.3.1-.5.2-.7.1a1.1 1.1 0 0 1-1.3-1.2 1.2 1.2 0 0 1 1.4-1.3h.6v.5h-.6c-.5 0-.8.3-.8.9a.7.7 0 0 0 .8.8h.5v.4ZM3.2 88.6h.2c.3 0 .4-.1.4-.4s-.1-.3-.4-.3h-.2v.7Zm-.5-1h.8a1.1 1.1 0 0 1 .8.2.8.8 0 0 1 .2.5.6.6 0 0 1-.5.6 1 1 0 0 1 .4.5 1.5 1.5 0 0 0 .2.8H4c-.1-.2-.1-.4-.2-.6s-.1-.5-.3-.5h-.2v1.1h-.6ZM6.3 88.9h-.9v.6h1.1v.6H4.8v-2.6h1.5v.5h-.9v.4h.9v.5zM8.7 89.9a.7.7 0 0 1-.6.1 1.1 1.1 0 0 1-1.3-1.2 1.2 1.2 0 0 1 1.3-1.3h.6v.5h-.6a.8.8 0 0 0-.8.9.7.7 0 0 0 .8.8h.5v.4ZM9 90.1h.6v-2.6H9v2.6zM10.8 89.9v-.3l.3-.3c.5-.4.7-.7.7-1a.3.3 0 0 0-.3-.3c-.2 0-.4 0-.5.2l-.2-.4a1.1 1.1 0 0 1 .8-.3.7.7 0 0 1 .8.8 1.5 1.5 0 0 1-.6 1l-.2.2h.9v.4ZM13.4 88.2a.3.3 0 0 0 .3.3c.1 0 .2-.1.2-.3s-.1-.2-.2-.3h-.1c-.1 0-.2.1-.2.3Zm.6 1.2a.4.4 0 0 0-.4-.4.3.3 0 0 0-.3.3.4.4 0 0 0 .3.4h.1a.3.3 0 0 0 .3-.3Zm-1.2-.1a.7.7 0 0 1 .4-.5.5.5 0 0 1-.3-.5.7.7 0 0 1 .8-.7c.5 0 .7.3.7.6a.5.5 0 0 1-.3.5.5.5 0 0 1 .4.6c0 .4-.3.7-.9.7a.7.7 0 0 1-.8-.7ZM15.4 88.4c-.1.2.1.4.3.4h.3v-.3c0-.2-.1-.3-.3-.4s-.3.2-.3.4Zm-.4 1.2c.1.1.2.1.2 0h.5a.5.5 0 0 0 .3-.6c-.1.2-.3.2-.5.2a.7.7 0 0 1-.7-.7.9.9 0 0 1 .9-.9.9.9 0 0 1 .9 1 1.6 1.6 0 0 1-.4 1.1 1.3 1.3 0 0 1-1 .4H15v-.5ZM18.1 89.2c0-.2-.1-.4-.3-.4l-.4.2c0 .3.1.5.4.5s.3-.2.3-.4Zm.3-1.2h-.2a.8.8 0 0 0-.8.6l.5-.2a.7.7 0 0 1 .8.7.9.9 0 0 1-.9.9 1 1 0 0 1-1-1.1 1.6 1.6 0 0 1 .5-1.1 1.4 1.4 0 0 1 .9-.3h.2v.5ZM18.9 89.2h.9v-.3h-.9v.3zM20.7 87.5h.6v1.6a.9.9 0 0 1-.9 1h-.5v-.4h.3c.2 0 .4-.1.4-.5v-1.6ZM2.3 94.4h-.7a1.3 1.3 0 0 1-1.3-1.2 1.3 1.3 0 0 1 1.4-1.3h.6v.5h-.6a.8.8 0 0 0 0 1.6h.5ZM3.2 93.1h.2c.3 0 .4-.1.4-.4s-.1-.3-.4-.3h-.2ZM2.7 92h.8l.8.2c.1.2.2.3.2.5a.8.8 0 0 1-.5.7.7.7 0 0 1 .4.5 1.2 1.2 0 0 0 .2.7H4c-.1-.2-.1-.4-.2-.6s-.1-.4-.3-.4h-.2v1h-.6ZM6.3 93.4h-.9v.6h1.1v.4H4.8v-2.5h1.5v.4h-.9v.6h.9v.5zM8.7 94.4H8a1.3 1.3 0 0 1-1.3-1.3 1.3 1.3 0 0 1 1.4-1.3h.6v.5h-.6c-.5 0-.8.2-.8.8a.7.7 0 0 0 .8.8h.5ZM9 94.4h.6v-2.5H9v2.5zM11.2 93.2c0 .6.2.9.4.9s.3-.3.3-.9-.1-.8-.3-.8-.4.3-.4.8Zm1.2 0c0 .8-.3 1.3-.9 1.3s-.9-.6-.9-1.3.3-1.2 1-1.2.9.6.9 1.2ZM13.5 92.5l-.5.3-.1-.5.7-.3h.5v2.4h-.6v-1.9zM15.4 92.8c-.1.2.1.4.3.4l.3-.2v-.3a.3.3 0 0 0-.3-.3c-.2-.1-.3.1-.3.4ZM15 94h.2l.5-.2c.2-.1.3-.2.3-.4l-.5.2a.7.7 0 0 1-.7-.7.9.9 0 0 1 .8-.9h.1c.6 0 .9.5.9 1.1a1.5 1.5 0 0 1-1.5 1.4H15V94ZM16.9 94.1l.3-.3h.1a.3.3 0 0 1 .3.3c0 .2-.1.4-.3.4a.4.4 0 0 1-.4-.4ZM18.9 93.5v-1l-.3.4-.3.5h.6Zm0 .9v-.6h-1.2v-.3l.9-1.5h.7v1.4h.3v.4h-.1v.6ZM20.5 92.5h.1l-.4.3-.1-.5.6-.3h.4v2.4h-.6v-1.9zM22.9 93.5v-.6a.6.6 0 0 0 .1-.4l-.3.4-.4.5v.2Zm0 .9v-.6h-1v-.3l.9-1.5h.7v1.4h.3v.4h-.3v.6ZM24 93.7h.9v-.3H24v.3zM25.8 91.9h.6v1.6c0 .7-.4.9-1 .9H25v-.5h.3c.2 0 .4-.1.4-.5v-1.5Z" fill="#003772"/><path d="M3.2 55.8h23.3a9.9 9.9 0 0 1 2.4.3 7.2 7.2 0 0 1 2 .9 6.4 6.4 0 0 1 1.5 1.3 6.2 6.2 0 0 1 1.1 1.7 13.4 13.4 0 0 1 .7 1.8 13.6 13.6 0 0 1 .2 2 7.5 7.5 0 0 1-.3 2 6.4 6.4 0 0 1-.6 1.8 9.9 9.9 0 0 1-1.1 1.7 6.4 6.4 0 0 1-1.5 1.3 7 7 0 0 1-2 .8 16.6 16.6 0 0 1-2.4.3h.2l8.5 10.5h-6.9l-8.5-10.5H5.5v10.5H0V58.8l.3-1.2A2.8 2.8 0 0 1 1.9 56l1.2-.2Zm23 10.9 1.1-.2.8-.7a3.6 3.6 0 0 0 .4-.9 3.1 3.1 0 0 0 0-2.2 3.6 3.6 0 0 0-.4-.9 2.7 2.7 0 0 0-.8-.7 2 2 0 0 0-1.1-.2H5.5v5.8Zm14.2 12.7a8.3 8.3 0 0 1-1.9-2.7 8 8 0 0 1-.7-3.4v-8.9a9.6 9.6 0 0 1 .6-3.3 10.5 10.5 0 0 1 2-2.7 8.6 8.6 0 0 1 2.7-2 9.7 9.7 0 0 1 3.4-.6h16.2a9.6 9.6 0 0 1 3.3.6 8.9 8.9 0 0 1 5.4 8v8.9a9.8 9.8 0 0 1-.7 3.4 10.1 10.1 0 0 1-1.9 2.7l-1.3 1.1-1.5.8-1.6.5-1.7.2H46.5l-1.8-.2-1.6-.5-1.5-.8Zm2.8-5.5a5 5 0 0 0 .2 1.2 3.6 3.6 0 0 0 .7 1l1 .7a2.7 2.7 0 0 0 1.2.3h16.3a2.7 2.7 0 0 0 1.2-.3 3.3 3.3 0 0 0 1.7-1.8 2 2 0 0 0 .3-1.1v-9.8a5.1 5.1 0 0 0-.2-1.3 3.6 3.6 0 0 0-.7-1l-1-.7a3 3 0 0 0-1.3-.2H46.4a2.7 2.7 0 0 0-1.3.2 3.5 3.5 0 0 0-1.7 1.7 5.1 5.1 0 0 0-.2 1.3v9.8Zm35.1-15.5a7.7 7.7 0 0 1 2.8-1.9 6.3 6.3 0 0 1 3.3-.6h28.5l-3.5 5h-25a2 2 0 0 0-1.3.2 3.5 3.5 0 0 0-1.7 1.7c-.1.4-.2 1.2-.2 1.2v9.9a4.9 4.9 0 0 0 .3 1.2 3 3 0 0 0 .7 1l1 .7a2.7 2.7 0 0 0 1.2.3h28.3l-3.3 4.9h-25a4.7 4.7 0 0 1-1.7-.1l-1.6-.5a5.4 5.4 0 0 1-1.5-.9l-1.3-1a8.3 8.3 0 0 1-1.9-2.7 14.1 14.1 0 0 1-.7-3.4v-8.9a12.7 12.7 0 0 1 .7-3.3 8.7 8.7 0 0 1 1.9-2.8ZM111.6 82 128 57.4c.8-1.2 1.7-1.9 2.5-1.9s1.6.7 2.5 1.9L149.3 82h-6.7l-12.1-18.4L118.3 82Z" fill="#0060a9"/><path d="M112.8 86.2a.6.6 0 0 0-.6.3.9.9 0 0 0-.3.6.7.7 0 0 0 .7.7c.3 0 .5 0 .6-.2a.9.9 0 0 0 .3-.6.8.8 0 0 0-.7-.8Zm.5 2.5h-1.4l-.4 5.3h1.4Zm8-.1a2.9 2.9 0 0 0-2.1.9 1.3 1.3 0 0 0-1.4-.9 2.4 2.4 0 0 0-1.8.7v-.6h-1.2l-.4 5.3h1.4l.2-3.8a1.9 1.9 0 0 1 1.2-.4l.6.2a.7.7 0 0 1 .2.7l-.2 3.5h1.3l.3-3.7v-.3a1.7 1.7 0 0 1 1.2-.4l.7.2a1.9 1.9 0 0 1 .2.7l-.3 3.5h1.4l.3-3.7a1.8 1.8 0 0 0-.4-1.3 1.3 1.3 0 0 0-1.2-.6Zm7.8-2.6h-1.5l-1.1 2h1.1Zm-2.1 2.7a2.9 2.9 0 0 0-2.3.9 3 3 0 0 0-.8 2.1 2.2 2.2 0 0 0 .7 1.8 3.2 3.2 0 0 0 2 .7 3.2 3.2 0 0 0 2.3-.9 3.2 3.2 0 0 0 .8-2.1 2.5 2.5 0 0 0-.8-1.8 2.4 2.4 0 0 0-1.9-.7Zm-.1 1.1a1.3 1.3 0 0 1 1.4 1.3v.2a1.3 1.3 0 0 1-.5 1.2 1.3 1.3 0 0 1-1.1.5 1.4 1.4 0 0 1-1.5-1.2v-.2a2.1 2.1 0 0 1 .5-1.3 1.7 1.7 0 0 1 1.2-.5Zm7.8-1.1-1.8 3.7-1.2-3.7h-1.5l2 5.3h1.2l2.7-5.3Zm4.6 0a2.6 2.6 0 0 0-2.1.9 2.7 2.7 0 0 0-.9 2.1 2.9 2.9 0 0 0 .7 1.8 3.2 3.2 0 0 0 2 .7 2.9 2.9 0 0 0 2.6-1.4l-1-.4a1.7 1.7 0 0 1-2.5.4 1.5 1.5 0 0 1-.4-1.1h4.3v-.3a2.5 2.5 0 0 0-.8-2 3.1 3.1 0 0 0-1.8-.7Zm0 1a1.2 1.2 0 0 1 1.3 1.1h-2.8a1.6 1.6 0 0 1 .6-.8 1.4 1.4 0 0 1 .9-.3Zm4.9-3.5-.6.3a1.4 1.4 0 0 0-.2.6.8.8 0 0 0 .2.5.4.4 0 0 0 .5.2c.2 0 .5 0 .6-.2a.9.9 0 0 0 .3-.6.8.8 0 0 0-.8-.8Zm.5 2.5h-1.3L143 94h1.4Zm3.3-.1a2.6 2.6 0 0 0-1.5.4 1.5 1.5 0 0 0-.6 1.3 1.1 1.1 0 0 0 .3.8 1.8 1.8 0 0 0 .7.5l.8.2.6.2a.5.5 0 0 1 .3.4.8.8 0 0 1-.2.5.8.8 0 0 1-.7.2h-.7a.8.8 0 0 1-.2-.5h-1.1a.9.9 0 0 0 .1.7.5.5 0 0 0 .3.5l.5.3h1.2a2.4 2.4 0 0 0 1.6-.5 1.6 1.6 0 0 0 .6-1.3 1.1 1.1 0 0 0-.3-.8 1.8 1.8 0 0 0-.7-.5l-.8-.2-.7-.2a.5.5 0 0 1-.2-.4c0-.3.2-.5.7-.5s.8.2.8.5h1.2a1.6 1.6 0 0 0-.4-1.2 2.2 2.2 0 0 0-1.6-.4Z" fill="#00498a"/></g></g></svg>