<svg xmlns="http://www.w3.org/2000/svg" viewBox="0 0 150 150"><path fill="#e1292c" fill-rule="evenodd" d="m44.1 58.1 1.8 2.3L69 38.8l29.9 20.9 3.1-8.2-24.7-15.9L66.4 37 44.1 58.1z"/><path d="M64 54.5v20.8h16.3V54.5h5.8v19.6c0 2.4-.4 4-1.3 4.8s-2.4 1.3-4.9 1.3H64.3c-2.4 0-4-.5-4.8-1.3s-1.3-2.4-1.3-4.8V54.5Z" fill="#e1292c"/><path d="M108.3 109.7a1 1 0 0 0-.3-.8l-.6-.3a.9.9 0 0 0-.7.3 1.1 1.1 0 0 0-.3.8Zm.8 1.6a2.4 2.4 0 0 1-1.8 1.2 1.6 1.6 0 0 1-1.1-.5 2.2 2.2 0 0 1-.5-1.4 2.2 2.2 0 0 1 .6-1.5 1.7 1.7 0 0 1 1.3-.8 1.1 1.1 0 0 1 1 .5 1.5 1.5 0 0 1 .4 1.1h-2.7v.2a1.8 1.8 0 0 0 .4 1.3 1.1 1.1 0 0 0 1 .5 2.1 2.1 0 0 0 1.4-.9Zm-4.4-4.2v.2a.8.8 0 0 0-.2.6v.5l.2.3h.8v.2h-1v3h.2l.6-.3a.1.1 0 0 1 .1-.1v.3a2.2 2.2 0 0 1-1.2.6h-.3a4.3 4.3 0 0 1-.1-.5V109h-.6v-.2l.5-.2a.6.6 0 0 0 .2-.5v-.6Zm-6.1 1.7 1.1-.5h.1v1.5a7.6 7.6 0 0 1 1-1.2 1.3 1.3 0 0 1 .8-.3c.4 0 .7.3.7 1v2.2c0 .3 0 .5.1.6h.5v.2h-1.4v-.2c.1 0 .1-.1.1-.2v-2.7a.4.4 0 0 0-.1-.3c-.1-.1-.1-.2-.3-.2s-.6.3-.9.8a3.5 3.5 0 0 0-.5 1.8.8.8 0 0 0 .2.6.6.6 0 0 0 .5.2v.2h-1.9v-.2h.5c.1-.1.1-.3.1-.6v-2.2c0-.3-.1-.4-.3-.4h-.3ZM97 110a2.3 2.3 0 0 0-1.3.6 1 1 0 0 0-.5.8.7.7 0 0 0 .6.6.9.9 0 0 0 .8-.6 2.6 2.6 0 0 0 .4-1.4Zm-2-1a2.7 2.7 0 0 1 1.8-.7l.6.2a.8.8 0 0 1 .2.6v2.7c0 .2 0 .2.1.2s.3-.1.6-.4v.3a1.8 1.8 0 0 1-1 .6c-.3 0-.4-.1-.4-.4v-.6l-.9.8-.6.2-.6-.2a1.4 1.4 0 0 1-.2-.6c0-.7.8-1.3 2.3-2.1v-.5a.6.6 0 0 0-.1-.4h-.4a.8.8 0 0 0-.7.4 1.8 1.8 0 0 0-.4 1H95Zm-2 .1-.6-.3-.5-.2a.9.9 0 0 0-.8.6 2 2 0 0 0-.4 1.3 1.5 1.5 0 0 0 .3 1c.2.3.4.5.7.5s.7-.3 1-.8a4.2 4.2 0 0 0 .4-1.5 1.3 1.3 0 0 0-.1-.6Zm-.6-2.2 1.4-.6v.2c-.1 0-.1.1-.1.3v4.8c0 .3.1.4.3.4h.3v.2l-1.1.4H93v-1.4a4.8 4.8 0 0 1-1 1.2 1.1 1.1 0 0 1-.7.2 1 1 0 0 1-.9-.5 2.1 2.1 0 0 1-.3-1.2 2.9 2.9 0 0 1 .6-1.7 2.2 2.2 0 0 1 1.5-.8h.4l.4.2v-1.2c0-.2-.1-.4-.2-.4h-.4Zm-7.1 1.7 1.5-.3v.2c-.1 0-.2.1-.2.3v2.7c0 .2 0 .3.1.4h.3c.3 0 .6-.2 1-.7a3.3 3.3 0 0 0 .4-1.7c0-.3 0-.5-.1-.6s-.1-.2-.3-.2h-.2v-.2l1.4-.3v.2c-.1 0-.2.1-.2.3v2.8c0 .3.1.4.3.4h.5v.2l-1.2.4h-.2v-1.4a7.6 7.6 0 0 1-1 1.2l-.8.2c-.4 0-.6-.3-.6-1v-2.3a.4.4 0 0 0-.4-.4h-.3Zm-.9-1.5v.2a.6.6 0 0 0-.3.6c0 .3 0 .4.1.5l.2.3h.7v.2h-1v2.8a.3.3 0 0 0 .1.2h.1a.9.9 0 0 0 .6-.3.1.1 0 0 0 .1-.1v.3a2.4 2.4 0 0 1-1.1.6h-.3a.7.7 0 0 1-.1-.5V109h-.7v-.2l.6-.2c.1-.1.1-.2.1-.5v-.6Zm-4.2 4 .3.8a.9.9 0 0 0 .7.4l.5-.2a.7.7 0 0 0 .2-.6.6.6 0 0 0-.1-.4l-.6-.5-.6-.4-.4-.4a.6.6 0 0 1-.1-.4.8.8 0 0 1 .4-.7 1 1 0 0 1 .9-.4l.9.2v1.1H82a.9.9 0 0 0-.3-.7.9.9 0 0 0-.6-.3h-.4v.4a.8.8 0 0 0 .2.4l.6.4.9.7a1.4 1.4 0 0 1 .2.6 1.1 1.1 0 0 1-.5.9 1.3 1.3 0 0 1-1 .4l-1.1-.2V111Zm-1.6-1.4a1 1 0 0 0-.3-.8.9.9 0 0 0-.6-.3.9.9 0 0 0-.7.3 1.1 1.1 0 0 0-.3.8Zm.8 1.6a2.4 2.4 0 0 1-1.8 1.2 1.6 1.6 0 0 1-1.1-.5 2.6 2.6 0 0 1 .1-2.9 1.7 1.7 0 0 1 1.3-.8 1.1 1.1 0 0 1 1 .5 1.5 1.5 0 0 1 .4 1.1h-2.7v.2a1.8 1.8 0 0 0 .4 1.3 1.1 1.1 0 0 0 1 .5c.5 0 .9-.3 1.4-.9Zm-7.9-2.6a1 1 0 0 0-.9.4 1.8 1.8 0 0 0-.3 1.1 2.1 2.1 0 0 0 .5 1.3 1.5 1.5 0 0 0 1.1.7 1 1 0 0 0 .8-.5 1.5 1.5 0 0 0 .3-1 2 2 0 0 0-.3-1.1 1.3 1.3 0 0 0-.6-.7Zm.3-.4a1.6 1.6 0 0 1 1.3.6 1.9 1.9 0 0 1 .5 1.3 2.6 2.6 0 0 1-.7 1.7 2 2 0 0 1-1.5.6 1.3 1.3 0 0 1-1.2-.5 1.9 1.9 0 0 1-.5-1.3 2.6 2.6 0 0 1 .7-1.7 2.1 2.1 0 0 1 1.4-.7Zm-3.6.8-.6-.3-.5-.2c-.4 0-.6.2-.9.6a2.8 2.8 0 0 0-.3 1.3 1.5 1.5 0 0 0 .3 1c.2.3.4.5.7.5s.7-.3 1-.8a4.2 4.2 0 0 0 .4-1.5c0-.2-.1-.4-.1-.6Zm-.6-2.2 1.4-.6v.2c-.1 0-.1.1-.1.3v4.8c0 .3.1.4.3.4h.3v.2l-1.1.4h-.2v-1.4a4.8 4.8 0 0 1-1 1.2 1.1 1.1 0 0 1-.7.2 1 1 0 0 1-.9-.5 2.1 2.1 0 0 1-.3-1.2 2.9 2.9 0 0 1 .6-1.7 2.2 2.2 0 0 1 1.5-.8h.4l.4.2v-1.2c0-.2-.1-.4-.2-.4h-.4Zm-6 3.1a2.6 2.6 0 0 0-1.3.6.9.9 0 0 0-.4.8c0 .2 0 .3.1.4l.4.2a.9.9 0 0 0 .8-.6 2 2 0 0 0 .4-1.4Zm-2-1a3.2 3.2 0 0 1 1.8-.7.7.7 0 0 1 .8.8v2.7c0 .2 0 .2.1.2s.3-.1.6-.4v.3c-.4.4-.7.6-1 .6a.4.4 0 0 1-.4-.4v-.6l-.8.8-.7.2-.6-.2a1.4 1.4 0 0 1-.2-.6c0-.7.8-1.3 2.3-2.1v-.5a.6.6 0 0 0-.1-.4H61a.8.8 0 0 0-.7.4 1.8 1.8 0 0 0-.4 1h-.3Zm-2.6 3.2-1.3.5a.7.7 0 0 0-.4.6.9.9 0 0 0 .3.6 1.8 1.8 0 0 0 1.1.2 2.8 2.8 0 0 0 1.3-.3.8.8 0 0 0 .4-.7c0-.2 0-.3-.2-.4l-.7-.3Zm-.2-3.6a.9.9 0 0 0-.7.3 1.9 1.9 0 0 0-.2.8 1.9 1.9 0 0 0 .2.7l.6.3a.6.6 0 0 0 .6-.3.9.9 0 0 0 .3-.7 1 1 0 0 0-.3-.8.5.5 0 0 0-.5-.3Zm.2 2.3h-.6a1.4 1.4 0 0 1-.9-.3.8.8 0 0 1-.3-.7 1.4 1.4 0 0 1 .6-1.1 1.8 1.8 0 0 1 1.2-.5h.3l.5.2.5.2h.7v.2h-.9a1.1 1.1 0 0 1 0 .9l-.6.8c-.4.3-.5.5-.5.6s0 .2.1.2l.7.3.9.5a.5.5 0 0 1 .3.5c0 .5-.3.8-.8 1.1a3.5 3.5 0 0 1-1.8.5 2.1 2.1 0 0 1-1.2-.3c-.4-.2-.5-.4-.5-.7s.2-.5.5-.8l1.5-.5-.2-.2a.4.4 0 0 1-.1-.3c0-.1.1-.2.1-.3Zm-3.9 1.3h.5c.1-.1.1-.3.1-.6v-2.3a.3.3 0 0 0-.3-.3h-.3v-.2l1.1-.5h.2v3.2c0 .3 0 .5.1.6h.5v.2h-1.9Zm.9-5.7c.2 0 .3.1.3.2s.1.1.1.2 0 .3-.1.3-.1.2-.3.2l-.2-.2c-.1 0-.1-.1-.1-.3s0-.2.1-.2Zm-4.2 3.1a4.8 4.8 0 0 1 .9-1 1.1 1.1 0 0 1 .7-.3l.5.2a1.4 1.4 0 0 1 .2.6v2.4c0 .3 0 .5.1.6h.5v.2h-1.5v-.2c.2 0 .2-.1.2-.2v-2.5a.7.7 0 0 0-.1-.5l-.3-.2c-.3 0-.6.3-.9.8a4.2 4.2 0 0 0-.4 1.6 1.3 1.3 0 0 0 .2.8l.5.2v.2H49v-.2c.1 0 .1-.1.1-.2v-2.6c0-.2 0-.3-.1-.4l-.3-.2c-.3 0-.6.3-.9.8a4.3 4.3 0 0 0-.4 1.7 1.2 1.2 0 0 0 .2.7l.5.2v.2h-1.9v-.2l.5-.2c.1-.1.1-.2.1-.5v-2.2c0-.3-.1-.4-.2-.4h-.4v-.2l1.1-.5h.2v1.4a3.9 3.9 0 0 1 .9-1.1l.7-.3a.5.5 0 0 1 .5.3 1.4 1.4 0 0 1 .2.7Zm-6.5-1.7-.9 2.3H44Zm.1-1.2h.3l1.4 4.4.4.8a.5.5 0 0 0 .5.3v.2h-1.5v-.2h.1l-.5-1.5h-1.8a3.5 3.5 0 0 0-.3 1.2.5.5 0 0 0 .2.4h.5v.2h-1.8v-.2c.3 0 .6-.4.8-1ZM128.9 92.3h-4.3v1.5h4.1a1.3 1.3 0 0 1 1.6 1.6v.9a1.3 1.3 0 0 1-1.6 1.6h-4.1a2.3 2.3 0 0 1-1.3-.3 2.1 2.1 0 0 1-.3-1.3v-.2l1.3-.3v.8h4.7v-1.5h-4.1a2.1 2.1 0 0 1-1.3-.3 2.3 2.3 0 0 1-.3-1.3v-.8a1.7 1.7 0 0 1 .3-1.2c.2-.3.7-.4 1.3-.4h3.7c.6 0 1.1.1 1.3.4a1.6 1.6 0 0 1 .3 1.1v.2l-1.3.3Zm-10.6 5.6v-6.8h1.6v6.8Zm-9.6 0v-6.8h6.7v1.2h-5.1v1.5h3V95h-3v1.6h5.2v1.3Zm-6.4 0-3.8-6.8h1.7l2.7 4.9 2.5-4.9h1.6l-3.7 6.8Zm-10.4-7.5 1.3-2.2h1.3l-1.8 2.2Zm-1.6 6.2h5v-4.3h-5Zm-1.5-3.9a1.7 1.7 0 0 1 .3-1.2c.2-.3.7-.4 1.3-.4h4.8c.7 0 1.1.1 1.3.4a1.7 1.7 0 0 1 .4 1.2v3.6a2 2 0 0 1-.4 1.3 1.9 1.9 0 0 1-1.3.3h-4.8a1.3 1.3 0 0 1-1.6-1.6Zm-11.7 5.2v-6.8h1.3l3 4.1 3.1-4.1h1.2v6.8h-1.4V93a.5.5 0 0 1-.2.4c0 .1-.1.2-.1.3l-2.5 3.4h-.3l-2.5-3.4a.5.5 0 0 1-.2-.4l-.2-.3v.4a.4.4 0 0 1 .1.3v4.2Zm-4.8 0v-6.8h1.5v6.8Zm-14.8-1.3h5.1v-4.3h-5.1ZM56 92.7c0-.6.1-1 .4-1.2s.6-.4 1.2-.4h4.9c.6 0 1.1.1 1.3.4a1.7 1.7 0 0 1 .3 1.2v3.6a2.1 2.1 0 0 1-.3 1.3 2.1 2.1 0 0 1-1.3.3h-4.9a1.7 1.7 0 0 1-1.2-.3c-.3-.2-.4-.7-.4-1.3Zm-4.5-4.1a2.3 2.3 0 0 1-.5 1.1 1 1 0 0 1-.8.3h-.4l-.5-.2h-.4l-.4.2-.2.3h-.6a2.8 2.8 0 0 1 .4-1.1 1.1 1.1 0 0 1 .8-.3h1.4l.3-.2c.1 0 .2-.2.2-.3Zm-6.4 9.3 3.7-6.8h1.5l3.8 6.8h-1.8l-.8-1.5h-4.1l-.8 1.5Zm2.9-2.7h2.9l-1.4-2.8Zm-6.5 2.7v-6.8H43v6.8Zm-11.1 0v-6.8h1.1l4.6 4 .4.4.3.4v-4.8h1.3v6.8h-1l-4.8-4.2-.3-.3-.3-.2c0 .2.1.4.1.6v4.1Zm-9.2-6.8v5.5h4.3v-5.5h1.6v5.2c0 .6-.1 1.1-.4 1.3a1.9 1.9 0 0 1-1.3.3h-4.1a2.1 2.1 0 0 1-1.3-.3 2.1 2.1 0 0 1-.3-1.3v-5.2Z" fill="#030202"/></svg>