<svg xmlns="http://www.w3.org/2000/svg" xmlns:xlink="http://www.w3.org/1999/xlink" viewBox="0 0 150 69.9"><defs><linearGradient id="a" x1="75" y1="5.7" x2="75" y2="23.32" gradientUnits="userSpaceOnUse"><stop offset="0" stop-color="#fff"/><stop offset="1" stop-color="#030202"/></linearGradient><linearGradient id="c" x1="-220.04" y1="-6.21" x2="-220.04" y2="4.61" gradientTransform="rotate(180 -72.5 29.2)" xlink:href="#a"/><linearGradient id="b" x1="72.52" y1="82.98" x2="75.1" y2="32.97" gradientUnits="userSpaceOnUse"><stop offset="0" stop-color="#44b2e8"/><stop offset="1" stop-color="#24618e"/></linearGradient><linearGradient id="d" x1="72.64" y1="80.49" x2="75.1" y2="33.09" xlink:href="#b"/><linearGradient id="f" x1="75" y1="5.7" x2="75" y2="23.32" gradientUnits="userSpaceOnUse"><stop offset="0" stop-color="#fff"/><stop offset="1" stop-color="#24618e"/></linearGradient><linearGradient id="h" x1="-220.04" y1="-6.21" x2="-220.04" y2="4.61" gradientTransform="rotate(180 -72.5 29.2)" gradientUnits="userSpaceOnUse"><stop offset="0" stop-color="#fff"/><stop offset="1" stop-color="#44b2e8"/></linearGradient><mask id="e" x="32.54" y="3.39" width="84.93" height="23.28" maskUnits="userSpaceOnUse"><path d="M117.5 15c0 6.5-19 11.7-42.5 11.7S32.5 21.5 32.5 15 51.5 3.4 75 3.4s42.5 5.2 42.5 11.6Z" fill="url(#a)"/></mask><mask id="g" x="41.8" y="51.75" width="66.39" height="14.3" maskUnits="userSpaceOnUse"><ellipse cx="75" cy="58.9" rx="33.2" ry="7.1" fill="url(#c)"/></mask></defs><g data-name="ca and ma" style="isolation:isolate"><ellipse cx="75" cy="35" rx="74.8" ry="34.9" fill="url(#b)"/><path d="M75 0C33.7 0 .2 15.7.2 35S33.7 69.9 75 69.9s74.8-15.7 74.8-34.9S116.3 0 75 0Zm50.3 58.7C111.9 65 94 68.4 75 68.4S38.1 65 24.7 58.7 3.7 43.9 3.7 35s7.5-17.5 21-23.8S56 1.5 75 1.5s36.9 3.4 50.3 9.7 21 14.8 21 23.8-7.5 17.4-21 23.7Z" fill="url(#b)" style="mix-blend-mode:multiply"/><path d="M125 11.9c-13.4-6.3-31.1-9.7-50-9.7C36.1 2.2 4.4 16.9 4.4 35S36.1 67.7 75 67.7 145.6 53 145.6 35c0-8.7-7.3-16.9-20.6-23.1Z" fill="url(#d)"/><path d="M145.6 35c0 18-31.7 32.7-70.6 32.7S4.4 53 4.4 35 36.1 2.2 75 2.2c18.9 0 36.6 3.4 50 9.7s20.6 14.4 20.6 23.1ZM75 1.5c-19 0-36.9 3.4-50.3 9.7S3.7 26 3.7 35s7.5 17.4 21 23.7S56 68.4 75 68.4s36.9-3.4 50.3-9.7 21-14.8 21-23.7-7.5-17.5-21-23.8S94 1.5 75 1.5Z" fill="#fefefe"/><g mask="url(#e)"><path d="M117.5 15c0 6.5-19 11.7-42.5 11.7S32.5 21.5 32.5 15 51.5 3.4 75 3.4s42.5 5.2 42.5 11.6Z" fill="url(#f)"/></g><g mask="url(#g)"><ellipse cx="75" cy="58.9" rx="33.2" ry="7.1" fill="url(#h)"/></g><path d="m46.9 15.6-1.8-1.1a.6.6 0 0 0 .1-.4.7.7 0 1 0-1.4 0 .7.7 0 0 0 .7.7.5.5 0 0 0 .4-.2l1.8 1.2.2 8h.1v-8.2Zm2.3.4 7.7-4.5a.8.8 0 0 0 .7.5 1 1 0 0 0 1-1 .7.7 0 0 0-.3-.6.9.9 0 0 0-.7-.3.9.9 0 0 0-.6.3.7.7 0 0 0-.3.6.6.6 0 0 0 .1.4l-7.7 4.5H49v7.9h.2Zm7.9-5.5c.1-.2.3-.2.5-.2a.7.7 0 0 1 .6.2.8.8 0 0 1 .2.5.8.8 0 0 1-.8.8.8.8 0 0 1-.7-.8.8.8 0 0 1 .2-.5ZM64 7.1l-.2 3.1-8.7 4.6-.2 6.5a.7.7 0 0 0-.6.7.7.7 0 0 0 .7.7.8.8 0 0 0 .8-.7.7.7 0 0 0-.7-.7v-6.4l8.7-4.5.2-3.2a.7.7 0 1 0 0-1.4.8.8 0 0 0-.8.7.7.7 0 0 0 .8.6Zm28.3 4.8a.7.7 0 0 0 .6-.3h.1l7.7 4.5v7.8h.2v-8h-.1l-7.7-4.5a.9.9 0 0 0 .1-.5.9.9 0 0 0-.3-.6.7.7 0 0 0-.6-.3.9.9 0 0 0-.7.3.9.9 0 0 0-.3.6 1 1 0 0 0 1 1Zm-.6-1.5.6-.2.5.2a.6.6 0 0 1 .2.5.7.7 0 0 1-.2.6l-.5.2a.8.8 0 0 1-.8-.8c0-.2.1-.3.2-.5Zm6.2 13.4v-6.9h-.2v6.9Zm-5.5-7.9v3.3c-.4.1-.8.4-.8.8a.8.8 0 0 0 .8.8l.6-.2a.8.8 0 0 0 0-1.2l-.5-.2v-3.4l-8.9-5.1V3.8h-.2v7h.1Zm.5 3.7a.5.5 0 0 1 .2.4c0 .2-.1.3-.2.5h-.5a.6.6 0 0 1-.6-.6.6.6 0 0 1 .6-.6c.2.1.4.1.5.3Zm-14.4-6.7 8.3 4.6v6.4h.2v-6.5h-.1l-8.2-4.5-.2-9.4h-.1v9.4Zm-21.1 2.9v3.4a.8.8 0 0 0-.8.8.9.9 0 0 0 .8.8.9.9 0 0 0 .9-.8.9.9 0 0 0-.8-.8v-3.3l8.9-5h.1v-7h-.2v6.9l-8.9 5.1Zm.7 4.2a.7.7 0 0 1-.7.6.6.6 0 0 1-.6-.6.6.6 0 0 1 .6-.6c.4 0 .7.2.7.6ZM85.7 7.2l.3 3.1 8.7 4.5v6.5h-.1a.7.7 0 0 0 0 1.4.8.8 0 0 0 .8-.7.9.9 0 0 0-.6-.7v-6.4l-8.7-4.6-.2-3a.8.8 0 0 0 .6-.8.7.7 0 0 0-1.4 0 .9.9 0 0 0 .6.7Zm-9 5.7.3-9.5h-.2l-.3 9.5h.1l9 5v5.9h.2v-6h-.1Zm3.4 7.3-1.7-1.1v-.2a.8.8 0 1 0-1.6 0 .8.8 0 0 0 .8.8.8.8 0 0 0 .7-.4l1.7 1v8h.2l-.2-8.1Zm15.5 13.9a1.1 1.1 0 0 0-.9.5l-3.5-2.2-.4-3.8-4.1-2.3h-.1l4.1 2.3.3 3.8h.1l3.5 2.1c0 .2-.1.3-.1.5a1.1 1.1 0 0 0 1.1 1 1 1 0 0 0 1-1 1 1 0 0 0-1-.9Zm0 1.9a.9.9 0 0 1-.9-.8.9.9 0 0 1 1.8 0 .9.9 0 0 1-.9.8ZM75.5 13.6V3.4h-.1v10.3h.1l8.5 4.8v5.2-5.2Zm30-.4a.8.8 0 0 0-.7.8.4.4 0 0 0 .1.3l-1.9 1.2v8.1h.1l.2-8 1.8-1.2.5.2a.7.7 0 0 0 .7-.7.8.8 0 0 0-.8-.7Zm-45.8 9.1v-5.9l8.7-5.2V3.5h-.2v7.6l-8.6 5.2h-.1v5.9l-8.8 4.3a.8.8 0 0 0-.7-.4 1.1 1.1 0 0 0-1 1 1 1 0 0 0 1 1 .9.9 0 0 0 1-1 .9.9 0 0 0-.1-.5ZM50 27.9a.8.8 0 0 1-.8-.8.9.9 0 0 1 .8-.8.8.8 0 0 1 .8.8.7.7 0 0 1-.8.8Zm49.9-1.8a1.1 1.1 0 0 0-.8.3l-8.7-4.2-.2-5.9-8.6-5.2V3.5h-.2v7.6l8.7 5.2v5.8l8.9 4.5a.7.7 0 0 0-.1.5 1 1 0 0 0 1 1 1.1 1.1 0 0 0 1-1 1 1 0 0 0-1-1Zm0 1.8a.8.8 0 0 1-.8-.8.7.7 0 0 1 .8-.8.8.8 0 0 1 .8.8.9.9 0 0 1-.8.8Zm-3.7 2.5-.2-3.6-7.3-3.8v-5.9L80.1 12V3.8h-.2V12h.1l8.5 5v6l7.4 3.9v3.5a.7.7 0 0 0-.6.7.7.7 0 0 0 1.4 0 .7.7 0 0 0-.5-.7ZM61.3 17.1l8.5-5 .2-8.3h-.2v8.1L61.1 17v5.8l-7.3 3.8-.2 3.6a.7.7 0 0 0-.6.7.7.7 0 0 0 1.4 0 .7.7 0 0 0-.6-.7v-3.3l7.5-3.9h.1Zm10.1-4.2V3.4h-.1l-.2 9.4-8.1 4.5h-.1v6.5h.2v-6.3l8.3-4.6ZM54.3 34.1a1.1 1.1 0 0 0-1.1 1.1 1.1 1.1 0 0 0 2.2 0 1.1 1.1 0 0 0-1.1-1.1Zm0 1.9a.9.9 0 0 1-.9-.8.9.9 0 0 1 1.8 0 .9.9 0 0 1-.9.8Zm18-18a.9.9 0 0 0-.9.9.9.9 0 0 0 .9.8.8.8 0 0 0 .8-.8.8.8 0 0 0-.8-.9Zm2-14.6v10.2l-8.6 4.8v5.3h.2v-5.1l8.5-4.8h.1V3.4Zm-1 9.6-.2-9.5h-.2l.3 9.5-9 4.9h-.1V24h.2v-6l9-5Z" fill="#fefefe"/><path d="m86 63.5.3-3 8.6-4.3h.1V50a.7.7 0 0 0 .6-.7.7.7 0 0 0-1.4 0 .7.7 0 0 0 .6.7v6.1l-8.7 4.3-.2 3.1a.7.7 0 0 0-.7.6.8.8 0 0 0 .8.7.7.7 0 0 0 .7-.7.7.7 0 0 0-.7-.6Zm-21.7.1-.2-3.2H64l-8.6-4.3-.2-6.1h.1a.7.7 0 0 0 0-1.4.8.8 0 0 0-.8.7.9.9 0 0 0 .6.7v6.1l8.7 4.3.2 3.1a.6.6 0 0 0-.6.6.7.7 0 0 0 1.4 0 .6.6 0 0 0-.5-.5Zm22.8-9.8v-6.2h-.2v6.1L78.6 58v8h.2v-7.9l8.3-4.3Zm-29.4 1.4v-3.1a.8.8 0 0 0 .7-.8.9.9 0 0 0-.8-.8.9.9 0 0 0-.9.8c0 .4.4.7.8.8v3.2l8.9 4.8v5.7h.2v-5.9h-.1Zm-.8-3.9a.7.7 0 0 1 .7-.6.6.6 0 0 1 0 1.2.7.7 0 0 1-.7-.6Zm43.1-7.6a.9.9 0 0 0-1 .9c0 .2.1.3.1.5l-8.7 4h-.1v5.5l-8.7 4.9v6.2h.2v-6l8.6-4.9h.1v-5.5l8.8-4.1a.8.8 0 0 0 .7.3.9.9 0 1 0 0-1.8Zm0 1.7a.8.8 0 1 1 0-1.6.8.8 0 0 1 0 1.6Zm-7.3 9.9v-3.2c.1-.1.3-.1.4-.3a.5.5 0 0 0 .3-.5.9.9 0 0 0-.3-.6l-.5-.2a.8.8 0 0 0-.8.8.8.8 0 0 0 .7.8v3.1l-8.9 4.7h-.1v5.9h.2v-5.7l8.9-4.8Zm-.8-4a.7.7 0 0 1 .7-.6l.4.2a.5.5 0 0 1 0 .8l-.4.2a.7.7 0 0 1-.7-.6ZM57.7 59a.9.9 0 0 0-.7.3l-7.7-4.2v-7.4h-.2v7.5h.1l7.7 4.2a.9.9 0 0 0-.1.5.9.9 0 0 0 .9.8.9.9 0 1 0 0-1.7Zm0 1.6a.7.7 0 1 1 0-1.4.7.7 0 1 1 0 1.4Zm47.9-4.3-.5.2-1.8-1.1v-7.6h-.3v7.7l1.9 1.1c-.1.1-.1.2-.1.4a.7.7 0 0 0 1.4 0 .7.7 0 0 0-.6-.7Zm-10-15.5a.7.7 0 1 0 .7-.7.7.7 0 0 0-.7.7Zm.1-2.6a1 1 0 0 0 1.1-1 1.1 1.1 0 0 0-2.2 0 1 1 0 0 0 1.1 1Zm0-1.8a.9.9 0 0 1 .9.8.9.9 0 0 1-1.8 0 .9.9 0 0 1 .9-.8Zm-6.8 17.7v-5.5l7.2-3.6h.1v-3.5H96v3.3l-7.3 3.6h-.1V54l-8.5 4.8V66h.1v-7.1l8.6-4.7Zm-42 1.3L45 56.5a.9.9 0 0 0-.6-.3.8.8 0 0 0-.7.7.7.7 0 1 0 1.4 0v-.3l1.9-1.1.2-7.1H47ZM54.4 38a1 1 0 0 0 1.1-1 1.1 1.1 0 0 0-1.1-1 1 1 0 0 0-1 1 .9.9 0 0 0 1 1Zm0-1.8a.9.9 0 0 1 .9.8.9.9 0 1 1-1.8 0 .9.9 0 0 1 .9-.8ZM71.5 58l-8.3-4.3v-6.1H63v6.2h.1l8.3 4.3V66h.1v-7.9Zm-1.5.8h-.1L61.4 54v-5.5l-7.3-3.6-.1-3.4c.4-.1.7-.3.7-.7a.8.8 0 0 0-.8-.7.7.7 0 0 0 0 1.4v3.4l7.3 3.6V54h.1l8.5 4.7V66h.2v-7.1Zm30.8-3.7-7.7 4.2a.8.8 0 0 0-.8-.4.9.9 0 0 0 0 1.8 1 1 0 0 0 1-.9c0-.1-.1-.2-.1-.3l7.7-4.3h.1v-7.5h-.2Zm-8.5 5.4a.7.7 0 1 1 0-1.4.7.7 0 1 1 0 1.4Zm-32.4-5.8v-5.5l-8.8-4a.9.9 0 0 0 .1-.5.9.9 0 0 0-1-.9.9.9 0 1 0 0 1.8 1.1 1.1 0 0 0 .8-.3l8.7 4.1.2 5.5 8.7 4.9V66h.1v-6.3Zm-9.8-9.3a.8.8 0 1 1 0-1.6.8.8 0 1 1 0 1.6Zm16 7.3v-5H66v5l8.5 4.5V66h.2v-8.7h-.1Zm-1.7.5v-5.6h-.2v5.7h.1l9 4.6-.2 8h.2l.2-8h-.1Zm19.8-.4v-5H84v5l-8.5 4.5V66h.2v-8.7Zm-6.5.4a.9.9 0 0 0 .9-.8.8.8 0 0 0-.9-.8.8.8 0 0 0-.8.8.9.9 0 0 0 .8.8Zm8.1.2h.1v-5.8h-.2v5.6l-9 4.7.2 8h.2l-.3-8Zm-13.4-.2a.9.9 0 0 0 .9-.8.8.8 0 0 0-.9-.8.7.7 0 0 0-.8.8.8.8 0 0 0 .8.8ZM32.5 27.2l-.9 1.3a4.7 4.7 0 0 0-3.5-1.4A5.3 5.3 0 0 0 24 29a6.8 6.8 0 0 0-1.5 4.3 6.6 6.6 0 0 0 1.5 4.3 5.4 5.4 0 0 0 4.1 2 5.2 5.2 0 0 0 3.5-1.4l.9 1.2a6.3 6.3 0 0 1-4.4 1.7 6.5 6.5 0 0 1-5.1-2.4 7.6 7.6 0 0 1-2.1-5.4 8 8 0 0 1 2.1-5.4 6.5 6.5 0 0 1 5.1-2.4 6.7 6.7 0 0 1 4.4 1.7Zm-9 8.8a5.9 5.9 0 0 1-.5-1.4v-2.5a3.9 3.9 0 0 1 .5-1.4Zm.9 1.4-.4-.6v-7l.4-.6Zm1 .9-.5-.4v-9.2l.5-.3Zm1 .5-.5-.2V28.1l.5-.3Zm.9.3h-.5V27.7h.5Zm1 0h-.5V27.5h.5ZM40 40.7h-1.3l-.5-2H35l-.5 2h-1.3l2.9-11.9h.9Zm-2.1-3.3-1.3-5.2-1.3 5.2Zm2.9 3.3h-.4l-3-11.9h.4Zm.8 0h-.4l-3-11.9h.4Zm.8 0H42l-3-11.9h.4Zm.7 0h-.3l-3-11.9h.4Zm.8 0h-.4l-2.9-11.9h.4Zm.8 0h-.4l-2.9-11.9h.3Z" fill="#fefefe"/><path d="M59.1 40.7h-1.6l-.7-2.5h-4l-.6 2.5h-1.6l3.7-14.8h1.1Zm-2.7-4-1.6-6.6-1.6 6.6Zm3.6 4h-.5l-3.7-14.8h.5Zm1 0h-.5l-3.7-14.8h.5Zm1 0h-.6L57.8 26h.5Zm.9 0h-.4L58.7 26h.5Zm1 0h-.5l-3.7-14.8h.5Zm1 0h-.5l-3.7-14.8h.5ZM73.1 40.7h-1.4l-4.4-7.3v7.3H66V28.8Zm.9 0h-.5l-7.1-11.9h.5Zm.9 0h-.5l-7.1-11.9h.5Zm1.7 0h-1.2l-7.2-11.9h.5L75.4 40v-.8l-6.3-10.4h.5l5.8 9.7v-.8L70 28.8h.5l4.9 8.2v-.8l-4.5-7.4h.5l4 6.7v-6.7h1.2ZM79.7 40.7h-1.3V28.8h1.3Zm.7 0H80V28.8h.4Zm.8 0h-.4V28.8h.4Zm.8 0h-.4V28.8h.4Zm.7 0h-.4V28.8h.4Zm.8 0h-.4V28.8h.4Zm6.2-6a6 6 0 0 1-1.6 4.2 5.2 5.2 0 0 1-4 1.8h-.2V28.8h.2a5.2 5.2 0 0 1 4 1.8 5.6 5.6 0 0 1 1.6 4.1Zm-1.2 0a4.7 4.7 0 0 0-1.2-3.2 4.6 4.6 0 0 0-3.1-1.5v9.4a3.9 3.9 0 0 0 3.1-1.5 4.7 4.7 0 0 0 1.2-3.2ZM103.6 39l-.9 1.6-5.3-9v9.1h-1.6V25.9Zm.6-.9-.3.5-7.6-12.7h.6Zm.5-.9-.3.5-7-11.8h.6Zm.6-.9-.3.4-6.4-10.8h.5Zm.5-.9-.2.4-5.9-9.9h.5Zm.6-1-.3.5-5.3-9h.5Zm3.4 6.3h-1.6v-9.4l-1.6 2.7-4.7-8.1h.5L106 32l3.6-6.1h.2Zm.9 0h-.5V25.9h.5Zm1 0h-.5V25.9h.5Zm.9 0h-.5V25.9h.5Zm1 0h-.5V25.9h.5Zm.9 0h-.5V25.9h.5Zm1 0h-.5V25.9h.5ZM124.4 40.7h-1.3l-.5-2h-3.3l-.5 2h-1.3l3-11.9h.9Zm-2.2-3.3-1.3-5.2-1.3 5.2Zm2.9 3.3h-.4l-2.9-11.9h.3Zm.8 0h-.4l-2.9-11.9h.3Zm.8 0h-.4l-3-11.9h.4Zm.8 0h-.4l-3-11.9h.4Zm.8 0h-.4l-3-11.9h.4Zm.8 0h-.4l-3-11.9h.4ZM31.8 48.5a3.4 3.4 0 0 1-1.7.3 2.9 2.9 0 0 1-3-3.1 3 3 0 0 1 3.2-3.2 3.4 3.4 0 0 1 1.5.3l-.2.6-1.3-.2a2.2 2.2 0 0 0-2.3 2.5 2.1 2.1 0 0 0 2.3 2.4l1.3-.2ZM34.4 48.8a2.3 2.3 0 0 1 0-4.6 2.1 2.1 0 0 1 2.1 2.3 2.1 2.1 0 0 1-2.1 2.3Zm0-.6c.7 0 1.3-.7 1.3-1.7s-.4-1.7-1.3-1.7-1.3.9-1.3 1.7.5 1.7 1.3 1.7ZM37.5 45.5v-1.2h.7v.7a1.7 1.7 0 0 1 1.4-.8 1.4 1.4 0 0 1 1.3.9c.1-.3.3-.4.5-.6a1.2 1.2 0 0 1 .9-.3c.6 0 1.5.4 1.5 1.9v2.6H43v-2.5c0-.8-.3-1.3-.9-1.3a1.1 1.1 0 0 0-1 .7c0 .1-.1.2-.1.4v2.7h-.7v-2.6c0-.7-.3-1.2-1-1.2a1.1 1.1 0 0 0-.9.8c-.1.1-.1.2-.1.4v2.6h-.8ZM45 45.7v-1.4h.7v.8a1.6 1.6 0 0 1 1.5-.9 2 2 0 0 1 1.9 2.2 2.1 2.1 0 0 1-2 2.4 1.3 1.3 0 0 1-1.3-.7h-.1v2.4H45Zm.8 1.2c0 .1.1.2.1.3a1.2 1.2 0 0 0 1.2 1c.8 0 1.3-.7 1.3-1.7s-.4-1.7-1.3-1.7a1.3 1.3 0 0 0-1.2 1c0 .1-.1.3-.1.4ZM52 48.8a2.3 2.3 0 1 1 2.2-2.3 2.2 2.2 0 0 1-2.2 2.3Zm0-.6c.8 0 1.3-.7 1.3-1.7s-.3-1.7-1.3-1.7-1.3.9-1.3 1.7.5 1.7 1.3 1.7ZM55.1 45.5v-1.2h.7v.7h.1a1.6 1.6 0 0 1 1.4-.8 1.7 1.7 0 0 1 1.6 1.9v2.6h-.8v-2.5c0-.7-.3-1.3-1-1.3a1 1 0 0 0-1.1.8c-.1.1-.1.2-.1.4v2.6h-.8ZM60.6 46.6a1.4 1.4 0 0 0 1.5 1.6l1.2-.2v.5a3.2 3.2 0 0 1-1.4.3 2 2 0 0 1-2.2-2.2 2.1 2.1 0 0 1 2.1-2.4 1.9 1.9 0 0 1 1.8 2.1v.4Zm2.3-.5c0-.5-.2-1.3-1.1-1.3s-1.1.7-1.2 1.3ZM64.6 45.5v-1.2h.7v.7a1.6 1.6 0 0 1 1.4-.8 1.7 1.7 0 0 1 1.6 1.9v2.6h-.8v-2.5c0-.7-.3-1.3-1-1.3a1 1 0 0 0-1.1.8c0 .1-.1.2-.1.4v2.6h-.8ZM70.6 43.3v1h1.1v.6h-1.1v2.4c0 .5.1.8.6.8h.4v.6H71a1.2 1.2 0 0 1-.9-.3 2.1 2.1 0 0 1-.3-1.2v-2.3h-.7v-.6h.7v-.8ZM73 46.6a1.4 1.4 0 0 0 1.5 1.6l1.2-.2v.5a3.7 3.7 0 0 1-1.4.3 2 2 0 0 1-2.2-2.2 2.1 2.1 0 0 1 2.1-2.4 1.9 1.9 0 0 1 1.8 2.1.6.6 0 0 1-.1.4Zm2.3-.5c0-.5-.2-1.3-1.1-1.3a1.2 1.2 0 0 0-1.2 1.3ZM76.9 47.9a3.5 3.5 0 0 0 1.1.3c.5 0 .8-.3.8-.6s-.2-.6-.8-.9-1.2-.7-1.2-1.2.6-1.3 1.6-1.3a1.5 1.5 0 0 1 1 .3l-.2.6a1.6 1.6 0 0 0-.9-.3.7.7 0 0 0-.7.6c0 .4.3.5.8.8s1.2.6 1.2 1.3-.6 1.3-1.6 1.3a2.5 2.5 0 0 1-1.3-.3ZM85.7 45.8h-2.4V48h2.6v.7h-3.4v-6.1h3.3v.7h-2.5v1.9h2.4ZM86.9 42.3h.8v6.4h-.8ZM89.5 46.6a1.4 1.4 0 0 0 1.5 1.6l1.2-.2v.5a4.3 4.3 0 0 1-1.5.3 2 2 0 0 1-2.1-2.2 2.1 2.1 0 0 1 2.1-2.4 1.9 1.9 0 0 1 1.8 2.1c0 .1-.1.3-.1.4Zm2.3-.5c0-.5-.2-1.3-1.1-1.3a1.2 1.2 0 0 0-1.2 1.3ZM94.5 43.3v1h1.1v.6h-1.1v2.4c0 .5.1.8.6.8h.4v.6h-.7a1.2 1.2 0 0 1-.9-.3 2.1 2.1 0 0 1-.3-1.2v-2.3H93v-.6h.7v-.8ZM96.5 45.7v-1.4h.6v.9a1.4 1.4 0 0 1 1.2-1h.3v.8h-.3a1.1 1.1 0 0 0-1.1 1v2.7h-.8ZM101.1 48.8a2.3 2.3 0 0 1 .1-4.6 2.1 2.1 0 0 1 2.1 2.3 2.1 2.1 0 0 1-2.1 2.3Zm.1-.6c.7 0 1.3-.7 1.3-1.7s-.4-1.7-1.3-1.7a1.6 1.6 0 0 0-1.4 1.7 1.5 1.5 0 0 0 1.4 1.7ZM104.3 45.5v-1.2h.7v.7a1.9 1.9 0 0 1 1.5-.8c.6 0 1.5.4 1.5 1.9v2.6h-.8v-2.5c0-.7-.2-1.3-1-1.3a1 1 0 0 0-1 .8c-.1.1-.1.2-.1.4v2.6h-.8ZM109.7 43.5a.5.5 0 1 1 .5-.5.5.5 0 0 1-.5.5Zm-.4 5.2v-4.4h.8v4.4ZM114.5 48.6l-1.2.2a2 2 0 0 1-2.2-2.2 2.2 2.2 0 0 1 2.3-2.4l1.1.2v.7a2 2 0 0 0-1-.3 1.7 1.7 0 0 0 0 3.4 2.2 2.2 0 0 0 1-.2ZM117.1 48.8a2.3 2.3 0 0 1 .1-4.6 2.1 2.1 0 0 1 2.1 2.3 2.1 2.1 0 0 1-2.1 2.3Zm.1-.6c.7 0 1.3-.7 1.3-1.7s-.4-1.7-1.3-1.7-1.3.9-1.3 1.7.5 1.7 1.3 1.7ZM120.2 47.9a2.9 2.9 0 0 0 1.1.3c.5 0 .8-.3.8-.6s-.2-.6-.8-.9-1.2-.7-1.2-1.2a1.4 1.4 0 0 1 1.5-1.3 1.6 1.6 0 0 1 1.1.3l-.2.6a1.9 1.9 0 0 0-.9-.3.7.7 0 0 0-.7.6c0 .4.3.5.8.8s1.2.6 1.2 1.3-.6 1.3-1.7 1.3a2.4 2.4 0 0 1-1.2-.3Z" fill="#fefefe"/></g></svg>