<svg xmlns="http://www.w3.org/2000/svg" viewBox="0 0 150 69.9"><path d="m47.5 37.2 3.2 3.3c-8.1 8.4-27.5 9.1-30.5 9.2l1.1-.4c4.8-1.2 12.9-4.3 26.2-12.1Z" fill="#4e84a0"/><path d="M45.5 32.2a112.7 112.7 0 0 1-18.1 14 35.1 35.1 0 0 1-6.1 3.1c4.8-1.2 12.9-4.3 26.2-12.1a18.8 18.8 0 0 0-2-5Z" fill="#043e5d"/><path d="M34.6 20.9ZM45.9 25.8a34.6 34.6 0 0 1-2.5 3.1c-4.2 4.9-13.3 14.7-23.3 20.6-.1 0-.2 0-.2.1h.3l1.1-.4a35.1 35.1 0 0 0 6.1-3.1 112.7 112.7 0 0 0 18.1-14c2.2-2.1 3.6-3.6 3.5-4.1Z" fill="#096583"/><path d="M23.1 16.6c-.1.8-3.2 18.7-6 28.1-.2.8-.5 1.6-.7 2.3l-.4.9-.6 1.3.7-1.1a1.6 1.6 0 0 1 .4-.7c.2-.4.5-.9.7-1.4s1.4-2.7 2.2-4.4a95.4 95.4 0 0 0 7-21.7 25.7 25.7 0 0 1 7.9.9 40.4 40.4 0 0 0-11.2-4.2Z" fill="#043e5d"/><path d="M10.4 20.2s.5 8.2 1.7 16.1a85.3 85.3 0 0 0 1.6 8.7 31.6 31.6 0 0 0 1.5 4.4.1.1 0 0 1 .1.1 1 1 0 0 1 .1-.3l.6-1.3.4-.9c.2-.7.5-1.5.7-2.3 2.8-9.4 5.9-27.3 6-28.1Z" fill="#6b96af"/><path d="m42.5 19.9-7.9 1h-.2c-3.2 8.4-10.6 18.3-16 24.9l-1.1 1.3a32.8 32.8 0 0 1-2.2 2.6l-3.2 3.6a35.3 35.3 0 0 0 7.7-3.5c.1 0 .5-.2.5-.3 10-5.9 19.1-15.7 23.3-20.6a34.6 34.6 0 0 0 2.5-3.1Z" fill="#851417"/><path d="M34.3 20.8a25.7 25.7 0 0 0-7.9-.9 95.4 95.4 0 0 1-7 21.7c-.8 1.7-1.5 3.2-2.2 4.4s-.5 1-.7 1.4a1.6 1.6 0 0 0-.4.7l-.7 1.1a.3.3 0 0 0-.1.2.1.1 0 0 0-.1.1h-.1a.1.1 0 0 0 .1-.1h.1l1-1.1.3-.5a2.7 2.7 0 0 0 .7-.8l1.1-1.3c5.4-6.6 12.8-16.5 16-24.9h-.1Z" fill="#096583"/><path d="M15.2 49.6h-.1c-6.4-1-15-8.5-15-8.5L2.3 34a170.2 170.2 0 0 0 12.9 15.6Z" fill="#096583"/><path d="M13.7 45a85.3 85.3 0 0 1-1.6-8.7c-1.2-7.9-1.7-16.1-1.7-16.1a27.9 27.9 0 0 0-8.1 0s.4 1.3 1.2 3.3c1.7 4.5 5 12.7 8.2 19.3 1.2 2.5 2.4 4.8 3.5 6.6a31.6 31.6 0 0 1-1.5-4.4Z" fill="#4e84a0"/><path d="M15.2 49.4c-1.1-1.8-2.3-4.1-3.5-6.6C8.5 36.2 5.2 28 3.5 23.5a24 24 0 0 0-3.4 7.4L2.3 34a170.2 170.2 0 0 0 12.9 15.6.1.1 0 0 1 .1-.1.1.1 0 0 0-.1-.1Z" fill="#043e5d"/><path d="M117.7 33.4ZM124.2 33.4Z" fill="#841c17"/><path d="M131.5 26.5a7.1 7.1 0 0 0-3-4.2 9.7 9.7 0 0 0-5.2-2.2h8.2Z" fill="#9b3e25"/><path d="M117.7 33.4Z" fill="#841c17"/><path d="M65.2 34.1a3.3 3.3 0 0 1-2.7-1.1 3.4 3.4 0 0 1-1.2-2.6 3.4 3.4 0 0 1 1.2-2.7 3.4 3.4 0 0 1 2.7-1.2H71v-6.4a9.7 9.7 0 0 0-6.7 3 9.9 9.9 0 0 0-3 7.3 9.8 9.8 0 0 0 3 7.2 9.7 9.7 0 0 0 6.7 3v-6.5ZM92.1 34.1a3.3 3.3 0 0 1-2.7-1.1 3.3 3.3 0 0 1-1.1-2.6 3.3 3.3 0 0 1 1.1-2.7 3.7 3.7 0 0 1 2.7-1.2h5.8v-6.4a9.7 9.7 0 0 0-6.7 3 10.2 10.2 0 0 0-2.9 7.3 9.8 9.8 0 0 0 3 7.2 9.3 9.3 0 0 0 6.6 3v-6.5ZM143.5 20.1v13.4a.9.9 0 0 1-.3.6.9.9 0 0 1-.7.3 1.1 1.1 0 0 1-.7-.3.3.3 0 0 1-.1-.2 3.7 3.7 0 0 0 1.1 1.9 4.2 4.2 0 0 0 3 1.3 3.8 3.8 0 0 0 3-1.3 3.6 3.6 0 0 0 1.1-2.1V20.1ZM72.8 20a10.3 10.3 0 0 1 5.2 2.8 10 10 0 0 1 3 7.3V20Z" fill="#9b3e25"/><path d="M61.3 30.4a9.9 9.9 0 0 1 3-7.3 9.7 9.7 0 0 1 6.7-3h-5.8a10.2 10.2 0 0 0-10.3 10.3 10.2 10.2 0 0 0 10.3 10.2H71a9.7 9.7 0 0 1-6.7-3 9.8 9.8 0 0 1-3-7.2ZM97.9 20.1h-5.8a10.2 10.2 0 0 0-10.3 10.3 9.8 9.8 0 0 0 3 7.2 10 10 0 0 0 7.3 3h5.8a9.3 9.3 0 0 1-6.6-3 9.8 9.8 0 0 1-3-7.2 10.2 10.2 0 0 1 2.9-7.3 9.7 9.7 0 0 1 6.7-3Z" fill="#841c17"/><path d="M113.4 28.5a19 19 0 0 1-2.5 3.5 1.1 1.1 0 0 1 .8 1.1 1.2 1.2 0 0 1-1.2 1.3h-1.8c-3.1 3-6.5 5.4-7.3 6.2h9.2a6.4 6.4 0 0 0 2.8-12.1Z" fill="#9b3e25"/><path d="M112.9 21.7a5.8 5.8 0 0 0-4-1.7h-9.3v6.5h1.8v14.1c1.8-1.8 17.7-12.7 11.5-18.9Zm-5.8 7.5v-2.6h1.7a9.9 9.9 0 0 1-1.7 2.6Z" fill="#841c17"/><path d="M126.8 37.6a8.5 8.5 0 0 1-2.6-4.1v-1.2h5v-3.9h-5v-1.9h7.3a7.1 7.1 0 0 0-3-4.2 9.7 9.7 0 0 0-5.2-2.2h-7.4v6.4h1.8v7.1a6.8 6.8 0 0 0 2.2 4.8 6.9 6.9 0 0 0 5.2 2.2h7.3a10.6 10.6 0 0 1-5.6-3Z" fill="#841c17"/><path d="M54.9 44.2h1.3V53h-1.3ZM66.4 53v-8.8h2.4a4.1 4.1 0 0 1 4.2 4.4 4 4 0 0 1-4.2 4.4Zm1.3-7.5v6.2h.9a2.9 2.9 0 0 0 3-3.1 2.8 2.8 0 0 0-3-3.1ZM82.9 44.2h1.3V53h-1.3ZM94.3 48.6c0-2.8 1.4-4.5 3.5-4.5s3.6 1.7 3.6 4.5-1.5 4.6-3.6 4.6-3.5-1.8-3.5-4.6Zm5.8 0c0-2.1-.9-3.2-2.3-3.2s-2.2 1.1-2.2 3.2.9 3.2 2.2 3.2 2.3-1 2.3-3.2ZM117.4 46.7l-2.3 6.3h-.1l-2.3-6.3V53h-1.4v-8.8h1.9l1.9 5.4 1.9-5.4h1.7V53h-1.3ZM133.3 51.3H130l-.5 1.7h-1.4l2.6-8.8h1.9l2.6 8.8h-1.4Zm-2.9-1.3h2.5l-1.3-4.5ZM144.9 51.1a3.8 3.8 0 0 0 2.2.7c.9 0 1.5-.4 1.5-1.1s-.6-1.1-1.5-1.6a7.4 7.4 0 0 1-2.1-1.5 1.6 1.6 0 0 1-.5-1.4c0-1.4 1.2-2.1 2.6-2.1a3.7 3.7 0 0 1 2.4.6l-.4 1.4a2.7 2.7 0 0 0-1.9-.6c-.8 0-1.4.3-1.4.9s.9 1 1.5 1.4 2.6 1.5 2.6 2.8a2.6 2.6 0 0 1-2.8 2.6 4.1 4.1 0 0 1-2.7-.8Z" fill="#053a56"/><path d="M81 30.1a10 10 0 0 0-3-7.3 10.3 10.3 0 0 0-5.2-2.8h-.1v6.5h1.7v14.1H81Z" fill="#841c17"/><path d="m125.1 34.1-.7-.2c0-.1-.1-.2-.2-.4a8.5 8.5 0 0 0 2.6 4.1 10.6 10.6 0 0 0 5.6 3v-6.5Z" fill="#9b3e25"/><path d="M148.8 35.8a3.8 3.8 0 0 1-3 1.3 4.2 4.2 0 0 1-3-1.3 3.7 3.7 0 0 1-1.1-1.9.6.6 0 0 1-.1-.4V20.1h-8.3v6.4h1.8v7a6.9 6.9 0 0 0 2.2 5.2 6.9 6.9 0 0 0 5.2 2.2 7.1 7.1 0 0 0 5.3-2.2 6.7 6.7 0 0 0 2.1-5 3.6 3.6 0 0 1-1.1 2.1Z" fill="#841c17"/></svg>