<?xml version="1.0" encoding="utf-8"?>
<!-- Generator: Adobe Illustrator 24.2.1, SVG Export Plug-In . SVG Version: 6.00 Build 0)  -->
<svg version="1.1" id="Camada_1" xmlns="http://www.w3.org/2000/svg" xmlns:xlink="http://www.w3.org/1999/xlink" x="0px" y="0px"
	 viewBox="0 0 150 69.9" style="enable-background:new 0 0 150 69.9;" xml:space="preserve">
<style type="text/css">
	.st0{fill:#EB7B2A;}
	.st1{fill:#003772;}
	.st2{fill:#0060A9;}
	.st3{fill:#00498A;}
</style>
<g>
	<g>
		<path class="st0" d="M115.6,15.9h10.6l-3.5,5h-10.6L115.6,15.9z"/>
		<path class="st1" d="M2.3,49.9C2,50,1.8,50.1,1.6,50c-0.6,0.1-1.2-0.3-1.3-0.9c0-0.1,0-0.2,0-0.3c-0.1-0.7,0.4-1.2,1.1-1.3
			c0.1,0,0.2,0,0.3,0h0.6V48H1.7c-0.5,0-0.8,0.3-0.8,0.9c-0.1,0.4,0.2,0.7,0.6,0.8c0.1,0,0.1,0,0.2,0h0.5v0.4L2.3,49.9z M3.2,48.6
			h0.2c0.3,0,0.4-0.1,0.4-0.4s-0.1-0.3-0.4-0.3H3.2C3.2,47.9,3.2,48.6,3.2,48.6z M2.7,47.6h0.8c0.3,0,0.6,0,0.8,0.2
			c0.1,0.1,0.2,0.3,0.2,0.5c0,0.3-0.2,0.6-0.5,0.6c0.2,0.1,0.3,0.3,0.4,0.5c0,0.3,0.1,0.6,0.2,0.8H4c-0.1-0.2-0.1-0.4-0.2-0.6
			s-0.1-0.5-0.3-0.5H3.3v1.1H2.7L2.7,47.6z M6.3,48.9H5.4v0.6h1.1v0.6H4.8v-2.6h1.5V48H5.4v0.4h0.9V48.9z M8.7,49.9
			C8.5,50,8.3,50.1,8.1,50c-0.6,0.1-1.2-0.3-1.3-0.9c0-0.1,0-0.2,0-0.3c-0.1-0.7,0.4-1.2,1.1-1.3c0.1,0,0.1,0,0.2,0h0.6V48H8.1
			c-0.4,0-0.8,0.4-0.8,0.8c0,0,0,0.1,0,0.1c-0.1,0.4,0.2,0.7,0.6,0.8c0.1,0,0.1,0,0.2,0h0.5v0.4L8.7,49.9z M9,50.1h0.6v-2.6H9V50.1z
			 M10.8,49.9v-0.3l0.3-0.3c0.5-0.4,0.7-0.7,0.7-1c0-0.2-0.1-0.3-0.3-0.3c0,0,0,0,0,0c-0.2,0-0.4,0-0.5,0.2l-0.2-0.4
			c0.2-0.2,0.5-0.3,0.8-0.3c0.4-0.1,0.7,0.2,0.8,0.6c0,0.1,0,0.1,0,0.2c-0.1,0.4-0.3,0.8-0.6,1l-0.2,0.2h0.9v0.4L10.8,49.9z
			 M13.4,48.2c0,0.2,0.1,0.3,0.3,0.3c0,0,0,0,0,0c0.1,0,0.2-0.1,0.2-0.3s-0.1-0.2-0.2-0.3h-0.1C13.5,47.9,13.4,48,13.4,48.2z
			 M14,49.4c0-0.2-0.2-0.4-0.4-0.4h0c-0.2,0-0.3,0.1-0.3,0.3l0,0c0,0.2,0.1,0.4,0.3,0.4h0.1C13.9,49.7,14,49.6,14,49.4
			C14,49.4,14,49.4,14,49.4z M12.8,49.3c0-0.2,0.2-0.4,0.4-0.5c-0.2-0.1-0.3-0.3-0.3-0.5c0-0.4,0.3-0.7,0.7-0.7c0,0,0.1,0,0.1,0
			c0.5,0,0.7,0.3,0.7,0.6c0,0.2-0.1,0.4-0.3,0.5c0.3,0,0.5,0.3,0.4,0.6c0,0,0,0,0,0c0,0.4-0.3,0.7-0.9,0.7c-0.4,0.1-0.7-0.2-0.8-0.6
			C12.8,49.4,12.8,49.3,12.8,49.3z M15.4,48.4c-0.1,0.2,0.1,0.4,0.3,0.4H16v-0.3c0-0.2-0.1-0.3-0.3-0.4S15.4,48.3,15.4,48.4
			L15.4,48.4z M15,49.6c0.1,0.1,0.2,0.1,0.2,0h0.5c0.2-0.1,0.4-0.4,0.3-0.6c-0.1,0.2-0.3,0.2-0.5,0.2c-0.4,0-0.7-0.3-0.7-0.7
			c0-0.5,0.4-0.9,0.9-0.9h0c0.5,0,0.9,0.4,0.9,0.9c0,0,0,0.1,0,0.1c0,0.4-0.1,0.8-0.4,1.1c-0.3,0.3-0.6,0.4-1,0.4H15V49.6z
			 M18.1,49.2c0-0.2-0.1-0.4-0.3-0.4L17.4,49c0,0.3,0.1,0.5,0.4,0.5s0.3-0.2,0.3-0.4V49.2z M18.4,48h-0.2c-0.4,0-0.7,0.2-0.8,0.6
			l0.5-0.2c0.4-0.1,0.7,0.2,0.8,0.6c0,0,0,0.1,0,0.1c0,0.5-0.4,0.9-0.9,0.9c0,0,0,0,0,0c-0.6,0-1-0.4-1-1c0,0,0-0.1,0-0.1
			c0-0.4,0.2-0.8,0.5-1.1c0.3-0.2,0.6-0.3,0.9-0.3h0.2V48z M18.9,49.2h0.9v-0.3h-0.9V49.2z M20.7,47.5h0.6v1.6
			c0.1,0.5-0.3,0.9-0.8,1c0,0-0.1,0-0.1,0h-0.5v-0.4h0.3c0.2,0,0.4-0.1,0.4-0.5v-1.6L20.7,47.5z M2.3,54.4H1.6
			c-0.7,0-1.2-0.5-1.3-1.2c0-0.7,0.6-1.3,1.3-1.3c0,0,0.1,0,0.1,0h0.6v0.5H1.7c-0.4,0-0.8,0.4-0.8,0.8c0,0.4,0.4,0.8,0.8,0.8h0.5
			L2.3,54.4z M3.2,53.1h0.2c0.3,0,0.4-0.1,0.4-0.4s-0.1-0.3-0.4-0.3H3.2V53.1z M2.7,52h0.8l0.8,0.2c0.1,0.2,0.2,0.3,0.2,0.5
			c0,0.3-0.2,0.6-0.5,0.7c0.2,0.1,0.4,0.3,0.4,0.5c0,0.2,0.1,0.5,0.2,0.7H4c-0.1-0.2-0.1-0.4-0.2-0.6s-0.1-0.4-0.3-0.4H3.3v1H2.7
			L2.7,52z M6.3,53.4H5.4V54h1.1v0.4H4.8v-2.5h1.5v0.4H5.4v0.6h0.9V53.4z M8.7,54.4H8c-0.7,0-1.3-0.6-1.3-1.3l0,0
			c0-0.7,0.6-1.3,1.3-1.3c0,0,0.1,0,0.1,0h0.6v0.5H8.1c-0.5,0-0.8,0.2-0.8,0.8c-0.1,0.4,0.2,0.7,0.6,0.8c0.1,0,0.1,0,0.2,0h0.5
			L8.7,54.4z M9,54.4h0.6v-2.5H9V54.4z M11.2,53.2c0,0.6,0.2,0.9,0.4,0.9s0.3-0.3,0.3-0.9s-0.1-0.8-0.3-0.8S11.2,52.7,11.2,53.2z
			 M12.4,53.2c0,0.8-0.3,1.3-0.9,1.3s-0.9-0.6-0.9-1.3s0.3-1.2,1-1.2s0.9,0.6,0.9,1.2H12.4z M13.5,52.5L13,52.8l-0.1-0.5l0.7-0.3
			h0.5v2.4h-0.6C13.5,54.4,13.5,52.5,13.5,52.5z M15.4,52.8c-0.1,0.2,0.1,0.4,0.3,0.4L16,53v-0.3c0-0.2-0.1-0.3-0.3-0.3c0,0,0,0,0,0
			C15.5,52.3,15.4,52.5,15.4,52.8z M15,54h0.2l0.5-0.2c0.2-0.1,0.3-0.2,0.3-0.4l-0.5,0.2c-0.4,0-0.7-0.3-0.7-0.7
			c0-0.5,0.3-0.8,0.8-0.9h0.1c0.6,0,0.9,0.5,0.9,1.1c-0.1,0.8-0.7,1.4-1.5,1.4H15V54z M16.9,54.1l0.3-0.3h0.1c0.2,0,0.3,0.1,0.3,0.3
			l0,0c0,0.2-0.1,0.4-0.3,0.4C17.1,54.5,16.9,54.3,16.9,54.1L16.9,54.1z M18.9,53.5v-1l-0.3,0.4l-0.3,0.5L18.9,53.5L18.9,53.5z
			 M18.9,54.4v-0.6h-1.2v-0.3l0.9-1.5h0.7v1.4h0.3v0.4h-0.1v0.6H18.9z M20.5,52.5h0.1l-0.4,0.3l-0.1-0.5l0.6-0.3h0.4v2.4h-0.6V52.5z
			 M22.9,53.5v-0.6c0.1-0.1,0.1-0.3,0.1-0.4l-0.3,0.4l-0.4,0.5v0.2L22.9,53.5z M22.9,54.4v-0.6h-1v-0.3l0.9-1.5h0.7v1.4h0.3v0.4
			h-0.3v0.6H22.9z M24,53.7h0.9v-0.3H24V53.7z M25.8,51.9h0.6v1.6c0,0.7-0.4,0.9-1,0.9H25v-0.5h0.3c0.2,0,0.4-0.1,0.4-0.5v-1.5H25.8
			z"/>
		<path class="st2" d="M3.2,15.8h23.3c0.8,0,1.6,0.1,2.4,0.3c0.7,0.2,1.4,0.5,2,0.9c0.6,0.4,1.1,0.8,1.5,1.3
			c0.5,0.5,0.8,1.1,1.1,1.7c0.3,0.6,0.5,1.2,0.7,1.8c0.1,0.7,0.2,1.3,0.2,2c0,0.7-0.1,1.3-0.3,2c-0.1,0.6-0.3,1.2-0.6,1.8
			c-0.3,0.6-0.7,1.2-1.1,1.7c-0.4,0.5-0.9,0.9-1.5,1.3c-0.6,0.4-1.3,0.6-2,0.8c-0.8,0.2-1.6,0.3-2.4,0.3h0.2l8.5,10.5h-6.9
			l-8.5-10.5H5.5v10.5H0V18.8l0.3-1.2c0.3-0.7,0.9-1.3,1.6-1.6l1.2-0.2H3.2z M26.2,26.7l1.1-0.2l0.8-0.7c0.2-0.3,0.3-0.6,0.4-0.9
			c0.3-0.7,0.3-1.5,0-2.2c-0.1-0.3-0.2-0.6-0.4-0.9c-0.2-0.3-0.5-0.5-0.8-0.7c-0.3-0.2-0.7-0.2-1.1-0.2H5.5v5.8H26.2z M40.4,39.4
			c-0.8-0.8-1.5-1.7-1.9-2.7c-0.5-1.1-0.7-2.2-0.7-3.4v-8.9c0-1.1,0.2-2.2,0.6-3.3c0.5-1,1.2-1.9,2-2.7c0.8-0.8,1.7-1.5,2.7-2
			c1.1-0.4,2.2-0.6,3.4-0.6h16.2c1.1,0,2.2,0.2,3.3,0.6c3.2,1.4,5.3,4.5,5.4,8v8.9c0,1.2-0.3,2.3-0.7,3.4c-0.5,1-1.1,1.9-1.9,2.7
			l-1.3,1.1L66,41.3l-1.6,0.5L62.7,42H46.5l-1.8-0.2l-1.6-0.5l-1.5-0.8L40.4,39.4z M43.2,33.9c0,0.4,0.1,0.8,0.2,1.2
			c0.2,0.4,0.4,0.7,0.7,1l1,0.7c0.4,0.2,0.8,0.3,1.2,0.3h16.3c0.4,0,0.8-0.1,1.2-0.3c0.8-0.4,1.4-1,1.7-1.8c0.2-0.3,0.3-0.7,0.3-1.1
			v-9.8c0-0.4-0.1-0.9-0.2-1.3c-0.2-0.4-0.4-0.7-0.7-1l-1-0.7c-0.4-0.2-0.9-0.2-1.3-0.2H46.4c-0.4,0-0.9,0-1.3,0.2
			c-0.7,0.3-1.4,1-1.7,1.7c-0.1,0.4-0.2,0.9-0.2,1.3C43.2,24.1,43.2,33.9,43.2,33.9z M78.3,18.4c0.8-0.8,1.7-1.5,2.8-1.9
			c1-0.5,2.2-0.7,3.3-0.6h28.5l-3.5,5h-25c-0.4-0.1-0.9,0-1.3,0.2c-0.7,0.3-1.4,1-1.7,1.7c-0.1,0.4-0.2,1.2-0.2,1.2v9.9
			c0,0.4,0.1,0.8,0.3,1.2c0.2,0.4,0.4,0.7,0.7,1l1,0.7c0.4,0.2,0.8,0.3,1.2,0.3h28.3l-3.3,4.9h-25c-0.6,0.1-1.1,0-1.7-0.1l-1.6-0.5
			c-0.5-0.2-1.1-0.5-1.5-0.9l-1.3-1c-0.8-0.8-1.5-1.7-1.9-2.7c-0.4-1.1-0.6-2.2-0.7-3.4v-8.9c0.1-1.1,0.3-2.2,0.7-3.3
			C76.8,20.2,77.5,19.2,78.3,18.4z M111.6,42L128,17.4c0.8-1.2,1.7-1.9,2.5-1.9s1.6,0.7,2.5,1.9L149.3,42h-6.7l-12.1-18.4L118.3,42
			H111.6z"/>
		<path class="st3" d="M112.8,46.2c-0.2,0-0.5,0.1-0.6,0.3c-0.2,0.2-0.3,0.4-0.3,0.6c0,0.4,0.3,0.7,0.7,0.7c0.3,0,0.5,0,0.6-0.2
			c0.2-0.2,0.3-0.4,0.3-0.6C113.5,46.6,113.2,46.3,112.8,46.2z M113.3,48.7h-1.4l-0.4,5.3h1.4L113.3,48.7z M121.3,48.6
			c-0.8,0-1.6,0.3-2.1,0.9c-0.2-0.6-0.8-1-1.4-0.9c-0.7,0-1.3,0.2-1.8,0.7v-0.6h-1.2l-0.4,5.3h1.4l0.2-3.8c0.3-0.3,0.8-0.4,1.2-0.4
			l0.6,0.2c0.2,0.2,0.3,0.4,0.2,0.7l-0.2,3.5h1.3l0.3-3.7v-0.3c0.3-0.3,0.8-0.4,1.2-0.4l0.7,0.2c0.1,0.2,0.2,0.5,0.2,0.7l-0.3,3.5
			h1.4l0.3-3.7c0-0.5-0.1-0.9-0.4-1.3C122.2,48.8,121.8,48.6,121.3,48.6L121.3,48.6z M129.1,46h-1.5l-1.1,2h1.1L129.1,46z M127,48.7
			c-0.9-0.1-1.7,0.3-2.3,0.9c-0.5,0.6-0.8,1.3-0.8,2.1c-0.1,0.7,0.2,1.3,0.7,1.8c0.6,0.5,1.3,0.7,2,0.7c0.9,0,1.7-0.3,2.3-0.9
			c0.5-0.6,0.8-1.3,0.8-2.1c0-0.7-0.3-1.3-0.8-1.8C128.4,48.9,127.7,48.6,127,48.7L127,48.7z M126.9,49.8c0.7-0.1,1.3,0.5,1.4,1.2
			c0,0,0,0.1,0,0.1v0.2c0.1,0.5-0.1,0.9-0.5,1.2c-0.3,0.3-0.7,0.5-1.1,0.5c-0.7,0.1-1.4-0.5-1.5-1.2v-0.2c0-0.5,0.2-0.9,0.5-1.3
			C126,50,126.4,49.8,126.9,49.8z M134.7,48.7l-1.8,3.7l-1.2-3.7h-1.5l2,5.3h1.2l2.7-5.3H134.7z M139.3,48.7c-0.8,0-1.6,0.3-2.1,0.9
			c-0.6,0.5-0.9,1.3-0.9,2.1c0,0.7,0.3,1.3,0.7,1.8c0.6,0.5,1.3,0.7,2,0.7c1.1,0,2.1-0.5,2.6-1.4l-1-0.4c-0.5,0.8-1.6,1-2.3,0.5
			c-0.1,0-0.1-0.1-0.2-0.1c-0.3-0.3-0.4-0.7-0.4-1.1h4.3v-0.3c0-0.8-0.2-1.5-0.8-2c-0.5-0.4-1.1-0.7-1.8-0.7H139.3z M139.3,49.7
			c0.7-0.1,1.2,0.4,1.3,1.1c0,0,0,0,0,0h-2.8c0.1-0.3,0.3-0.6,0.6-0.8C138.7,49.8,139,49.7,139.3,49.7z M144.2,46.2l-0.6,0.3
			c-0.1,0.2-0.2,0.4-0.2,0.6c0,0.2,0.1,0.4,0.2,0.5c0.1,0.2,0.3,0.3,0.5,0.2c0.2,0,0.5,0,0.6-0.2c0.2-0.2,0.3-0.4,0.3-0.6
			C145,46.6,144.6,46.2,144.2,46.2L144.2,46.2z M144.7,48.7h-1.3L143,54h1.4L144.7,48.7z M148,48.6c-0.5,0-1.1,0.1-1.5,0.4
			c-0.4,0.3-0.6,0.8-0.6,1.3c0,0.3,0.1,0.6,0.3,0.8c0.2,0.2,0.4,0.4,0.7,0.5l0.8,0.2l0.6,0.2c0.2,0.1,0.3,0.2,0.3,0.4
			c0,0.2-0.1,0.4-0.2,0.5c-0.2,0.2-0.4,0.2-0.7,0.2H147c-0.1-0.1-0.2-0.3-0.2-0.5h-1.1c-0.1,0.2,0,0.5,0.1,0.7
			c0,0.2,0.1,0.4,0.3,0.5l0.5,0.3h1.2c0.6,0,1.1-0.1,1.6-0.5c0.4-0.3,0.6-0.8,0.6-1.3c0-0.3-0.1-0.6-0.3-0.8
			c-0.2-0.2-0.4-0.4-0.7-0.5l-0.8-0.2l-0.7-0.2c-0.1-0.1-0.2-0.2-0.2-0.4c0-0.3,0.2-0.5,0.7-0.5s0.8,0.2,0.8,0.5h1.2
			c0-0.4-0.1-0.9-0.4-1.2C149.1,48.7,148.6,48.5,148,48.6L148,48.6z"/>
	</g>
</g>
</svg>
